{
.appVersion = "913";
copyright = "Copyright 2016 Google Inc. All Rights Reserved.";
customParameters = (
{
name = description;
value = "Designed by Monotype design team.";
},
{
name = license;
value = "This Font Software is licensed under the SIL Open Font License, Version 1.1. This Font Software is distributed on an \"AS IS\" BASIS, WITHOUT WARRANTIES OR CONDITIONS OF ANY KIND, either express or implied. See the SIL Open Font License for the specific language, permissions and limitations governing your use of this Font Software.";
},
{
name = licenseURL;
value = "http://scripts.sil.org/OFL";
},
{
name = vendorID;
value = GOOG;
},
{
name = glyphOrder;
value = (
.notdef,
null,
CR,
space,
uni0338,
uni20A0,
uni20A1,
uni20A2,
franc,
afii08941,
uni20A5,
uni20A6,
peseta,
uni20A8,
uni20A9,
afii57636,
uni20AB,
Euro,
uni20AD,
uni20AE,
uni20AF,
uni20B0,
uni20B1,
uni20B2,
uni20B3,
uni20B4,
uni20B5,
uni20B6,
uni20B7,
uni20B8,
uni20B9,
uni20BA,
uni20BC,
uni20BD,
uni20BE,
uni20D0,
uni20D1,
uni20D2,
uni20D3,
uni20D4,
uni20D5,
uni20D6,
uni20D7,
uni20D8,
uni20D9,
uni20DA,
uni20DB,
uni20DC,
uni20DD,
uni20DE,
uni20DF,
uni20E0,
uni20E1,
uni20E2,
uni20E3,
uni20E4,
uni20E5,
uni20E6,
uni20E7,
uni20E8,
uni20E9,
uni20EA,
uni20EB,
uni20EC,
uni20ED,
uni20EE,
uni20EF,
uni20F0,
uni2100,
uni2101,
uni2102,
uni2103,
uni2104,
afii61248,
uni2106,
uni2107,
afii12108,
uni2109,
uni210A,
uni210B,
uni210C,
uni210D,
uni210E,
uni210F,
uni2110,
Ifraktur,
uni2112,
afii61289,
uni2114,
uni2115,
afii61352,
uni2117,
weierstrass,
uni2119,
uni211A,
uni211B,
Rfraktur,
uni211D,
prescription,
uni211F,
uni2120,
uni2121,
trademark,
uni2123,
uni2124,
uni2125,
Omega,
uni2127,
uni2128,
uni2129,
uni212A,
uni212B,
uni212C,
uni212D,
estimated,
uni212F,
uni2130,
uni2131,
uni2132,
uni2133,
uni2134,
aleph,
uni2136,
uni2137,
uni2138,
uni2139,
uni213A,
uni213B,
uni213C,
uni213D,
uni213E,
uni213F,
uni2140,
uni2141,
uni2142,
uni2143,
uni2144,
uni2145,
uni2146,
uni2147,
uni2148,
uni2149,
uni214A,
uni214B,
uni214C,
uni214D,

glyphs = (
{
glyphname = .notdef;
lastChange = "2016-08-19 02:48:46 +0000";
layers = (
{
layerId = "6E183CFB-E55F-4C96-8804-AC4D4AF4B24B";
paths = (
{
closed = 1;
nodes = (
"505 0 LINE",
"505 714 LINE",
"95 714 LINE",
"95 0 LINE"
);
},
{
closed = 1;
nodes = (
"146 663 LINE",
"455 663 LINE",
"455 51 LINE",
"146 51 LINE"
);
}
);
width = 600;
}
);
note = .notdef;
},
{
glyphname = uni20E3;
lastChange = "2016-08-19 02:48:46 +0000";
layers = (
{
layerId = "6E183CFB-E55F-4C96-8804-AC4D4AF4B24B";
paths = (
{
closed = 1;
nodes = (
"336 -10 LINE SMOOTH",
"388 -10 OFFCURVE",
"422 24 OFFCURVE",
"422 76 CURVE SMOOTH",
"422 746 LINE SMOOTH",
"422 798 OFFCURVE",
"388 832 OFFCURVE",
"336 832 CURVE SMOOTH",
"-335 832 LINE SMOOTH",
"-387 832 OFFCURVE",
"-422 798 OFFCURVE",
"-422 746 CURVE SMOOTH",
"-422 76 LINE SMOOTH",
"-422 24 OFFCURVE",
"-387 -10 OFFCURVE",
"-335 -10 CURVE SMOOTH"
);
},
{
closed = 1;
nodes = (
"-246 122 OFFCURVE",
"-265 141 OFFCURVE",
"-265 190 CURVE SMOOTH",
"-265 631 LINE SMOOTH",
"-265 680 OFFCURVE",
"-246 700 OFFCURVE",
"-197 700 CURVE SMOOTH",
"198 700 LINE SMOOTH",
"249 700 OFFCURVE",
"266 682 OFFCURVE",
"266 631 CURVE SMOOTH",
"266 190 LINE SMOOTH",
"266 139 OFFCURVE",
"249 122 OFFCURVE",
"198 122 CURVE SMOOTH",
"-197 122 LINE SMOOTH"
);
},
{
closed = 1;
nodes = (
"314 93 LINE",
"314 678 LINE SMOOTH",
"314 725 OFFCURVE",
"292 748 OFFCURVE",
"247 748 CURVE SMOOTH",
"-282 748 LINE",
"-355 808 LINE",
"327 808 LINE SMOOTH",
"370 808 OFFCURVE",
"398 776 OFFCURVE",
"398 733 CURVE SMOOTH",
"398 52 LINE"
);
}
);
width = 0;
}
);
note = uni20E3;
unicode = 20E3;
},
{
glyphname = uni2400;
lastChange = "2016-08-19 02:48:46 +0000";
layers = (
{
layerId = "6E183CFB-E55F-4C96-8804-AC4D4AF4B24B";
paths = (
{
closed = 1;
nodes = (
"365 228 OFFCURVE",
"392 261 OFFCURVE",
"392 309 CURVE SMOOTH",
"392 458 LINE",
"354 458 LINE",
"354 309 LINE SMOOTH",
"354 275 OFFCURVE",
"341 258 OFFCURVE",
"315 258 CURVE SMOOTH",
"288 258 OFFCURVE",
"274 275 OFFCURVE",
"274 309 CURVE SMOOTH",
"274 458 LINE",
"236 458 LINE",
"236 310 LINE SMOOTH",
"236 259 OFFCURVE",
"265 228 OFFCURVE",
"314 228 CURVE SMOOTH"
);
},
{
closed = 1;
nodes = (
"570 0 LINE",
"570 30 LINE",
"473 30 LINE",
"473 227 LINE",
"436 227 LINE",
"436 0 LINE"
);
},
{
closed = 1;
nodes = (
"70 463 LINE",
"70 590 LINE",
"68 636 LINE",
"148 463 LINE",
"188 463 LINE",
"188 690 LINE",
"153 690 LINE",
"153 540 LINE",
"154 518 LINE",
"75 690 LINE",
"35 690 LINE",
"35 463 LINE"
);
}
);
width = 600;
}
);
note = uni2400;
unicode = 2400;
},
{
glyphname = uni2401;
lastChange = "2016-08-19 02:48:46 +0000";
layers = (
{
layerId = "6E183CFB-E55F-4C96-8804-AC4D4AF4B24B";
paths = (
{
closed = 1;
nodes = (
"361 227 OFFCURVE",
"388 276 OFFCURVE",
"388 347 CURVE SMOOTH",
"388 424 OFFCURVE",
"357 463 OFFCURVE",
"296 463 CURVE SMOOTH",
"235 463 OFFCURVE",
"204 424 OFFCURVE",
"204 347 CURVE SMOOTH",
"204 267 OFFCURVE",
"234 227 OFFCURVE",
"295 227 CURVE SMOOTH"
);
},
{
closed = 1;
nodes = (
"447 0 LINE",
"447 103 LINE",
"528 103 LINE",
"528 0 LINE",
"565 0 LINE",
"565 227 LINE",
"528 227 LINE",
"528 133 LINE",
"447 133 LINE",
"447 227 LINE",
"410 227 LINE",
"410 0 LINE"
);
},
{
closed = 1;
nodes = (
"262 257 OFFCURVE",
"245 287 OFFCURVE",
"245 347 CURVE SMOOTH",
"245 404 OFFCURVE",
"262 433 OFFCURVE",
"296 433 CURVE SMOOTH",
"330 433 OFFCURVE",
"347 404 OFFCURVE",
"347 347 CURVE SMOOTH",
"347 287 OFFCURVE",
"330 257 OFFCURVE",
"295 257 CURVE SMOOTH"
);
},
{
closed = 1;
nodes = (
"149 458 OFFCURVE",
"184 479 OFFCURVE",
"184 524 CURVE SMOOTH",
"184 567 OFFCURVE",
"134 584 OFFCURVE",
"98 601 CURVE SMOOTH",
"80 609 OFFCURVE",
"71 621 OFFCURVE",
"71 635 CURVE SMOOTH",
"71 654 OFFCURVE",
"88 665 OFFCURVE",
"112 665 CURVE SMOOTH",
"130 665 OFFCURVE",
"148 661 OFFCURVE",
"167 652 CURVE",
"178 680 LINE",
"157 689 OFFCURVE",
"135 694 OFFCURVE",
"110 694 CURVE SMOOTH",
"69 694 OFFCURVE",
"33 676 OFFCURVE",
"33 635 CURVE SMOOTH",
"33 593 OFFCURVE",
"67 575 OFFCURVE",
"112 558 CURVE SMOOTH",
"134 549 OFFCURVE",
"145 537 OFFCURVE",
"145 521 CURVE SMOOTH",
"145 498 OFFCURVE",
"129 487 OFFCURVE",
"98 487 CURVE SMOOTH",
"76 487 OFFCURVE",
"53 493 OFFCURVE",
"29 504 CURVE",
"29 471 LINE",
"48 462 OFFCURVE",
"71 458 OFFCURVE",
"98 458 CURVE SMOOTH"
);
}
);
width = 600;
}
);
note = uni2401;
unicode = 2401;
},
{
glyphname = uni2402;
lastChange = "2016-08-19 02:48:46 +0000";
layers = (
{
layerId = "6E183CFB-E55F-4C96-8804-AC4D4AF4B24B";
paths = (
{
closed = 1;
nodes = (
"437 0 LINE",
"489 90 LINE",
"542 0 LINE",
"582 0 LINE",
"511 118 LINE",
"576 227 LINE",
"539 227 LINE",
"491 145 LINE",
"443 227 LINE",
"403 227 LINE",
"469 117 LINE",
"399 0 LINE"
);
},
{
closed = 1;
nodes = (
"335 231 LINE",
"335 428 LINE",
"396 428 LINE",
"396 458 LINE",
"237 458 LINE",
"237 428 LINE",
"298 428 LINE",
"298 231 LINE"
);
},
{
closed = 1;
nodes = (
"149 458 OFFCURVE",
"184 479 OFFCURVE",
"184 524 CURVE SMOOTH",
"184 567 OFFCURVE",
"134 584 OFFCURVE",
"98 601 CURVE SMOOTH",
"80 609 OFFCURVE",
"71 621 OFFCURVE",
"71 635 CURVE SMOOTH",
"71 654 OFFCURVE",
"88 665 OFFCURVE",
"112 665 CURVE SMOOTH",
"130 665 OFFCURVE",
"148 661 OFFCURVE",
"167 652 CURVE",
"178 680 LINE",
"157 689 OFFCURVE",
"135 694 OFFCURVE",
"110 694 CURVE SMOOTH",
"69 694 OFFCURVE",
"33 676 OFFCURVE",
"33 635 CURVE SMOOTH",
"33 593 OFFCURVE",
"67 575 OFFCURVE",
"112 558 CURVE SMOOTH",
"134 549 OFFCURVE",
"145 537 OFFCURVE",
"145 521 CURVE SMOOTH",
"145 498 OFFCURVE",
"129 487 OFFCURVE",
"98 487 CURVE SMOOTH",
"76 487 OFFCURVE",
"53 493 OFFCURVE",
"29 504 CURVE",
"29 471 LINE",
"48 462 OFFCURVE",
"71 458 OFFCURVE",
"98 458 CURVE SMOOTH"
);
}
);
width = 600;
}
);
note = uni2402;
unicode = 2402;
},
{
glyphname = uni2403;
lastChange = "2016-08-19 02:48:46 +0000";
layers = (
{
layerId = "6E183CFB-E55F-4C96-8804-AC4D4AF4B24B";
paths = (
{
closed = 1;
nodes = (
"437 0 LINE",
"489 90 LINE",
"542 0 LINE",
"582 0 LINE",
"511 118 LINE",
"576 227 LINE",
"539 227 LINE",
"491 145 LINE",
"443 227 LINE",
"403 227 LINE",
"469 117 LINE",
"399 0 LINE"
);
},
{
closed = 1;
nodes = (
"335 231 LINE",
"335 428 LINE",
"396 428 LINE",
"396 458 LINE",
"237 458 LINE",
"237 428 LINE",
"298 428 LINE",
"298 231 LINE"
);
},
{
closed = 1;
nodes = (
"181 463 LINE",
"181 493 LINE",
"78 493 LINE",
"78 566 LINE",
"175 566 LINE",
"175 596 LINE",
"78 596 LINE",
"78 660 LINE",
"181 660 LINE",
"181 690 LINE",
"41 690 LINE",
"41 463 LINE"
);
}
);
width = 600;
}
);
note = uni2403;
unicode = 2403;
},
{
glyphname = uni2404;
lastChange = "2016-08-19 02:48:46 +0000";
layers = (
{
layerId = "6E183CFB-E55F-4C96-8804-AC4D4AF4B24B";
paths = (
{
closed = 1;
nodes = (
"364 227 OFFCURVE",
"391 276 OFFCURVE",
"391 347 CURVE SMOOTH",
"391 424 OFFCURVE",
"360 463 OFFCURVE",
"299 463 CURVE SMOOTH",
"238 463 OFFCURVE",
"207 424 OFFCURVE",
"207 347 CURVE SMOOTH",
"207 267 OFFCURVE",
"237 227 OFFCURVE",
"298 227 CURVE SMOOTH"
);
},
{
closed = 1;
nodes = (
"521 0 LINE",
"521 197 LINE",
"582 197 LINE",
"582 227 LINE",
"423 227 LINE",
"423 197 LINE",
"484 197 LINE",
"484 0 LINE"
);
},
{
closed = 1;
nodes = (
"265 257 OFFCURVE",
"248 287 OFFCURVE",
"248 347 CURVE SMOOTH",
"248 404 OFFCURVE",
"265 433 OFFCURVE",
"299 433 CURVE SMOOTH",
"333 433 OFFCURVE",
"350 404 OFFCURVE",
"350 347 CURVE SMOOTH",
"350 287 OFFCURVE",
"333 257 OFFCURVE",
"298 257 CURVE SMOOTH"
);
},
{
closed = 1;
nodes = (
"181 463 LINE",
"181 493 LINE",
"78 493 LINE",
"78 566 LINE",
"175 566 LINE",
"175 596 LINE",
"78 596 LINE",
"78 660 LINE",
"181 660 LINE",
"181 690 LINE",
"41 690 LINE",
"41 463 LINE"
);
}
);
width = 600;
}
);
note = uni2404;
unicode = 2404;
},
{
glyphname = uni2405;
lastChange = "2016-08-19 02:48:46 +0000";
layers = (
{
layerId = "6E183CFB-E55F-4C96-8804-AC4D4AF4B24B";
paths = (
{
closed = 1;
nodes = (
"562 -45 LINE",
"527 3 LINE",
"524 2 LINE",
"560 19 OFFCURVE",
"577 56 OFFCURVE",
"577 114 CURVE SMOOTH",
"577 191 OFFCURVE",
"546 230 OFFCURVE",
"485 230 CURVE SMOOTH",
"424 230 OFFCURVE",
"393 191 OFFCURVE",
"393 114 CURVE SMOOTH",
"393 34 OFFCURVE",
"423 -6 OFFCURVE",
"484 -6 CURVE",
"494 -5 LINE",
"517 -45 LINE"
);
},
{
closed = 1;
nodes = (
"451 24 OFFCURVE",
"434 54 OFFCURVE",
"434 114 CURVE SMOOTH",
"434 171 OFFCURVE",
"451 200 OFFCURVE",
"485 200 CURVE SMOOTH",
"519 200 OFFCURVE",
"536 171 OFFCURVE",
"536 114 CURVE SMOOTH",
"536 54 OFFCURVE",
"519 24 OFFCURVE",
"484 24 CURVE SMOOTH"
);
},
{
closed = 1;
nodes = (
"255 229 LINE",
"255 356 LINE",
"253 402 LINE",
"333 229 LINE",
"373 229 LINE",
"373 456 LINE",
"338 456 LINE",
"338 306 LINE",
"339 284 LINE",
"260 456 LINE",
"220 456 LINE",
"220 229 LINE"
);
},
{
closed = 1;
nodes = (
"176 463 LINE",
"176 493 LINE",
"78 493 LINE",
"78 566 LINE",
"170 566 LINE",
"170 596 LINE",
"78 596 LINE",
"78 660 LINE",
"176 660 LINE",
"176 690 LINE",
"41 690 LINE",
"41 463 LINE"
);
}
);
width = 600;
}
);
note = uni2405;
unicode = 2405;
},
{
glyphname = uni2406;
lastChange = "2016-08-19 02:48:46 +0000";
layers = (
{
layerId = "6E183CFB-E55F-4C96-8804-AC4D4AF4B24B";
paths = (
{
closed = 1;
nodes = (
"48 463 LINE",
"68 531 LINE",
"140 531 LINE",
"160 463 LINE",
"197 463 LINE",
"118 690 LINE",
"90 690 LINE",
"11 463 LINE"
);
},
{
closed = 1;
nodes = (
"453 0 LINE",
"453 94 LINE",
"462 103 LINE",
"539 0 LINE",
"583 0 LINE",
"487 127 LINE",
"580 227 LINE",
"536 227 LINE",
"453 134 LINE",
"453 227 LINE",
"415 227 LINE",
"415 0 LINE"
);
},
{
closed = 1;
nodes = (
"339 227 OFFCURVE",
"354 230 OFFCURVE",
"369 236 CURVE",
"369 266 LINE",
"356 260 OFFCURVE",
"341 257 OFFCURVE",
"324 257 CURVE SMOOTH",
"280 257 OFFCURVE",
"258 286 OFFCURVE",
"258 345 CURVE SMOOTH",
"258 390 OFFCURVE",
"277 433 OFFCURVE",
"322 433 CURVE SMOOTH",
"337 433 OFFCURVE",
"352 429 OFFCURVE",
"366 421 CURVE",
"378 448 LINE",
"364 458 OFFCURVE",
"345 463 OFFCURVE",
"322 463 CURVE SMOOTH",
"255 463 OFFCURVE",
"217 413 OFFCURVE",
"217 345 CURVE SMOOTH",
"217 273 OFFCURVE",
"251 227 OFFCURVE",
"323 227 CURVE SMOOTH"
);
},
{
closed = 1;
nodes = (
"104 651 LINE",
"130 561 LINE",
"78 561 LINE"
);
}
);
width = 600;
}
);
note = uni2406;
unicode = 2406;
},
{
glyphname = uni2407;
lastChange = "2016-08-19 02:48:46 +0000";
layers = (
{
layerId = "6E183CFB-E55F-4C96-8804-AC4D4AF4B24B";
paths = (
{
closed = 1;
nodes = (
"114 463 LINE SMOOTH",
"161 463 OFFCURVE",
"198 481 OFFCURVE",
"198 528 CURVE SMOOTH",
"198 555 OFFCURVE",
"181 573 OFFCURVE",
"146 582 CURVE",
"170 588 OFFCURVE",
"190 607 OFFCURVE",
"190 631 CURVE SMOOTH",
"190 671 OFFCURVE",
"167 690 OFFCURVE",
"99 690 CURVE SMOOTH",
"38 690 LINE",
"38 463 LINE"
);
},
{
closed = 1;
nodes = (
"570 0 LINE",
"570 30 LINE",
"473 30 LINE",
"473 227 LINE",
"436 227 LINE",
"436 0 LINE"
);
},
{
closed = 1;
nodes = (
"369 231 LINE",
"369 261 LINE",
"266 261 LINE",
"266 334 LINE",
"363 334 LINE",
"363 364 LINE",
"266 364 LINE",
"266 428 LINE",
"369 428 LINE",
"369 458 LINE",
"229 458 LINE",
"229 231 LINE"
);
},
{
closed = 1;
nodes = (
"76 566 LINE",
"107 566 LINE SMOOTH",
"141 566 OFFCURVE",
"157 554 OFFCURVE",
"157 531 CURVE SMOOTH",
"157 505 OFFCURVE",
"141 492 OFFCURVE",
"109 492 CURVE SMOOTH",
"76 492 LINE"
);
},
{
closed = 1;
nodes = (
"76 661 LINE",
"101 661 LINE SMOOTH",
"132 661 OFFCURVE",
"149 656 OFFCURVE",
"149 629 CURVE SMOOTH",
"149 606 OFFCURVE",
"140 595 OFFCURVE",
"105 595 CURVE SMOOTH",
"76 595 LINE"
);
}
);
width = 600;
}
);
note = uni2407;
unicode = 2407;
},
{
glyphname = uni2408;
lastChange = "2016-08-19 02:48:46 +0000";
layers = (
{
layerId = "6E183CFB-E55F-4C96-8804-AC4D4AF4B24B";
paths = (
{
closed = 1;
nodes = (
"445 119 OFFCURVE",
"480 140 OFFCURVE",
"480 185 CURVE SMOOTH",
"480 228 OFFCURVE",
"428 247 OFFCURVE",
"393 263 CURVE SMOOTH",
"376 271 OFFCURVE",
"367 282 OFFCURVE",
"367 296 CURVE SMOOTH",
"367 315 OFFCURVE",
"384 326 OFFCURVE",
"408 326 CURVE SMOOTH",
"426 326 OFFCURVE",
"444 322 OFFCURVE",
"463 313 CURVE",
"474 341 LINE",
"453 350 OFFCURVE",
"431 355 OFFCURVE",
"406 355 CURVE SMOOTH",
"365 355 OFFCURVE",
"329 337 OFFCURVE",
"329 296 CURVE SMOOTH",
"329 253 OFFCURVE",
"364 236 OFFCURVE",
"408 219 CURVE SMOOTH",
"430 210 OFFCURVE",
"441 198 OFFCURVE",
"441 182 CURVE SMOOTH",
"441 159 OFFCURVE",
"425 148 OFFCURVE",
"394 148 CURVE SMOOTH",
"372 148 OFFCURVE",
"349 154 OFFCURVE",
"325 165 CURVE",
"325 132 LINE",
"344 124 OFFCURVE",
"367 119 OFFCURVE",
"394 119 CURVE SMOOTH"
);
},
{
closed = 1;
nodes = (
"152 454 LINE",
"183 454 LINE SMOOTH",
"216 454 OFFCURVE",
"233 442 OFFCURVE",
"233 419 CURVE SMOOTH",
"233 393 OFFCURVE",
"217 380 OFFCURVE",
"185 380 CURVE SMOOTH",
"152 380 LINE"
);
},
{
closed = 1;
nodes = (
"190 351 LINE SMOOTH",
"237 351 OFFCURVE",
"274 369 OFFCURVE",
"274 416 CURVE SMOOTH",
"274 443 OFFCURVE",
"257 461 OFFCURVE",
"222 470 CURVE",
"246 477 OFFCURVE",
"266 495 OFFCURVE",
"266 519 CURVE SMOOTH",
"266 559 OFFCURVE",
"243 578 OFFCURVE",
"175 578 CURVE SMOOTH",
"114 578 LINE",
"114 351 LINE"
);
},
{
closed = 1;
nodes = (
"152 549 LINE",
"177 549 LINE SMOOTH",
"208 549 OFFCURVE",
"225 544 OFFCURVE",
"225 517 CURVE SMOOTH",
"225 494 OFFCURVE",
"216 483 OFFCURVE",
"181 483 CURVE SMOOTH",
"152 483 LINE"
);
}
);
width = 600;
}
);
note = uni2408;
unicode = 2408;
},
{
glyphname = uni2409;
lastChange = "2016-08-19 02:48:46 +0000";
layers = (
{
layerId = "6E183CFB-E55F-4C96-8804-AC4D4AF4B24B";
paths = (
{
closed = 1;
nodes = (
"440 124 LINE",
"440 321 LINE",
"501 321 LINE",
"501 351 LINE",
"342 351 LINE",
"342 321 LINE",
"403 321 LINE",
"403 124 LINE"
);
},
{
closed = 1;
nodes = (
"151 351 LINE",
"151 454 LINE",
"232 454 LINE",
"232 351 LINE",
"269 351 LINE",
"269 578 LINE",
"232 578 LINE",
"232 484 LINE",
"151 484 LINE",
"151 578 LINE",
"114 578 LINE",
"114 351 LINE"
);
}
);
width = 600;
}
);
note = uni2409;
unicode = 2409;
},
{
glyphname = uni240A;
lastChange = "2016-08-19 02:48:46 +0000";
layers = (
{
layerId = "6E183CFB-E55F-4C96-8804-AC4D4AF4B24B";
paths = (
{
closed = 1;
nodes = (
"396 124 LINE",
"396 217 LINE",
"493 217 LINE",
"493 247 LINE",
"396 247 LINE",
"396 321 LINE",
"499 321 LINE",
"499 351 LINE",
"359 351 LINE",
"359 124 LINE"
);
},
{
closed = 1;
nodes = (
"277 351 LINE",
"277 381 LINE",
"180 381 LINE",
"180 578 LINE",
"143 578 LINE",
"143 351 LINE"
);
}
);
width = 600;
}
);
note = uni240A;
unicode = 240A;
},
{
glyphname = uni240B;
lastChange = "2016-08-19 02:48:46 +0000";
layers = (
{
layerId = "6E183CFB-E55F-4C96-8804-AC4D4AF4B24B";
paths = (
{
closed = 1;
nodes = (
"239 351 LINE",
"310 578 LINE",
"270 578 LINE",
"230 418 LINE",
"222 390 LINE",
"172 578 LINE",
"132 578 LINE",
"204 351 LINE"
);
},
{
closed = 1;
nodes = (
"440 124 LINE",
"440 321 LINE",
"501 321 LINE",
"501 351 LINE",
"342 351 LINE",
"342 321 LINE",
"403 321 LINE",
"403 124 LINE"
);
}
);
width = 600;
}
);
note = uni240B;
unicode = 240B;
},
{
glyphname = uni240C;
lastChange = "2016-08-19 02:48:46 +0000";
layers = (
{
layerId = "6E183CFB-E55F-4C96-8804-AC4D4AF4B24B";
paths = (
{
closed = 1;
nodes = (
"180 351 LINE",
"180 444 LINE",
"277 444 LINE",
"277 474 LINE",
"180 474 LINE",
"180 548 LINE",
"283 548 LINE",
"283 578 LINE",
"143 578 LINE",
"143 351 LINE"
);
},
{
closed = 1;
nodes = (
"396 124 LINE",
"396 217 LINE",
"493 217 LINE",
"493 247 LINE",
"396 247 LINE",
"396 321 LINE",
"499 321 LINE",
"499 351 LINE",
"359 351 LINE",
"359 124 LINE"
);
}
);
width = 600;
}
);
note = uni240C;
unicode = 240C;
},
{
glyphname = uni240D;
lastChange = "2016-08-19 02:48:46 +0000";
layers = (
{
layerId = "6E183CFB-E55F-4C96-8804-AC4D4AF4B24B";
paths = (
{
closed = 1;
nodes = (
"235 346 OFFCURVE",
"252 349 OFFCURVE",
"267 354 CURVE",
"267 386 LINE",
"252 379 OFFCURVE",
"235 376 OFFCURVE",
"218 376 CURVE SMOOTH",
"170 376 OFFCURVE",
"146 405 OFFCURVE",
"146 464 CURVE SMOOTH",
"146 509 OFFCURVE",
"167 552 OFFCURVE",
"215 552 CURVE SMOOTH",
"231 552 OFFCURVE",
"248 547 OFFCURVE",
"265 539 CURVE",
"277 568 LINE",
"258 577 OFFCURVE",
"238 582 OFFCURVE",
"217 582 CURVE SMOOTH",
"145 582 OFFCURVE",
"105 532 OFFCURVE",
"105 464 CURVE SMOOTH",
"105 392 OFFCURVE",
"141 346 OFFCURVE",
"218 346 CURVE SMOOTH"
);
},
{
closed = 1;
nodes = (
"383 124 LINE",
"383 217 LINE",
"422 217 LINE",
"477 124 LINE",
"519 124 LINE",
"455 226 LINE",
"487 234 OFFCURVE",
"503 254 OFFCURVE",
"503 285 CURVE SMOOTH",
"503 337 OFFCURVE",
"469 351 OFFCURVE",
"414 351 CURVE SMOOTH",
"347 351 LINE",
"347 124 LINE"
);
},
{
closed = 1;
nodes = (
"383 322 LINE",
"412 322 LINE SMOOTH",
"445 322 OFFCURVE",
"464 315 OFFCURVE",
"464 284 CURVE SMOOTH",
"464 259 OFFCURVE",
"447 246 OFFCURVE",
"414 246 CURVE SMOOTH",
"383 246 LINE"
);
}
);
width = 600;
}
);
note = uni240D;
unicode = 240D;
},
{
glyphname = uni240E;
lastChange = "2016-08-19 02:48:46 +0000";
layers = (
{
layerId = "6E183CFB-E55F-4C96-8804-AC4D4AF4B24B";
paths = (
{
closed = 1;
nodes = (
"468 119 OFFCURVE",
"495 168 OFFCURVE",
"495 239 CURVE SMOOTH",
"495 316 OFFCURVE",
"464 355 OFFCURVE",
"403 355 CURVE SMOOTH",
"342 355 OFFCURVE",
"311 316 OFFCURVE",
"311 239 CURVE SMOOTH",
"311 159 OFFCURVE",
"341 119 OFFCURVE",
"402 119 CURVE SMOOTH"
);
},
{
closed = 1;
nodes = (
"369 149 OFFCURVE",
"352 179 OFFCURVE",
"352 239 CURVE SMOOTH",
"352 296 OFFCURVE",
"369 325 OFFCURVE",
"403 325 CURVE SMOOTH",
"437 325 OFFCURVE",
"454 296 OFFCURVE",
"454 239 CURVE SMOOTH",
"454 179 OFFCURVE",
"437 149 OFFCURVE",
"402 149 CURVE SMOOTH"
);
},
{
closed = 1;
nodes = (
"236 345 OFFCURVE",
"271 366 OFFCURVE",
"271 411 CURVE SMOOTH",
"271 454 OFFCURVE",
"222 472 OFFCURVE",
"186 488 CURVE SMOOTH",
"167 496 OFFCURVE",
"158 507 OFFCURVE",
"158 522 CURVE SMOOTH",
"158 541 OFFCURVE",
"175 552 OFFCURVE",
"199 552 CURVE SMOOTH",
"217 552 OFFCURVE",
"235 547 OFFCURVE",
"254 539 CURVE",
"265 567 LINE",
"244 576 OFFCURVE",
"222 581 OFFCURVE",
"197 581 CURVE SMOOTH",
"156 581 OFFCURVE",
"120 563 OFFCURVE",
"120 522 CURVE SMOOTH",
"120 481 OFFCURVE",
"151 463 OFFCURVE",
"197 445 CURVE SMOOTH",
"220 436 OFFCURVE",
"232 424 OFFCURVE",
"232 408 CURVE SMOOTH",
"232 385 OFFCURVE",
"216 374 OFFCURVE",
"185 374 CURVE SMOOTH",
"163 374 OFFCURVE",
"140 380 OFFCURVE",
"116 391 CURVE",
"116 358 LINE",
"135 350 OFFCURVE",
"158 345 OFFCURVE",
"185 345 CURVE SMOOTH"
);
}
);
width = 600;
}
);
note = uni240E;
unicode = 240E;
},
{
glyphname = uni240F;
lastChange = "2016-08-19 02:48:46 +0000";
layers = (
{
layerId = "6E183CFB-E55F-4C96-8804-AC4D4AF4B24B";
paths = (
{
closed = 1;
nodes = (
"236 346 OFFCURVE",
"271 367 OFFCURVE",
"271 412 CURVE SMOOTH",
"271 455 OFFCURVE",
"222 473 OFFCURVE",
"186 489 CURVE SMOOTH",
"167 497 OFFCURVE",
"158 508 OFFCURVE",
"158 523 CURVE SMOOTH",
"158 542 OFFCURVE",
"175 553 OFFCURVE",
"199 553 CURVE SMOOTH",
"217 553 OFFCURVE",
"235 549 OFFCURVE",
"254 540 CURVE",
"265 568 LINE",
"244 577 OFFCURVE",
"222 582 OFFCURVE",
"197 582 CURVE SMOOTH",
"156 582 OFFCURVE",
"120 564 OFFCURVE",
"120 523 CURVE SMOOTH",
"120 482 OFFCURVE",
"151 464 OFFCURVE",
"197 446 CURVE SMOOTH",
"220 437 OFFCURVE",
"232 425 OFFCURVE",
"232 409 CURVE SMOOTH",
"232 386 OFFCURVE",
"216 375 OFFCURVE",
"185 375 CURVE SMOOTH",
"163 375 OFFCURVE",
"140 381 OFFCURVE",
"116 392 CURVE",
"116 359 LINE",
"135 351 OFFCURVE",
"158 346 OFFCURVE",
"185 346 CURVE SMOOTH"
);
},
{
closed = 1;
nodes = (
"477 124 LINE",
"477 144 LINE",
"436 154 LINE",
"436 321 LINE",
"477 331 LINE",
"477 351 LINE",
"358 351 LINE",
"358 331 LINE",
"399 321 LINE",
"399 154 LINE",
"358 144 LINE",
"358 124 LINE"
);
}
);
width = 596;
}
);
note = uni240F;
unicode = 240F;
},
{
glyphname = uni2410;
lastChange = "2016-08-19 02:48:46 +0000";
layers = (
{
layerId = "6E183CFB-E55F-4C96-8804-AC4D4AF4B24B";
paths = (
{
closed = 1;
nodes = (
"102 463 LINE SMOOTH",
"170 463 OFFCURVE",
"205 506 OFFCURVE",
"205 578 CURVE SMOOTH",
"205 653 OFFCURVE",
"171 690 OFFCURVE",
"102 690 CURVE SMOOTH",
"38 690 LINE",
"38 463 LINE"
);
},
{
closed = 1;
nodes = (
"569 0 LINE",
"569 30 LINE",
"466 30 LINE",
"466 103 LINE",
"563 103 LINE",
"563 133 LINE",
"466 133 LINE",
"466 197 LINE",
"569 197 LINE",
"569 227 LINE",
"429 227 LINE",
"429 0 LINE"
);
},
{
closed = 1;
nodes = (
"372 231 LINE",
"372 261 LINE",
"275 261 LINE",
"275 458 LINE",
"238 458 LINE",
"238 231 LINE"
);
},
{
closed = 1;
nodes = (
"75 660 LINE",
"92 660 LINE SMOOTH",
"146 660 OFFCURVE",
"164 633 OFFCURVE",
"164 577 CURVE SMOOTH",
"164 521 OFFCURVE",
"150 493 OFFCURVE",
"95 493 CURVE SMOOTH",
"75 493 LINE"
);
}
);
width = 600;
}
);
note = uni2410;
unicode = 2410;
},
{
glyphname = uni2411;
lastChange = "2016-08-19 02:48:46 +0000";
layers = (
{
layerId = "6E183CFB-E55F-4C96-8804-AC4D4AF4B24B";
paths = (
{
closed = 1;
nodes = (
"331 227 OFFCURVE",
"346 230 OFFCURVE",
"361 236 CURVE",
"361 266 LINE",
"348 260 OFFCURVE",
"333 257 OFFCURVE",
"316 257 CURVE SMOOTH",
"272 257 OFFCURVE",
"250 286 OFFCURVE",
"250 345 CURVE SMOOTH",
"250 390 OFFCURVE",
"269 433 OFFCURVE",
"314 433 CURVE SMOOTH",
"329 433 OFFCURVE",
"343 429 OFFCURVE",
"358 421 CURVE",
"370 448 LINE",
"356 458 OFFCURVE",
"337 463 OFFCURVE",
"314 463 CURVE SMOOTH",
"248 463 OFFCURVE",
"209 413 OFFCURVE",
"209 345 CURVE SMOOTH",
"209 273 OFFCURVE",
"243 227 OFFCURVE",
"315 227 CURVE SMOOTH"
);
},
{
closed = 1;
nodes = (
"517 0 LINE",
"517 228 LINE",
"478 228 LINE",
"409 180 LINE",
"427 154 LINE",
"456 174 LINE",
"481 195 LINE",
"479 148 LINE",
"479 0 LINE"
);
},
{
closed = 1;
nodes = (
"75 660 LINE",
"92 660 LINE SMOOTH",
"146 660 OFFCURVE",
"164 633 OFFCURVE",
"164 577 CURVE SMOOTH",
"164 521 OFFCURVE",
"150 493 OFFCURVE",
"95 493 CURVE SMOOTH",
"75 493 LINE"
);
},
{
closed = 1;
nodes = (
"102 463 LINE SMOOTH",
"170 463 OFFCURVE",
"205 506 OFFCURVE",
"205 578 CURVE SMOOTH",
"205 653 OFFCURVE",
"171 690 OFFCURVE",
"102 690 CURVE SMOOTH",
"38 690 LINE",
"38 463 LINE"
);
}
);
width = 600;
}
);
note = uni2411;
unicode = 2411;
},
{
glyphname = uni2412;
lastChange = "2016-08-19 02:48:46 +0000";
layers = (
{
layerId = "6E183CFB-E55F-4C96-8804-AC4D4AF4B24B";
paths = (
{
closed = 1;
nodes = (
"331 227 OFFCURVE",
"346 230 OFFCURVE",
"361 236 CURVE",
"361 266 LINE",
"348 260 OFFCURVE",
"333 257 OFFCURVE",
"316 257 CURVE SMOOTH",
"272 257 OFFCURVE",
"250 286 OFFCURVE",
"250 345 CURVE SMOOTH",
"250 390 OFFCURVE",
"269 433 OFFCURVE",
"314 433 CURVE SMOOTH",
"329 433 OFFCURVE",
"343 429 OFFCURVE",
"358 421 CURVE",
"370 448 LINE",
"356 458 OFFCURVE",
"337 463 OFFCURVE",
"314 463 CURVE SMOOTH",
"248 463 OFFCURVE",
"209 413 OFFCURVE",
"209 345 CURVE SMOOTH",
"209 273 OFFCURVE",
"243 227 OFFCURVE",
"315 227 CURVE SMOOTH"
);
},
{
closed = 1;
nodes = (
"555 0 LINE",
"555 31 LINE",
"450 31 LINE",
"501 80 OFFCURVE",
"533 111 OFFCURVE",
"543 124 CURVE SMOOTH",
"554 137 OFFCURVE",
"559 151 OFFCURVE",
"559 168 CURVE SMOOTH",
"559 207 OFFCURVE",
"528 231 OFFCURVE",
"483 231 CURVE SMOOTH",
"455 231 OFFCURVE",
"430 221 OFFCURVE",
"408 202 CURVE",
"426 178 LINE",
"443 193 OFFCURVE",
"461 201 OFFCURVE",
"480 201 CURVE SMOOTH",
"505 201 OFFCURVE",
"518 189 OFFCURVE",
"518 166 CURVE SMOOTH",
"518 141 OFFCURVE",
"501 120 OFFCURVE",
"466 88 CURVE",
"405 28 LINE",
"405 0 LINE"
);
},
{
closed = 1;
nodes = (
"75 660 LINE",
"92 660 LINE SMOOTH",
"146 660 OFFCURVE",
"164 633 OFFCURVE",
"164 577 CURVE SMOOTH",
"164 521 OFFCURVE",
"150 493 OFFCURVE",
"95 493 CURVE SMOOTH",
"75 493 LINE"
);
},
{
closed = 1;
nodes = (
"102 463 LINE SMOOTH",
"170 463 OFFCURVE",
"205 506 OFFCURVE",
"205 578 CURVE SMOOTH",
"205 653 OFFCURVE",
"171 690 OFFCURVE",
"102 690 CURVE SMOOTH",
"38 690 LINE",
"38 463 LINE"
);
}
);
width = 600;
}
);
note = uni2412;
unicode = 2412;
},
{
glyphname = uni2413;
lastChange = "2016-08-19 02:48:46 +0000";
layers = (
{
layerId = "6E183CFB-E55F-4C96-8804-AC4D4AF4B24B";
paths = (
{
closed = 1;
nodes = (
"525 -5 OFFCURVE",
"557 24 OFFCURVE",
"557 65 CURVE SMOOTH",
"557 93 OFFCURVE",
"540 115 OFFCURVE",
"505 119 CURVE",
"535 127 OFFCURVE",
"550 145 OFFCURVE",
"550 173 CURVE SMOOTH",
"550 208 OFFCURVE",
"522 231 OFFCURVE",
"472 231 CURVE SMOOTH",
"446 231 OFFCURVE",
"420 223 OFFCURVE",
"394 206 CURVE",
"411 180 LINE",
"433 194 OFFCURVE",
"453 201 OFFCURVE",
"472 201 CURVE SMOOTH",
"497 201 OFFCURVE",
"510 190 OFFCURVE",
"510 169 CURVE SMOOTH",
"510 144 OFFCURVE",
"493 132 OFFCURVE",
"458 132 CURVE SMOOTH",
"428 132 LINE",
"428 103 LINE",
"458 103 LINE SMOOTH",
"497 103 OFFCURVE",
"516 91 OFFCURVE",
"516 66 CURVE SMOOTH",
"516 39 OFFCURVE",
"499 25 OFFCURVE",
"463 25 CURVE SMOOTH",
"440 25 OFFCURVE",
"417 31 OFFCURVE",
"393 43 CURVE",
"393 9 LINE",
"414 0 OFFCURVE",
"437 -5 OFFCURVE",
"463 -5 CURVE SMOOTH"
);
},
{
closed = 1;
nodes = (
"331 227 OFFCURVE",
"346 230 OFFCURVE",
"361 236 CURVE",
"361 266 LINE",
"348 260 OFFCURVE",
"333 257 OFFCURVE",
"316 257 CURVE SMOOTH",
"272 257 OFFCURVE",
"250 286 OFFCURVE",
"250 345 CURVE SMOOTH",
"250 390 OFFCURVE",
"269 433 OFFCURVE",
"314 433 CURVE SMOOTH",
"329 433 OFFCURVE",
"343 429 OFFCURVE",
"358 421 CURVE",
"370 448 LINE",
"356 458 OFFCURVE",
"337 463 OFFCURVE",
"314 463 CURVE SMOOTH",
"248 463 OFFCURVE",
"209 413 OFFCURVE",
"209 345 CURVE SMOOTH",
"209 273 OFFCURVE",
"243 227 OFFCURVE",
"315 227 CURVE SMOOTH"
);
},
{
closed = 1;
nodes = (
"75 660 LINE",
"92 660 LINE SMOOTH",
"146 660 OFFCURVE",
"164 633 OFFCURVE",
"164 577 CURVE SMOOTH",
"164 521 OFFCURVE",
"150 493 OFFCURVE",
"95 493 CURVE SMOOTH",
"75 493 LINE"
);
},
{
closed = 1;
nodes = (
"102 463 LINE SMOOTH",
"170 463 OFFCURVE",
"205 506 OFFCURVE",
"205 578 CURVE SMOOTH",
"205 653 OFFCURVE",
"171 690 OFFCURVE",
"102 690 CURVE SMOOTH",
"38 690 LINE",
"38 463 LINE"
);
}
);
width = 600;
}
);
note = uni2413;
unicode = 2413;
},
{
glyphname = uni2414;
lastChange = "2016-08-19 02:48:46 +0000";
layers = (
{
layerId = "6E183CFB-E55F-4C96-8804-AC4D4AF4B24B";
paths = (
{
closed = 1;
nodes = (
"513 0 LINE",
"513 53 LINE",
"545 53 LINE",
"545 83 LINE",
"513 83 LINE",
"513 229 LINE",
"476 229 LINE",
"372 79 LINE",
"372 53 LINE",
"475 53 LINE",
"475 0 LINE"
);
},
{
closed = 1;
nodes = (
"450 143 OFFCURVE",
"473 178 OFFCURVE",
"478 189 CURVE",
"475 131 LINE",
"475 83 LINE",
"409 83 LINE"
);
},
{
closed = 1;
nodes = (
"331 227 OFFCURVE",
"346 230 OFFCURVE",
"361 236 CURVE",
"361 266 LINE",
"348 260 OFFCURVE",
"333 257 OFFCURVE",
"316 257 CURVE SMOOTH",
"272 257 OFFCURVE",
"250 286 OFFCURVE",
"250 345 CURVE SMOOTH",
"250 390 OFFCURVE",
"269 433 OFFCURVE",
"314 433 CURVE SMOOTH",
"329 433 OFFCURVE",
"343 429 OFFCURVE",
"358 421 CURVE",
"370 448 LINE",
"356 458 OFFCURVE",
"337 463 OFFCURVE",
"314 463 CURVE SMOOTH",
"248 463 OFFCURVE",
"209 413 OFFCURVE",
"209 345 CURVE SMOOTH",
"209 273 OFFCURVE",
"243 227 OFFCURVE",
"315 227 CURVE SMOOTH"
);
},
{
closed = 1;
nodes = (
"75 660 LINE",
"92 660 LINE SMOOTH",
"146 660 OFFCURVE",
"164 633 OFFCURVE",
"164 577 CURVE SMOOTH",
"164 521 OFFCURVE",
"150 493 OFFCURVE",
"95 493 CURVE SMOOTH",
"75 493 LINE"
);
},
{
closed = 1;
nodes = (
"102 463 LINE SMOOTH",
"170 463 OFFCURVE",
"205 506 OFFCURVE",
"205 578 CURVE SMOOTH",
"205 653 OFFCURVE",
"171 690 OFFCURVE",
"102 690 CURVE SMOOTH",
"38 690 LINE",
"38 463 LINE"
);
}
);
width = 600;
}
);
note = uni2414;
unicode = 2414;
},
{
glyphname = uni2415;
lastChange = "2016-08-19 02:48:46 +0000";
layers = (
{
layerId = "6E183CFB-E55F-4C96-8804-AC4D4AF4B24B";
paths = (
{
closed = 1;
nodes = (
"223 231 LINE",
"243 299 LINE",
"315 299 LINE",
"335 231 LINE",
"372 231 LINE",
"293 458 LINE",
"265 458 LINE",
"186 231 LINE"
);
},
{
closed = 1;
nodes = (
"453 0 LINE",
"453 94 LINE",
"462 103 LINE",
"539 0 LINE",
"583 0 LINE",
"487 127 LINE",
"580 227 LINE",
"536 227 LINE",
"453 134 LINE",
"453 227 LINE",
"415 227 LINE",
"415 0 LINE"
);
},
{
closed = 1;
nodes = (
"279 418 LINE",
"305 329 LINE",
"253 329 LINE"
);
},
{
closed = 1;
nodes = (
"70 463 LINE",
"70 590 LINE",
"68 636 LINE",
"148 463 LINE",
"188 463 LINE",
"188 690 LINE",
"153 690 LINE",
"153 540 LINE",
"154 518 LINE",
"75 690 LINE",
"35 690 LINE",
"35 463 LINE"
);
}
);
width = 600;
}
);
note = uni2415;
unicode = 2415;
},
{
glyphname = uni2416;
lastChange = "2016-08-19 02:48:46 +0000";
layers = (
{
layerId = "6E183CFB-E55F-4C96-8804-AC4D4AF4B24B";
paths = (
{
closed = 1;
nodes = (
"331 231 LINE",
"331 323 LINE",
"401 458 LINE",
"363 458 LINE",
"313 352 LINE",
"261 458 LINE",
"223 458 LINE",
"293 322 LINE",
"293 231 LINE"
);
},
{
closed = 1;
nodes = (
"447 0 LINE",
"447 127 LINE",
"445 173 LINE",
"525 0 LINE",
"565 0 LINE",
"565 227 LINE",
"530 227 LINE",
"530 77 LINE",
"531 55 LINE",
"452 227 LINE",
"412 227 LINE",
"412 0 LINE"
);
},
{
closed = 1;
nodes = (
"149 458 OFFCURVE",
"184 479 OFFCURVE",
"184 524 CURVE SMOOTH",
"184 567 OFFCURVE",
"134 584 OFFCURVE",
"98 601 CURVE SMOOTH",
"80 609 OFFCURVE",
"71 621 OFFCURVE",
"71 635 CURVE SMOOTH",
"71 654 OFFCURVE",
"88 665 OFFCURVE",
"112 665 CURVE SMOOTH",
"130 665 OFFCURVE",
"148 661 OFFCURVE",
"167 652 CURVE",
"178 680 LINE",
"157 689 OFFCURVE",
"135 694 OFFCURVE",
"110 694 CURVE SMOOTH",
"69 694 OFFCURVE",
"33 676 OFFCURVE",
"33 635 CURVE SMOOTH",
"33 593 OFFCURVE",
"67 575 OFFCURVE",
"112 558 CURVE SMOOTH",
"134 549 OFFCURVE",
"145 537 OFFCURVE",
"145 521 CURVE SMOOTH",
"145 498 OFFCURVE",
"129 487 OFFCURVE",
"98 487 CURVE SMOOTH",
"76 487 OFFCURVE",
"53 493 OFFCURVE",
"29 504 CURVE",
"29 471 LINE",
"48 462 OFFCURVE",
"71 458 OFFCURVE",
"98 458 CURVE SMOOTH"
);
}
);
width = 600;
}
);
note = uni2416;
unicode = 2416;
},
{
glyphname = uni2417;
lastChange = "2016-08-19 02:48:46 +0000";
layers = (
{
layerId = "6E183CFB-E55F-4C96-8804-AC4D4AF4B24B";
paths = (
{
closed = 1;
nodes = (
"491 0 LINE SMOOTH",
"538 0 OFFCURVE",
"575 18 OFFCURVE",
"575 65 CURVE SMOOTH",
"575 92 OFFCURVE",
"558 110 OFFCURVE",
"523 119 CURVE",
"547 125 OFFCURVE",
"567 144 OFFCURVE",
"567 168 CURVE SMOOTH",
"567 208 OFFCURVE",
"544 227 OFFCURVE",
"476 227 CURVE SMOOTH",
"415 227 LINE",
"415 0 LINE"
);
},
{
closed = 1;
nodes = (
"453 103 LINE",
"484 103 LINE SMOOTH",
"518 103 OFFCURVE",
"534 91 OFFCURVE",
"534 68 CURVE SMOOTH",
"534 42 OFFCURVE",
"518 29 OFFCURVE",
"486 29 CURVE SMOOTH",
"453 29 LINE"
);
},
{
closed = 1;
nodes = (
"453 198 LINE",
"478 198 LINE SMOOTH",
"509 198 OFFCURVE",
"526 193 OFFCURVE",
"526 166 CURVE SMOOTH",
"526 143 OFFCURVE",
"517 132 OFFCURVE",
"482 132 CURVE SMOOTH",
"453 132 LINE"
);
},
{
closed = 1;
nodes = (
"338 231 LINE",
"338 428 LINE",
"399 428 LINE",
"399 458 LINE",
"240 458 LINE",
"240 428 LINE",
"301 428 LINE",
"301 231 LINE"
);
},
{
closed = 1;
nodes = (
"181 463 LINE",
"181 493 LINE",
"78 493 LINE",
"78 566 LINE",
"175 566 LINE",
"175 596 LINE",
"78 596 LINE",
"78 660 LINE",
"181 660 LINE",
"181 690 LINE",
"41 690 LINE",
"41 463 LINE"
);
}
);
width = 600;
}
);
note = uni2417;
unicode = 2417;
},
{
glyphname = uni2418;
lastChange = "2016-08-19 02:48:46 +0000";
layers = (
{
layerId = "6E183CFB-E55F-4C96-8804-AC4D4AF4B24B";
paths = (
{
closed = 1;
nodes = (
"219 231 LINE",
"239 299 LINE",
"311 299 LINE",
"331 231 LINE",
"368 231 LINE",
"289 458 LINE",
"261 458 LINE",
"182 231 LINE"
);
},
{
closed = 1;
nodes = (
"447 0 LINE",
"447 127 LINE",
"445 173 LINE",
"525 0 LINE",
"565 0 LINE",
"565 227 LINE",
"530 227 LINE",
"530 77 LINE",
"531 55 LINE",
"452 227 LINE",
"412 227 LINE",
"412 0 LINE"
);
},
{
closed = 1;
nodes = (
"275 419 LINE",
"301 329 LINE",
"249 329 LINE"
);
},
{
closed = 1;
nodes = (
"151 458 OFFCURVE",
"167 461 OFFCURVE",
"181 467 CURVE",
"181 497 LINE",
"168 491 OFFCURVE",
"153 488 OFFCURVE",
"136 488 CURVE SMOOTH",
"92 488 OFFCURVE",
"70 517 OFFCURVE",
"70 576 CURVE SMOOTH",
"70 621 OFFCURVE",
"89 664 OFFCURVE",
"134 664 CURVE SMOOTH",
"148 664 OFFCURVE",
"163 660 OFFCURVE",
"178 652 CURVE",
"190 679 LINE",
"176 689 OFFCURVE",
"157 694 OFFCURVE",
"134 694 CURVE SMOOTH",
"67 694 OFFCURVE",
"29 644 OFFCURVE",
"29 576 CURVE SMOOTH",
"29 504 OFFCURVE",
"63 458 OFFCURVE",
"135 458 CURVE SMOOTH"
);
}
);
width = 600;
}
);
note = uni2418;
unicode = 2418;
},
{
glyphname = uni2419;
lastChange = "2016-08-19 02:48:46 +0000";
layers = (
{
layerId = "6E183CFB-E55F-4C96-8804-AC4D4AF4B24B";
paths = (
{
closed = 1;
nodes = (
"354 124 LINE",
"354 261 LINE",
"353 297 LINE",
"390 188 LINE",
"414 188 LINE",
"452 297 LINE",
"451 263 LINE",
"451 124 LINE",
"485 124 LINE",
"485 351 LINE",
"447 351 LINE",
"403 230 LINE",
"358 351 LINE",
"320 351 LINE",
"320 124 LINE"
);
},
{
closed = 1;
nodes = (
"254 351 LINE",
"254 381 LINE",
"151 381 LINE",
"151 454 LINE",
"248 454 LINE",
"248 484 LINE",
"151 484 LINE",
"151 548 LINE",
"254 548 LINE",
"254 578 LINE",
"114 578 LINE",
"114 351 LINE"
);
}
);
width = 600;
}
);
note = uni2419;
unicode = 2419;
},
{
glyphname = uni241A;
lastChange = "2016-08-19 02:48:46 +0000";
layers = (
{
layerId = "6E183CFB-E55F-4C96-8804-AC4D4AF4B24B";
paths = (
{
closed = 1;
nodes = (
"149 458 OFFCURVE",
"184 479 OFFCURVE",
"184 524 CURVE SMOOTH",
"184 567 OFFCURVE",
"134 584 OFFCURVE",
"98 601 CURVE SMOOTH",
"80 609 OFFCURVE",
"71 621 OFFCURVE",
"71 635 CURVE SMOOTH",
"71 654 OFFCURVE",
"88 665 OFFCURVE",
"112 665 CURVE SMOOTH",
"130 665 OFFCURVE",
"148 661 OFFCURVE",
"167 652 CURVE",
"178 680 LINE",
"157 689 OFFCURVE",
"135 694 OFFCURVE",
"110 694 CURVE SMOOTH",
"69 694 OFFCURVE",
"33 676 OFFCURVE",
"33 635 CURVE SMOOTH",
"33 593 OFFCURVE",
"67 575 OFFCURVE",
"112 558 CURVE SMOOTH",
"134 549 OFFCURVE",
"145 537 OFFCURVE",
"145 521 CURVE SMOOTH",
"145 498 OFFCURVE",
"129 487 OFFCURVE",
"98 487 CURVE SMOOTH",
"76 487 OFFCURVE",
"53 493 OFFCURVE",
"29 504 CURVE",
"29 471 LINE",
"48 462 OFFCURVE",
"71 458 OFFCURVE",
"98 458 CURVE SMOOTH"
);
},
{
closed = 1;
nodes = (
"453 103 LINE",
"484 103 LINE SMOOTH",
"518 103 OFFCURVE",
"534 91 OFFCURVE",
"534 68 CURVE SMOOTH",
"534 42 OFFCURVE",
"518 29 OFFCURVE",
"486 29 CURVE SMOOTH",
"453 29 LINE"
);
},
{
closed = 1;
nodes = (
"491 0 LINE SMOOTH",
"538 0 OFFCURVE",
"575 18 OFFCURVE",
"575 65 CURVE SMOOTH",
"575 92 OFFCURVE",
"558 110 OFFCURVE",
"523 119 CURVE",
"547 125 OFFCURVE",
"567 144 OFFCURVE",
"567 168 CURVE SMOOTH",
"567 208 OFFCURVE",
"544 227 OFFCURVE",
"476 227 CURVE SMOOTH",
"415 227 LINE",
"415 0 LINE"
);
},
{
closed = 1;
nodes = (
"358 228 OFFCURVE",
"385 261 OFFCURVE",
"385 309 CURVE SMOOTH",
"385 458 LINE",
"347 458 LINE",
"347 309 LINE SMOOTH",
"347 275 OFFCURVE",
"334 258 OFFCURVE",
"308 258 CURVE SMOOTH",
"281 258 OFFCURVE",
"267 275 OFFCURVE",
"267 309 CURVE SMOOTH",
"267 458 LINE",
"229 458 LINE",
"229 310 LINE SMOOTH",
"229 259 OFFCURVE",
"258 228 OFFCURVE",
"307 228 CURVE SMOOTH"
);
},
{
closed = 1;
nodes = (
"453 198 LINE",
"478 198 LINE SMOOTH",
"509 198 OFFCURVE",
"526 193 OFFCURVE",
"526 166 CURVE SMOOTH",
"526 143 OFFCURVE",
"517 132 OFFCURVE",
"482 132 CURVE SMOOTH",
"453 132 LINE"
);
}
);
width = 600;
}
);
note = uni241A;
unicode = 241A;
},
{
glyphname = uni241B;
lastChange = "2016-08-19 02:48:46 +0000";
layers = (
{
layerId = "6E183CFB-E55F-4C96-8804-AC4D4AF4B24B";
paths = (
{
closed = 1;
nodes = (
"533 -5 OFFCURVE",
"548 -2 OFFCURVE",
"563 4 CURVE",
"563 34 LINE",
"550 28 OFFCURVE",
"535 25 OFFCURVE",
"518 25 CURVE SMOOTH",
"474 25 OFFCURVE",
"452 54 OFFCURVE",
"452 113 CURVE SMOOTH",
"452 158 OFFCURVE",
"471 201 OFFCURVE",
"516 201 CURVE SMOOTH",
"531 201 OFFCURVE",
"545 197 OFFCURVE",
"560 189 CURVE",
"572 216 LINE",
"558 226 OFFCURVE",
"539 231 OFFCURVE",
"516 231 CURVE SMOOTH",
"449 231 OFFCURVE",
"411 181 OFFCURVE",
"411 113 CURVE SMOOTH",
"411 41 OFFCURVE",
"445 -5 OFFCURVE",
"517 -5 CURVE SMOOTH"
);
},
{
closed = 1;
nodes = (
"353 227 OFFCURVE",
"388 248 OFFCURVE",
"388 293 CURVE SMOOTH",
"388 336 OFFCURVE",
"339 354 OFFCURVE",
"302 370 CURVE SMOOTH",
"284 378 OFFCURVE",
"275 390 OFFCURVE",
"275 404 CURVE SMOOTH",
"275 423 OFFCURVE",
"292 434 OFFCURVE",
"316 434 CURVE SMOOTH",
"334 434 OFFCURVE",
"352 430 OFFCURVE",
"371 421 CURVE",
"382 449 LINE",
"361 458 OFFCURVE",
"339 463 OFFCURVE",
"314 463 CURVE SMOOTH",
"273 463 OFFCURVE",
"237 445 OFFCURVE",
"237 404 CURVE SMOOTH",
"237 362 OFFCURVE",
"272 344 OFFCURVE",
"316 327 CURVE SMOOTH",
"338 318 OFFCURVE",
"349 306 OFFCURVE",
"349 290 CURVE SMOOTH",
"349 267 OFFCURVE",
"333 256 OFFCURVE",
"302 256 CURVE SMOOTH",
"280 256 OFFCURVE",
"257 262 OFFCURVE",
"233 273 CURVE",
"233 240 LINE",
"252 231 OFFCURVE",
"275 227 OFFCURVE",
"302 227 CURVE SMOOTH"
);
},
{
closed = 1;
nodes = (
"181 463 LINE",
"181 493 LINE",
"78 493 LINE",
"78 566 LINE",
"175 566 LINE",
"175 596 LINE",
"78 596 LINE",
"78 660 LINE",
"181 660 LINE",
"181 690 LINE",
"41 690 LINE",
"41 463 LINE"
);
}
);
width = 600;
}
);
note = uni241B;
unicode = 241B;
},
{
glyphname = uni241C;
lastChange = "2016-08-19 02:48:46 +0000";
layers = (
{
layerId = "6E183CFB-E55F-4C96-8804-AC4D4AF4B24B";
paths = (
{
closed = 1;
nodes = (
"445 119 OFFCURVE",
"480 140 OFFCURVE",
"480 185 CURVE SMOOTH",
"480 228 OFFCURVE",
"428 247 OFFCURVE",
"393 263 CURVE SMOOTH",
"376 271 OFFCURVE",
"367 282 OFFCURVE",
"367 296 CURVE SMOOTH",
"367 315 OFFCURVE",
"384 326 OFFCURVE",
"408 326 CURVE SMOOTH",
"426 326 OFFCURVE",
"444 322 OFFCURVE",
"463 313 CURVE",
"474 341 LINE",
"453 350 OFFCURVE",
"431 355 OFFCURVE",
"406 355 CURVE SMOOTH",
"365 355 OFFCURVE",
"329 337 OFFCURVE",
"329 296 CURVE SMOOTH",
"329 253 OFFCURVE",
"364 236 OFFCURVE",
"408 219 CURVE SMOOTH",
"430 210 OFFCURVE",
"441 198 OFFCURVE",
"441 182 CURVE SMOOTH",
"441 159 OFFCURVE",
"425 148 OFFCURVE",
"394 148 CURVE SMOOTH",
"372 148 OFFCURVE",
"349 154 OFFCURVE",
"325 165 CURVE",
"325 132 LINE",
"344 124 OFFCURVE",
"367 119 OFFCURVE",
"394 119 CURVE SMOOTH"
);
},
{
closed = 1;
nodes = (
"180 351 LINE",
"180 444 LINE",
"277 444 LINE",
"277 474 LINE",
"180 474 LINE",
"180 548 LINE",
"283 548 LINE",
"283 578 LINE",
"143 578 LINE",
"143 351 LINE"
);
}
);
width = 600;
}
);
note = uni241C;
unicode = 241C;
},
{
glyphname = uni241D;
lastChange = "2016-08-19 02:48:46 +0000";
layers = (
{
layerId = "6E183CFB-E55F-4C96-8804-AC4D4AF4B24B";
paths = (
{
closed = 1;
nodes = (
"244 346 OFFCURVE",
"267 350 OFFCURVE",
"288 358 CURVE",
"288 474 LINE",
"207 474 LINE",
"207 444 LINE",
"254 444 LINE",
"254 381 LINE",
"241 377 OFFCURVE",
"229 376 OFFCURVE",
"220 376 CURVE SMOOTH",
"171 376 OFFCURVE",
"146 405 OFFCURVE",
"146 464 CURVE SMOOTH",
"146 519 OFFCURVE",
"173 552 OFFCURVE",
"221 552 CURVE SMOOTH",
"239 552 OFFCURVE",
"256 547 OFFCURVE",
"273 537 CURVE",
"285 568 LINE",
"265 577 OFFCURVE",
"244 582 OFFCURVE",
"223 582 CURVE SMOOTH",
"151 582 OFFCURVE",
"105 536 OFFCURVE",
"105 464 CURVE SMOOTH",
"105 391 OFFCURVE",
"146 346 OFFCURVE",
"219 346 CURVE SMOOTH"
);
},
{
closed = 1;
nodes = (
"445 119 OFFCURVE",
"480 140 OFFCURVE",
"480 185 CURVE SMOOTH",
"480 228 OFFCURVE",
"428 247 OFFCURVE",
"393 263 CURVE SMOOTH",
"376 271 OFFCURVE",
"367 282 OFFCURVE",
"367 296 CURVE SMOOTH",
"367 315 OFFCURVE",
"384 326 OFFCURVE",
"408 326 CURVE SMOOTH",
"426 326 OFFCURVE",
"444 322 OFFCURVE",
"463 313 CURVE",
"474 341 LINE",
"453 350 OFFCURVE",
"431 355 OFFCURVE",
"406 355 CURVE SMOOTH",
"365 355 OFFCURVE",
"329 337 OFFCURVE",
"329 296 CURVE SMOOTH",
"329 253 OFFCURVE",
"364 236 OFFCURVE",
"408 219 CURVE SMOOTH",
"430 210 OFFCURVE",
"441 198 OFFCURVE",
"441 182 CURVE SMOOTH",
"441 159 OFFCURVE",
"425 148 OFFCURVE",
"394 148 CURVE SMOOTH",
"372 148 OFFCURVE",
"349 154 OFFCURVE",
"325 165 CURVE",
"325 132 LINE",
"344 124 OFFCURVE",
"367 119 OFFCURVE",
"394 119 CURVE SMOOTH"
);
}
);
width = 600;
}
);
note = uni241D;
unicode = 241D;
},
{
glyphname = uni241E;
lastChange = "2016-08-19 02:48:46 +0000";
layers = (
{
layerId = "6E183CFB-E55F-4C96-8804-AC4D4AF4B24B";
paths = (
{
closed = 1;
nodes = (
"150 351 LINE",
"150 444 LINE",
"189 444 LINE",
"244 351 LINE",
"286 351 LINE",
"222 453 LINE",
"254 461 OFFCURVE",
"270 481 OFFCURVE",
"270 512 CURVE SMOOTH",
"270 563 OFFCURVE",
"236 578 OFFCURVE",
"181 578 CURVE SMOOTH",
"114 578 LINE",
"114 351 LINE"
);
},
{
closed = 1;
nodes = (
"443 119 OFFCURVE",
"478 140 OFFCURVE",
"478 185 CURVE SMOOTH",
"478 228 OFFCURVE",
"426 247 OFFCURVE",
"391 263 CURVE SMOOTH",
"374 271 OFFCURVE",
"365 282 OFFCURVE",
"365 296 CURVE SMOOTH",
"365 315 OFFCURVE",
"382 326 OFFCURVE",
"406 326 CURVE SMOOTH",
"424 326 OFFCURVE",
"442 322 OFFCURVE",
"461 313 CURVE",
"472 341 LINE",
"451 350 OFFCURVE",
"429 355 OFFCURVE",
"404 355 CURVE SMOOTH",
"363 355 OFFCURVE",
"327 337 OFFCURVE",
"327 296 CURVE SMOOTH",
"327 253 OFFCURVE",
"362 236 OFFCURVE",
"406 219 CURVE SMOOTH",
"428 210 OFFCURVE",
"439 198 OFFCURVE",
"439 182 CURVE SMOOTH",
"439 159 OFFCURVE",
"423 148 OFFCURVE",
"392 148 CURVE SMOOTH",
"370 148 OFFCURVE",
"347 154 OFFCURVE",
"323 165 CURVE",
"323 132 LINE",
"342 124 OFFCURVE",
"365 119 OFFCURVE",
"392 119 CURVE SMOOTH"
);
},
{
closed = 1;
nodes = (
"150 549 LINE",
"179 549 LINE SMOOTH",
"212 549 OFFCURVE",
"231 542 OFFCURVE",
"231 511 CURVE SMOOTH",
"231 486 OFFCURVE",
"214 473 OFFCURVE",
"181 473 CURVE SMOOTH",
"150 473 LINE"
);
}
);
width = 598;
}
);
note = uni241E;
unicode = 241E;
},
{
glyphname = uni241F;
lastChange = "2016-08-19 02:48:46 +0000";
layers = (
{
layerId = "6E183CFB-E55F-4C96-8804-AC4D4AF4B24B";
paths = (
{
closed = 1;
nodes = (
"445 119 OFFCURVE",
"480 140 OFFCURVE",
"480 185 CURVE SMOOTH",
"480 228 OFFCURVE",
"428 247 OFFCURVE",
"393 263 CURVE SMOOTH",
"376 271 OFFCURVE",
"367 282 OFFCURVE",
"367 296 CURVE SMOOTH",
"367 315 OFFCURVE",
"384 326 OFFCURVE",
"408 326 CURVE SMOOTH",
"426 326 OFFCURVE",
"444 322 OFFCURVE",
"463 313 CURVE",
"474 341 LINE",
"453 350 OFFCURVE",
"431 355 OFFCURVE",
"406 355 CURVE SMOOTH",
"365 355 OFFCURVE",
"329 337 OFFCURVE",
"329 296 CURVE SMOOTH",
"329 253 OFFCURVE",
"364 236 OFFCURVE",
"408 219 CURVE SMOOTH",
"430 210 OFFCURVE",
"441 198 OFFCURVE",
"441 182 CURVE SMOOTH",
"441 159 OFFCURVE",
"425 148 OFFCURVE",
"394 148 CURVE SMOOTH",
"372 148 OFFCURVE",
"349 154 OFFCURVE",
"325 165 CURVE",
"325 132 LINE",
"344 124 OFFCURVE",
"367 119 OFFCURVE",
"394 119 CURVE SMOOTH"
);
},
{
closed = 1;
nodes = (
"239 348 OFFCURVE",
"266 381 OFFCURVE",
"266 429 CURVE SMOOTH",
"266 578 LINE",
"228 578 LINE",
"228 429 LINE SMOOTH",
"228 395 OFFCURVE",
"215 378 OFFCURVE",
"189 378 CURVE SMOOTH",
"162 378 OFFCURVE",
"148 395 OFFCURVE",
"148 429 CURVE SMOOTH",
"148 578 LINE",
"110 578 LINE",
"110 430 LINE SMOOTH",
"110 379 OFFCURVE",
"139 348 OFFCURVE",
"188 348 CURVE SMOOTH"
);
}
);
width = 600;
}
);
note = uni241F;
unicode = 241F;
},
{
glyphname = uni2420;
lastChange = "2016-08-19 02:48:46 +0000";
layers = (
{
layerId = "6E183CFB-E55F-4C96-8804-AC4D4AF4B24B";
paths = (
{
closed = 1;
nodes = (
"236 346 OFFCURVE",
"271 367 OFFCURVE",
"271 412 CURVE SMOOTH",
"271 455 OFFCURVE",
"222 473 OFFCURVE",
"186 489 CURVE SMOOTH",
"167 497 OFFCURVE",
"158 508 OFFCURVE",
"158 523 CURVE SMOOTH",
"158 542 OFFCURVE",
"175 553 OFFCURVE",
"199 553 CURVE SMOOTH",
"217 553 OFFCURVE",
"235 549 OFFCURVE",
"254 540 CURVE",
"265 568 LINE",
"244 577 OFFCURVE",
"222 582 OFFCURVE",
"197 582 CURVE SMOOTH",
"156 582 OFFCURVE",
"120 564 OFFCURVE",
"120 523 CURVE SMOOTH",
"120 482 OFFCURVE",
"151 464 OFFCURVE",
"197 446 CURVE SMOOTH",
"220 437 OFFCURVE",
"232 425 OFFCURVE",
"232 409 CURVE SMOOTH",
"232 386 OFFCURVE",
"216 375 OFFCURVE",
"185 375 CURVE SMOOTH",
"163 375 OFFCURVE",
"140 381 OFFCURVE",
"116 392 CURVE",
"116 359 LINE",
"135 351 OFFCURVE",
"158 346 OFFCURVE",
"185 346 CURVE SMOOTH"
);
},
{
closed = 1;
nodes = (
"384 119 LINE",
"384 206 LINE",
"405 206 LINE SMOOTH",
"468 206 OFFCURVE",
"500 230 OFFCURVE",
"500 278 CURVE SMOOTH",
"500 323 OFFCURVE",
"470 346 OFFCURVE",
"411 346 CURVE SMOOTH",
"344 346 LINE",
"346 119 LINE"
);
},
{
closed = 1;
nodes = (
"384 316 LINE",
"408 316 LINE SMOOTH",
"443 316 OFFCURVE",
"461 303 OFFCURVE",
"461 277 CURVE SMOOTH",
"461 249 OFFCURVE",
"441 235 OFFCURVE",
"402 235 CURVE SMOOTH",
"384 235 LINE"
);
}
);
width = 600;
}
);
note = uni2420;
unicode = 2420;
},
{
glyphname = uni2421;
lastChange = "2016-08-19 02:48:46 +0000";
layers = (
{
layerId = "6E183CFB-E55F-4C96-8804-AC4D4AF4B24B";
paths = (
{
closed = 1;
nodes = (
"99 463 LINE SMOOTH",
"167 463 OFFCURVE",
"202 506 OFFCURVE",
"202 578 CURVE SMOOTH",
"202 653 OFFCURVE",
"168 690 OFFCURVE",
"99 690 CURVE SMOOTH",
"35 690 LINE",
"35 463 LINE"
);
},
{
closed = 1;
nodes = (
"570 0 LINE",
"570 30 LINE",
"473 30 LINE",
"473 227 LINE",
"436 227 LINE",
"436 0 LINE"
);
},
{
closed = 1;
nodes = (
"372 231 LINE",
"372 261 LINE",
"269 261 LINE",
"269 334 LINE",
"366 334 LINE",
"366 364 LINE",
"269 364 LINE",
"269 428 LINE",
"372 428 LINE",
"372 458 LINE",
"232 458 LINE",
"232 231 LINE"
);
},
{
closed = 1;
nodes = (
"72 660 LINE",
"89 660 LINE SMOOTH",
"144 660 OFFCURVE",
"161 633 OFFCURVE",
"161 577 CURVE SMOOTH",
"161 521 OFFCURVE",
"146 493 OFFCURVE",
"92 493 CURVE SMOOTH",
"72 493 LINE"
);
}
);
width = 600;
}
);
note = uni2421;
unicode = 2421;
},
{
glyphname = uni2422;
lastChange = "2016-08-19 02:48:46 +0000";
layers = (
{
layerId = "6E183CFB-E55F-4C96-8804-AC4D4AF4B24B";
paths = (
{
closed = 1;
nodes = (
"478 -10 OFFCURVE",
"560 94 OFFCURVE",
"560 268 CURVE SMOOTH",
"560 452 OFFCURVE",
"472 545 OFFCURVE",
"339 545 CURVE SMOOTH",
"264 545 OFFCURVE",
"209 518 OFFCURVE",
"173 465 CURVE",
"168 465 LINE",
"171 494 OFFCURVE",
"173 530 OFFCURVE",
"173 575 CURVE SMOOTH",
"173 588 LINE",
"346 656 LINE",
"322 714 LINE",
"173 656 LINE",
"173 760 LINE",
"85 760 LINE",
"85 622 LINE",
"0 590 LINE",
"24 531 LINE",
"85 554 LINE",
"85 0 LINE",
"148 0 LINE",
"166 68 LINE",
"173 68 LINE",
"210 16 OFFCURVE",
"266 -10 OFFCURVE",
"339 -10 CURVE SMOOTH"
);
},
{
closed = 1;
nodes = (
"219 63 OFFCURVE",
"173 120 OFFCURVE",
"173 269 CURVE SMOOTH",
"173 418 OFFCURVE",
"216 472 OFFCURVE",
"324 472 CURVE SMOOTH",
"421 472 OFFCURVE",
"469 404 OFFCURVE",
"469 269 CURVE SMOOTH",
"469 132 OFFCURVE",
"421 63 OFFCURVE",
"326 63 CURVE SMOOTH"
);
}
);
width = 615;
}
);
note = uni2422;
unicode = 2422;
},
{
glyphname = uni2423;
lastChange = "2016-08-19 02:48:46 +0000";
layers = (
{
layerId = "6E183CFB-E55F-4C96-8804-AC4D4AF4B24B";
paths = (
{
closed = 1;
nodes = (
"643 -210 LINE",
"643 -1 LINE",
"571 -1 LINE",
"571 -139 LINE",
"122 -139 LINE",
"122 -1 LINE",
"50 -1 LINE",
"50 -210 LINE"
);
}
);
width = 693;
}
);
note = uni2423;
unicode = 2423;
},
{
glyphname = uni2424;
lastChange = "2016-08-19 02:48:46 +0000";
layers = (
{
layerId = "6E183CFB-E55F-4C96-8804-AC4D4AF4B24B";
paths = (
{
closed = 1;
nodes = (
"149 351 LINE",
"149 478 LINE",
"147 524 LINE",
"227 351 LINE",
"267 351 LINE",
"267 578 LINE",
"232 578 LINE",
"232 428 LINE",
"233 406 LINE",
"154 578 LINE",
"114 578 LINE",
"114 351 LINE"
);
},
{
closed = 1;
nodes = (
"504 124 LINE",
"504 154 LINE",
"407 154 LINE",
"407 351 LINE",
"370 351 LINE",
"370 124 LINE"
);
}
);
width = 600;
}
);
note = uni2424;
unicode = 2424;
},
{
glyphname = uni2425;
lastChange = "2016-08-19 02:48:46 +0000";
layers = (
{
layerId = "6E183CFB-E55F-4C96-8804-AC4D4AF4B24B";
paths = (
{
closed = 1;
nodes = (
"99 0 LINE",
"765 665 LINE",
"765 714 LINE",
"716 714 LINE",
"50 49 LINE",
"50 0 LINE"
);
},
{
closed = 1;
nodes = (
"648 714 LINE",
"554 714 LINE",
"50 211 LINE",
"50 117 LINE"
);
},
{
closed = 1;
nodes = (
"264 0 LINE",
"765 501 LINE",
"765 594 LINE",
"171 0 LINE"
);
}
);
width = 815;
}
);
note = uni2425;
unicode = 2425;
},
{
glyphname = uni2426;
lastChange = "2016-08-19 02:48:46 +0000";
layers = (
{
layerId = "6E183CFB-E55F-4C96-8804-AC4D4AF4B24B";
paths = (
{
closed = 1;
nodes = (
"294 201 LINE",
"294 228 LINE SMOOTH",
"294 310 OFFCURVE",
"272 346 OFFCURVE",
"200 406 CURVE SMOOTH",
"128 467 OFFCURVE",
"110 496 OFFCURVE",
"110 547 CURVE SMOOTH",
"110 611 OFFCURVE",
"152 647 OFFCURVE",
"231 647 CURVE SMOOTH",
"280 647 OFFCURVE",
"334 633 OFFCURVE",
"391 605 CURVE",
"422 675 LINE",
"360 708 OFFCURVE",
"294 724 OFFCURVE",
"225 724 CURVE SMOOTH",
"97 724 OFFCURVE",
"26 657 OFFCURVE",
"26 549 CURVE SMOOTH",
"26 480 OFFCURVE",
"53 432 OFFCURVE",
"127 373 CURVE SMOOTH",
"201 313 OFFCURVE",
"224 285 OFFCURVE",
"224 218 CURVE SMOOTH",
"224 201 LINE"
);
},
{
closed = 1;
nodes = (
"296 -14 OFFCURVE",
"317 9 OFFCURVE",
"317 54 CURVE SMOOTH",
"317 99 OFFCURVE",
"296 121 OFFCURVE",
"255 121 CURVE SMOOTH",
"214 121 OFFCURVE",
"194 99 OFFCURVE",
"194 54 CURVE SMOOTH",
"194 6 OFFCURVE",
"222 -14 OFFCURVE",
"255 -14 CURVE SMOOTH"
);
}
);
width = 434;
}
);
note = uni2426;
unicode = 2426;
},
{
glyphname = uni2440;
lastChange = "2016-08-19 02:48:46 +0000";
layers = (
{
layerId = "6E183CFB-E55F-4C96-8804-AC4D4AF4B24B";
paths = (
{
closed = 1;
nodes = (
"279 4 LINE",
"279 456 LINE",
"389 456 LINE",
"389 345 LINE SMOOTH",
"389 322 OFFCURVE",
"395 316 OFFCURVE",
"418 316 CURVE SMOOTH",
"441 316 OFFCURVE",
"447 322 OFFCURVE",
"447 345 CURVE SMOOTH",
"447 514 LINE",
"221 514 LINE",
"221 63 LINE",
"111 63 LINE",
"111 175 LINE SMOOTH",
"111 198 OFFCURVE",
"105 204 OFFCURVE",
"82 204 CURVE SMOOTH",
"59 204 OFFCURVE",
"53 198 OFFCURVE",
"53 175 CURVE SMOOTH",
"53 4 LINE"
);
}
);
width = 500;
}
);
note = uni2440;
unicode = 2440;
},
{
glyphname = uni2441;
lastChange = "2016-08-19 02:48:46 +0000";
layers = (
{
layerId = "6E183CFB-E55F-4C96-8804-AC4D4AF4B24B";
paths = (
{
closed = 1;
nodes = (
"112 0 OFFCURVE",
"118 7 OFFCURVE",
"118 29 CURVE SMOOTH",
"118 234 LINE",
"382 234 LINE",
"382 29 LINE SMOOTH",
"382 7 OFFCURVE",
"388 0 OFFCURVE",
"411 0 CURVE SMOOTH",
"434 0 OFFCURVE",
"440 6 OFFCURVE",
"440 29 CURVE SMOOTH",
"440 494 LINE SMOOTH",
"440 517 OFFCURVE",
"434 522 OFFCURVE",
"411 522 CURVE SMOOTH",
"388 522 OFFCURVE",
"382 516 OFFCURVE",
"382 494 CURVE SMOOTH",
"382 292 LINE",
"60 292 LINE",
"60 29 LINE SMOOTH",
"60 6 OFFCURVE",
"66 0 OFFCURVE",
"89 0 CURVE SMOOTH"
);
}
);
width = 500;
}
);
note = uni2441;
unicode = 2441;
},
{
glyphname = uni2442;
lastChange = "2016-08-19 02:48:46 +0000";
layers = (
{
layerId = "6E183CFB-E55F-4C96-8804-AC4D4AF4B24B";
paths = (
{
closed = 1;
nodes = (
"273 0 OFFCURVE",
"279 6 OFFCURVE",
"279 29 CURVE SMOOTH",
"279 235 LINE",
"419 235 LINE SMOOTH",
"440 235 OFFCURVE",
"443 239 OFFCURVE",
"443 263 CURVE SMOOTH",
"443 494 LINE SMOOTH",
"443 517 OFFCURVE",
"437 522 OFFCURVE",
"414 522 CURVE SMOOTH",
"391 522 OFFCURVE",
"385 516 OFFCURVE",
"385 494 CURVE SMOOTH",
"385 293 LINE",
"115 293 LINE",
"115 494 LINE SMOOTH",
"115 516 OFFCURVE",
"109 522 OFFCURVE",
"86 522 CURVE SMOOTH",
"63 522 OFFCURVE",
"57 517 OFFCURVE",
"57 494 CURVE SMOOTH",
"57 264 LINE SMOOTH",
"57 243 OFFCURVE",
"62 235 OFFCURVE",
"85 235 CURVE SMOOTH",
"221 235 LINE",
"221 29 LINE SMOOTH",
"221 6 OFFCURVE",
"227 0 OFFCURVE",
"250 0 CURVE SMOOTH"
);
}
);
width = 500;
}
);
note = uni2442;
unicode = 2442;
},
{
glyphname = uni2443;
lastChange = "2016-08-19 02:48:46 +0000";
layers = (
{
layerId = "6E183CFB-E55F-4C96-8804-AC4D4AF4B24B";
paths = (
{
closed = 1;
nodes = (
"109 0 OFFCURVE",
"115 6 OFFCURVE",
"115 28 CURVE SMOOTH",
"115 229 LINE",
"385 229 LINE",
"385 28 LINE SMOOTH",
"385 6 OFFCURVE",
"391 0 OFFCURVE",
"414 0 CURVE SMOOTH",
"437 0 OFFCURVE",
"443 6 OFFCURVE",
"443 28 CURVE SMOOTH",
"443 259 LINE SMOOTH",
"443 283 OFFCURVE",
"440 287 OFFCURVE",
"419 287 CURVE SMOOTH",
"279 287 LINE",
"279 493 LINE SMOOTH",
"279 516 OFFCURVE",
"273 522 OFFCURVE",
"250 522 CURVE SMOOTH",
"227 522 OFFCURVE",
"221 516 OFFCURVE",
"221 493 CURVE SMOOTH",
"221 287 LINE",
"85 287 LINE SMOOTH",
"62 287 OFFCURVE",
"57 279 OFFCURVE",
"57 258 CURVE SMOOTH",
"57 28 LINE SMOOTH",
"57 6 OFFCURVE",
"63 0 OFFCURVE",
"86 0 CURVE SMOOTH"
);
}
);
width = 500;
}
);
note = uni2443;
unicode = 2443;
},
{
glyphname = uni2444;
lastChange = "2016-08-19 02:48:46 +0000";
layers = (
{
layerId = "6E183CFB-E55F-4C96-8804-AC4D4AF4B24B";
paths = (
{
closed = 1;
nodes = (
"414 4 LINE SMOOTH",
"437 4 OFFCURVE",
"442 9 OFFCURVE",
"442 32 CURVE SMOOTH",
"442 185 LINE SMOOTH",
"442 207 OFFCURVE",
"435 213 OFFCURVE",
"413 213 CURVE SMOOTH",
"390 213 OFFCURVE",
"384 207 OFFCURVE",
"384 184 CURVE SMOOTH",
"384 62 LINE",
"280 62 LINE",
"280 460 LINE",
"384 460 LINE",
"384 338 LINE SMOOTH",
"384 315 OFFCURVE",
"390 309 OFFCURVE",
"413 309 CURVE SMOOTH",
"435 309 OFFCURVE",
"442 315 OFFCURVE",
"442 337 CURVE SMOOTH",
"442 490 LINE SMOOTH",
"442 509 OFFCURVE",
"436 518 OFFCURVE",
"414 518 CURVE SMOOTH",
"87 518 LINE SMOOTH",
"64 518 OFFCURVE",
"58 512 OFFCURVE",
"58 489 CURVE SMOOTH",
"58 337 LINE SMOOTH",
"58 315 OFFCURVE",
"65 309 OFFCURVE",
"87 309 CURVE SMOOTH",
"109 309 OFFCURVE",
"116 316 OFFCURVE",
"116 337 CURVE SMOOTH",
"116 460 LINE",
"222 460 LINE",
"222 62 LINE",
"116 62 LINE",
"116 185 LINE SMOOTH",
"116 206 OFFCURVE",
"109 213 OFFCURVE",
"87 213 CURVE SMOOTH",
"64 213 OFFCURVE",
"58 207 OFFCURVE",
"58 184 CURVE SMOOTH",
"58 32 LINE SMOOTH",
"58 9 OFFCURVE",
"64 4 OFFCURVE",
"87 4 CURVE SMOOTH"
);
}
);
width = 500;
}
);
note = uni2444;
unicode = 2444;
},
{
glyphname = uni2445;
lastChange = "2016-08-19 02:48:46 +0000";
layers = (
{
layerId = "6E183CFB-E55F-4C96-8804-AC4D4AF4B24B";
paths = (
{
closed = 1;
nodes = (
"258 297 LINE",
"464 189 LINE",
"464 459 LINE",
"258 350 LINE",
"51 459 LINE",
"51 189 LINE"
);
},
{
closed = 1;
nodes = (
"98 382 LINE",
"207 324 LINE",
"98 266 LINE"
);
},
{
closed = 1;
nodes = (
"308 324 LINE",
"417 382 LINE",
"417 266 LINE"
);
}
);
width = 500;
}
);
note = uni2445;
unicode = 2445;
},
{
glyphname = uni2446;
lastChange = "2016-08-19 02:48:46 +0000";
layers = (
{
layerId = "6E183CFB-E55F-4C96-8804-AC4D4AF4B24B";
paths = (
{
closed = 1;
nodes = (
"164 83 OFFCURVE",
"183 93 OFFCURVE",
"183 130 CURVE SMOOTH",
"183 376 LINE SMOOTH",
"183 411 OFFCURVE",
"165 421 OFFCURVE",
"117 421 CURVE SMOOTH",
"76 421 OFFCURVE",
"52 412 OFFCURVE",
"52 376 CURVE SMOOTH",
"52 130 LINE SMOOTH",
"52 93 OFFCURVE",
"76 83 OFFCURVE",
"117 83 CURVE SMOOTH"
);
},
{
closed = 1;
nodes = (
"379 5 LINE SMOOTH",
"426 5 OFFCURVE",
"438 14 OFFCURVE",
"438 49 CURVE SMOOTH",
"438 136 LINE SMOOTH",
"438 172 OFFCURVE",
"426 182 OFFCURVE",
"379 182 CURVE SMOOTH",
"325 182 LINE SMOOTH",
"282 182 OFFCURVE",
"268 174 OFFCURVE",
"268 136 CURVE SMOOTH",
"268 49 LINE SMOOTH",
"268 13 OFFCURVE",
"282 5 OFFCURVE",
"325 5 CURVE SMOOTH"
);
},
{
closed = 1;
nodes = (
"379 320 LINE SMOOTH",
"426 320 OFFCURVE",
"438 329 OFFCURVE",
"438 364 CURVE SMOOTH",
"438 453 LINE SMOOTH",
"438 488 OFFCURVE",
"426 497 OFFCURVE",
"379 497 CURVE SMOOTH",
"325 497 LINE SMOOTH",
"282 497 OFFCURVE",
"268 489 OFFCURVE",
"268 453 CURVE SMOOTH",
"268 364 LINE SMOOTH",
"268 328 OFFCURVE",
"282 320 OFFCURVE",
"325 320 CURVE SMOOTH"
);
}
);
width = 500;
}
);
note = uni2446;
unicode = 2446;
},
{
glyphname = uni2447;
lastChange = "2016-08-19 02:48:46 +0000";
layers = (
{
layerId = "6E183CFB-E55F-4C96-8804-AC4D4AF4B24B";
paths = (
{
closed = 1;
nodes = (
"446 396 OFFCURVE",
"468 405 OFFCURVE",
"468 442 CURVE SMOOTH",
"468 601 LINE SMOOTH",
"468 636 OFFCURVE",
"446 645 OFFCURVE",
"401 645 CURVE SMOOTH",
"361 645 OFFCURVE",
"337 636 OFFCURVE",
"337 601 CURVE SMOOTH",
"337 442 LINE SMOOTH",
"337 405 OFFCURVE",
"361 396 OFFCURVE",
"401 396 CURVE SMOOTH"
);
},
{
closed = 1;
nodes = (
"141 125 OFFCURVE",
"163 134 OFFCURVE",
"163 169 CURVE SMOOTH",
"163 328 LINE SMOOTH",
"163 365 OFFCURVE",
"141 373 OFFCURVE",
"97 373 CURVE SMOOTH",
"55 373 OFFCURVE",
"32 365 OFFCURVE",
"32 328 CURVE SMOOTH",
"32 169 LINE SMOOTH",
"32 134 OFFCURVE",
"56 125 OFFCURVE",
"97 125 CURVE SMOOTH"
);
},
{
closed = 1;
nodes = (
"280 285 OFFCURVE",
"290 292 OFFCURVE",
"290 329 CURVE SMOOTH",
"290 488 LINE SMOOTH",
"290 521 OFFCURVE",
"283 529 OFFCURVE",
"250 529 CURVE SMOOTH",
"223 529 OFFCURVE",
"210 521 OFFCURVE",
"210 488 CURVE SMOOTH",
"210 329 LINE SMOOTH",
"210 292 OFFCURVE",
"223 285 OFFCURVE",
"250 285 CURVE SMOOTH"
);
}
);
width = 500;
}
);
note = uni2447;
unicode = 2447;
},
{
glyphname = uni2448;
lastChange = "2016-08-19 02:48:46 +0000";
layers = (
{
layerId = "6E183CFB-E55F-4C96-8804-AC4D4AF4B24B";
paths = (
{
closed = 1;
nodes = (
"403 352 LINE SMOOTH",
"450 352 OFFCURVE",
"462 362 OFFCURVE",
"462 398 CURVE SMOOTH",
"462 560 LINE SMOOTH",
"462 595 OFFCURVE",
"450 604 OFFCURVE",
"403 604 CURVE SMOOTH",
"349 604 LINE SMOOTH",
"306 604 OFFCURVE",
"292 596 OFFCURVE",
"292 560 CURVE SMOOTH",
"292 398 LINE SMOOTH",
"292 361 OFFCURVE",
"306 352 OFFCURVE",
"349 352 CURVE SMOOTH"
);
},
{
closed = 1;
nodes = (
"109 182 OFFCURVE",
"119 188 OFFCURVE",
"119 224 CURVE SMOOTH",
"119 501 LINE SMOOTH",
"119 535 OFFCURVE",
"109 543 OFFCURVE",
"78 543 CURVE SMOOTH",
"51 543 OFFCURVE",
"38 535 OFFCURVE",
"38 501 CURVE SMOOTH",
"38 224 LINE SMOOTH",
"38 189 OFFCURVE",
"50 182 OFFCURVE",
"78 182 CURVE SMOOTH"
);
},
{
closed = 1;
nodes = (
"237 180 OFFCURVE",
"246 188 OFFCURVE",
"246 223 CURVE SMOOTH",
"246 499 LINE SMOOTH",
"246 534 OFFCURVE",
"237 542 OFFCURVE",
"206 542 CURVE SMOOTH",
"179 542 OFFCURVE",
"165 533 OFFCURVE",
"165 499 CURVE SMOOTH",
"165 223 LINE SMOOTH",
"165 188 OFFCURVE",
"179 180 OFFCURVE",
"206 180 CURVE SMOOTH"
);
}
);
width = 500;
}
);
note = uni2448;
unicode = 2448;
},
{
glyphname = uni2449;
lastChange = "2016-08-19 02:48:46 +0000";
layers = (
{
layerId = "6E183CFB-E55F-4C96-8804-AC4D4AF4B24B";
paths = (
{
closed = 1;
nodes = (
"319 137 OFFCURVE",
"341 146 OFFCURVE",
"341 183 CURVE SMOOTH",
"341 343 LINE SMOOTH",
"341 378 OFFCURVE",
"319 387 OFFCURVE",
"274 387 CURVE SMOOTH",
"233 387 OFFCURVE",
"210 378 OFFCURVE",
"210 343 CURVE SMOOTH",
"210 183 LINE SMOOTH",
"210 146 OFFCURVE",
"232 137 OFFCURVE",
"274 137 CURVE SMOOTH"
);
},
{
closed = 1;
nodes = (
"151 137 OFFCURVE",
"173 146 OFFCURVE",
"173 183 CURVE SMOOTH",
"173 343 LINE SMOOTH",
"173 378 OFFCURVE",
"151 387 OFFCURVE",
"107 387 CURVE SMOOTH",
"66 387 OFFCURVE",
"42 378 OFFCURVE",
"42 343 CURVE SMOOTH",
"42 183 LINE SMOOTH",
"42 146 OFFCURVE",
"66 137 OFFCURVE",
"107 137 CURVE SMOOTH"
);
},
{
closed = 1;
nodes = (
"448 141 OFFCURVE",
"458 150 OFFCURVE",
"458 185 CURVE SMOOTH",
"458 345 LINE SMOOTH",
"458 380 OFFCURVE",
"449 387 OFFCURVE",
"418 387 CURVE SMOOTH",
"391 387 OFFCURVE",
"378 379 OFFCURVE",
"378 345 CURVE SMOOTH",
"378 185 LINE SMOOTH",
"378 150 OFFCURVE",
"391 141 OFFCURVE",
"418 141 CURVE SMOOTH"
);
}
);
width = 500;
}
);
note = uni2449;
unicode = 2449;
},
{
glyphname = uni244A;
lastChange = "2016-08-19 02:48:46 +0000";
layers = (
{
layerId = "6E183CFB-E55F-4C96-8804-AC4D4AF4B24B";
paths = (
{
closed = 1;
nodes = (
"471 -66 OFFCURVE",
"482 -50 OFFCURVE",
"482 -38 CURVE",
"476 -15 LINE",
"231 536 LINE SMOOTH",
"223 553 OFFCURVE",
"213 562 OFFCURVE",
"202 562 CURVE SMOOTH",
"182 562 OFFCURVE",
"172 545 OFFCURVE",
"172 535 CURVE SMOOTH",
"172 528 OFFCURVE",
"174 520 OFFCURVE",
"178 512 CURVE",
"423 -39 LINE SMOOTH",
"430 -57 OFFCURVE",
"440 -66 OFFCURVE",
"453 -66 CURVE SMOOTH"
);
},
{
closed = 1;
nodes = (
"318 -66 OFFCURVE",
"328 -50 OFFCURVE",
"328 -38 CURVE",
"322 -15 LINE",
"77 536 LINE SMOOTH",
"69 553 OFFCURVE",
"59 562 OFFCURVE",
"48 562 CURVE SMOOTH",
"28 562 OFFCURVE",
"18 545 OFFCURVE",
"18 535 CURVE SMOOTH",
"18 528 OFFCURVE",
"20 520 OFFCURVE",
"24 512 CURVE",
"269 -39 LINE SMOOTH",
"276 -57 OFFCURVE",
"286 -66 OFFCURVE",
"299 -66 CURVE SMOOTH"
);
}
);
width = 500;
}
);
note = uni244A;
unicode = 244A;
},
{
glyphname = uni2701;
lastChange = "2016-08-19 02:48:46 +0000";
layers = (
{
layerId = "6E183CFB-E55F-4C96-8804-AC4D4AF4B24B";
paths = (
{
closed = 1;
nodes = (
"280 -44 OFFCURVE",
"341 -6 OFFCURVE",
"341 52 CURVE SMOOTH",
"341 74 OFFCURVE",
"329 100 OFFCURVE",
"319 108 CURVE",
"334 108 LINE SMOOTH",
"400 108 OFFCURVE",
"447 113 OFFCURVE",
"475 122 CURVE",
"581 -6 LINE",
"713 -6 LINE",
"599 132 LINE",
"1025 182 LINE",
"964 233 OFFCURVE",
"904 250 OFFCURVE",
"787 250 CURVE SMOOTH",
"722 250 OFFCURVE",
"597 245 OFFCURVE",
"511 236 CURVE",
"474 273 OFFCURVE",
"338 340 OFFCURVE",
"285 358 CURVE",
"283 374 LINE",
"292 379 OFFCURVE",
"307 410 OFFCURVE",
"307 432 CURVE SMOOTH",
"307 501 OFFCURVE",
"251 554 OFFCURVE",
"187 554 CURVE SMOOTH",
"132 554 OFFCURVE",
"89 517 OFFCURVE",
"89 464 CURVE SMOOTH",
"89 437 OFFCURVE",
"98 414 OFFCURVE",
"115 395 CURVE SMOOTH",
"132 375 OFFCURVE",
"176 355 OFFCURVE",
"248 336 CURVE SMOOTH",
"319 316 OFFCURVE",
"380 270 OFFCURVE",
"431 196 CURVE",
"404 172 OFFCURVE",
"335 148 OFFCURVE",
"295 148 CURVE SMOOTH",
"284 148 OFFCURVE",
"267 150 OFFCURVE",
"245 155 CURVE SMOOTH",
"223 160 OFFCURVE",
"200 162 OFFCURVE",
"177 162 CURVE SMOOTH",
"100 162 OFFCURVE",
"51 126 OFFCURVE",
"51 68 CURVE SMOOTH",
"51 1 OFFCURVE",
"108 -44 OFFCURVE",
"194 -44 CURVE SMOOTH"
);
},
{
closed = 1;
nodes = (
"134 -9 OFFCURVE",
"88 21 OFFCURVE",
"88 66 CURVE SMOOTH",
"88 106 OFFCURVE",
"126 128 OFFCURVE",
"189 128 CURVE SMOOTH",
"264 128 OFFCURVE",
"311 100 OFFCURVE",
"311 56 CURVE SMOOTH",
"311 13 OFFCURVE",
"272 -9 OFFCURVE",
"195 -9 CURVE SMOOTH"
);
},
{
closed = 1;
nodes = (
"162 378 OFFCURVE",
"125 416 OFFCURVE",
"125 464 CURVE SMOOTH",
"125 499 OFFCURVE",
"145 520 OFFCURVE",
"185 520 CURVE SMOOTH",
"227 520 OFFCURVE",
"273 481 OFFCURVE",
"273 430 CURVE SMOOTH",
"273 401 OFFCURVE",
"248 378 OFFCURVE",
"213 378 CURVE SMOOTH"
);
}
);
width = 1076;
}
);
note = uni2701;
unicode = 2701;
},
{
glyphname = uni2702;
lastChange = "2016-08-19 02:48:46 +0000";
layers = (
{
layerId = "6E183CFB-E55F-4C96-8804-AC4D4AF4B24B";
paths = (
{
closed = 1;
nodes = (
"273 -20 OFFCURVE",
"343 33 OFFCURVE",
"343 108 CURVE SMOOTH",
"343 122 OFFCURVE",
"339 136 OFFCURVE",
"331 150 CURVE",
"333 154 LINE",
"382 156 OFFCURVE",
"463 195 OFFCURVE",
"473 204 CURVE",
"781 84 LINE SMOOTH",
"826 66 OFFCURVE",
"868 57 OFFCURVE",
"907 57 CURVE SMOOTH",
"960 57 OFFCURVE",
"994 81 OFFCURVE",
"1011 108 CURVE",
"603 264 LINE",
"1011 414 LINE",
"994 438 OFFCURVE",
"940 463 OFFCURVE",
"903 463 CURVE SMOOTH",
"871 463 OFFCURVE",
"830 454 OFFCURVE",
"779 436 CURVE SMOOTH",
"473 322 LINE",
"422 349 OFFCURVE",
"343 374 OFFCURVE",
"277 380 CURVE",
"288 391 OFFCURVE",
"295 416 OFFCURVE",
"295 446 CURVE SMOOTH",
"295 508 OFFCURVE",
"241 560 OFFCURVE",
"167 560 CURVE SMOOTH",
"101 560 OFFCURVE",
"51 515 OFFCURVE",
"51 450 CURVE SMOOTH",
"51 384 OFFCURVE",
"118 342 OFFCURVE",
"197 338 CURVE SMOOTH",
"275 333 OFFCURVE",
"368 303 OFFCURVE",
"405 264 CURVE",
"376 238 OFFCURVE",
"318 204 OFFCURVE",
"291 204 CURVE SMOOTH",
"279 204 OFFCURVE",
"266 205 OFFCURVE",
"253 207 CURVE SMOOTH",
"240 208 OFFCURVE",
"224 209 OFFCURVE",
"207 209 CURVE SMOOTH",
"106 209 OFFCURVE",
"51 165 OFFCURVE",
"51 84 CURVE SMOOTH",
"51 23 OFFCURVE",
"111 -20 OFFCURVE",
"189 -20 CURVE SMOOTH"
);
},
{
closed = 1;
nodes = (
"128 18 OFFCURVE",
"95 43 OFFCURVE",
"95 88 CURVE SMOOTH",
"95 132 OFFCURVE",
"131 158 OFFCURVE",
"197 158 CURVE SMOOTH",
"237 158 OFFCURVE",
"265 154 OFFCURVE",
"281 147 CURVE SMOOTH",
"297 140 OFFCURVE",
"305 126 OFFCURVE",
"305 108 CURVE SMOOTH",
"305 62 OFFCURVE",
"256 18 OFFCURVE",
"191 18 CURVE SMOOTH"
);
},
{
closed = 1;
nodes = (
"137 385 OFFCURVE",
"95 414 OFFCURVE",
"95 460 CURVE SMOOTH",
"95 501 OFFCURVE",
"122 528 OFFCURVE",
"163 528 CURVE SMOOTH",
"216 528 OFFCURVE",
"255 487 OFFCURVE",
"255 442 CURVE SMOOTH",
"255 399 OFFCURVE",
"238 385 OFFCURVE",
"205 385 CURVE SMOOTH"
);
}
);
width = 1062;
}
);
note = uni2702;
unicode = 2702;
},
{
glyphname = uni2703;
lastChange = "2016-08-19 02:48:46 +0000";
layers = (
{
layerId = "6E183CFB-E55F-4C96-8804-AC4D4AF4B24B";
paths = (
{
closed = 1;
nodes = (
"253 -44 OFFCURVE",
"307 10 OFFCURVE",
"307 78 CURVE SMOOTH",
"307 98 OFFCURVE",
"293 126 OFFCURVE",
"283 134 CURVE",
"285 152 LINE",
"344 173 OFFCURVE",
"471 235 OFFCURVE",
"511 274 CURVE",
"599 266 OFFCURVE",
"724 258 OFFCURVE",
"787 258 CURVE SMOOTH",
"906 258 OFFCURVE",
"962 275 OFFCURVE",
"1025 328 CURVE",
"599 378 LINE",
"713 516 LINE",
"581 516 LINE",
"475 388 LINE",
"444 397 OFFCURVE",
"395 402 OFFCURVE",
"327 402 CURVE SMOOTH",
"319 402 LINE",
"330 410 OFFCURVE",
"341 433 OFFCURVE",
"341 456 CURVE SMOOTH",
"341 513 OFFCURVE",
"273 554 OFFCURVE",
"188 554 CURVE SMOOTH",
"110 554 OFFCURVE",
"51 507 OFFCURVE",
"51 440 CURVE SMOOTH",
"51 383 OFFCURVE",
"99 348 OFFCURVE",
"177 348 CURVE SMOOTH",
"198 348 OFFCURVE",
"220 351 OFFCURVE",
"244 355 CURVE SMOOTH",
"267 359 OFFCURVE",
"284 362 OFFCURVE",
"295 362 CURVE SMOOTH",
"335 362 OFFCURVE",
"402 337 OFFCURVE",
"431 312 CURVE",
"390 250 OFFCURVE",
"297 179 OFFCURVE",
"217 164 CURVE SMOOTH",
"136 148 OFFCURVE",
"89 115 OFFCURVE",
"89 46 CURVE SMOOTH",
"89 -8 OFFCURVE",
"129 -44 OFFCURVE",
"187 -44 CURVE SMOOTH"
);
},
{
closed = 1;
nodes = (
"145 -10 OFFCURVE",
"125 12 OFFCURVE",
"125 46 CURVE SMOOTH",
"125 94 OFFCURVE",
"162 132 OFFCURVE",
"213 132 CURVE SMOOTH",
"245 132 OFFCURVE",
"273 110 OFFCURVE",
"273 80 CURVE SMOOTH",
"273 29 OFFCURVE",
"227 -10 OFFCURVE",
"185 -10 CURVE SMOOTH"
);
},
{
closed = 1;
nodes = (
"126 382 OFFCURVE",
"89 403 OFFCURVE",
"89 444 CURVE SMOOTH",
"89 490 OFFCURVE",
"132 519 OFFCURVE",
"193 519 CURVE SMOOTH",
"265 519 OFFCURVE",
"311 497 OFFCURVE",
"311 454 CURVE SMOOTH",
"311 411 OFFCURVE",
"264 382 OFFCURVE",
"189 382 CURVE SMOOTH"
);
}
);
width = 1076;
}
);
note = uni2703;
unicode = 2703;
},
{
glyphname = uni2704;
lastChange = "2016-08-19 02:48:46 +0000";
layers = (
{
layerId = "6E183CFB-E55F-4C96-8804-AC4D4AF4B24B";
paths = (
{
closed = 1;
nodes = (
"260 -72 OFFCURVE",
"297 -57 OFFCURVE",
"325 -27 CURVE SMOOTH",
"352 2 OFFCURVE",
"370 43 OFFCURVE",
"375 108 CURVE SMOOTH",
"377 141 OFFCURVE",
"381 161 OFFCURVE",
"385 168 CURVE",
"461 164 LINE",
"519 196 LINE",
"735 58 LINE SMOOTH",
"774 33 OFFCURVE",
"815 20 OFFCURVE",
"857 20 CURVE SMOOTH",
"919 20 OFFCURVE",
"978 51 OFFCURVE",
"1001 92 CURVE",
"689 294 LINE",
"1005 484 LINE",
"964 537 OFFCURVE",
"915 564 OFFCURVE",
"857 564 CURVE SMOOTH",
"817 564 OFFCURVE",
"772 550 OFFCURVE",
"723 522 CURVE SMOOTH",
"519 406 LINE",
"471 438 LINE",
"391 438 LINE",
"388 453 OFFCURVE",
"385 484 OFFCURVE",
"382 534 CURVE SMOOTH",
"376 632 OFFCURVE",
"305 684 OFFCURVE",
"223 684 CURVE SMOOTH",
"141 684 OFFCURVE",
"65 616 OFFCURVE",
"65 526 CURVE SMOOTH",
"65 495 OFFCURVE",
"72 469 OFFCURVE",
"86 447 CURVE SMOOTH",
"114 402 OFFCURVE",
"169 375 OFFCURVE",
"220 366 CURVE SMOOTH",
"271 355 OFFCURVE",
"328 331 OFFCURVE",
"351 306 CURVE",
"320 278 OFFCURVE",
"274 259 OFFCURVE",
"213 248 CURVE SMOOTH",
"159 236 LINE SMOOTH",
"98 221 OFFCURVE",
"51 158 OFFCURVE",
"51 84 CURVE SMOOTH",
"51 2 OFFCURVE",
"120 -72 OFFCURVE",
"211 -72 CURVE SMOOTH"
);
},
{
closed = 1;
nodes = (
"271 -4 OFFCURVE",
"314 35 OFFCURVE",
"317 90 CURVE",
"317 147 OFFCURVE",
"274 190 OFFCURVE",
"219 190 CURVE SMOOTH",
"168 190 OFFCURVE",
"123 150 OFFCURVE",
"123 96 CURVE SMOOTH",
"123 41 OFFCURVE",
"164 -4 OFFCURVE",
"217 -4 CURVE SMOOTH"
);
},
{
closed = 1;
nodes = (
"182 27 OFFCURVE",
"153 57 OFFCURVE",
"153 94 CURVE SMOOTH",
"153 96 LINE",
"154 131 OFFCURVE",
"184 160 OFFCURVE",
"221 160 CURVE SMOOTH",
"223 160 LINE",
"258 159 OFFCURVE",
"287 129 OFFCURVE",
"287 92 CURVE",
"286 54 OFFCURVE",
"255 26 OFFCURVE",
"219 26 CURVE SMOOTH",
"217 26 LINE"
);
},
{
closed = 1;
nodes = (
"287 426 OFFCURVE",
"329 470 OFFCURVE",
"329 524 CURVE SMOOTH",
"329 579 OFFCURVE",
"288 620 OFFCURVE",
"233 620 CURVE SMOOTH",
"178 620 OFFCURVE",
"135 577 OFFCURVE",
"135 524 CURVE SMOOTH",
"135 471 OFFCURVE",
"180 426 OFFCURVE",
"233 426 CURVE SMOOTH"
);
},
{
closed = 1;
nodes = (
"193 456 OFFCURVE",
"165 487 OFFCURVE",
"165 524 CURVE SMOOTH",
"165 561 OFFCURVE",
"194 590 OFFCURVE",
"231 590 CURVE SMOOTH",
"268 590 OFFCURVE",
"299 561 OFFCURVE",
"299 524 CURVE SMOOTH",
"299 487 OFFCURVE",
"268 456 OFFCURVE",
"231 456 CURVE SMOOTH"
);
},
{
closed = 1;
nodes = (
"134 -36 OFFCURVE",
"85 27 OFFCURVE",
"85 95 CURVE SMOOTH",
"85 164 OFFCURVE",
"134 207 OFFCURVE",
"210 218 CURVE SMOOTH",
"227 220 LINE SMOOTH",
"270 226 OFFCURVE",
"305 238 OFFCURVE",
"333 256 CURVE SMOOTH",
"360 274 OFFCURVE",
"377 285 OFFCURVE",
"383 288 CURVE SMOOTH",
"715 476 LINE SMOOTH",
"776 511 OFFCURVE",
"826 529 OFFCURVE",
"865 529 CURVE SMOOTH",
"899 529 OFFCURVE",
"929 515 OFFCURVE",
"955 488 CURVE",
"467 200 LINE",
"363 208 LINE",
"350 184 OFFCURVE",
"343 150 OFFCURVE",
"342 106 CURVE SMOOTH",
"340 20 OFFCURVE",
"291 -36 OFFCURVE",
"211 -36 CURVE SMOOTH"
);
},
{
closed = 1;
nodes = (
"350 357 OFFCURVE",
"296 382 OFFCURVE",
"216 400 CURVE SMOOTH",
"137 418 OFFCURVE",
"97 459 OFFCURVE",
"97 524 CURVE SMOOTH",
"97 592 OFFCURVE",
"147 654 OFFCURVE",
"225 654 CURVE SMOOTH",
"305 654 OFFCURVE",
"354 589 OFFCURVE",
"354 501 CURVE SMOOTH",
"354 458 OFFCURVE",
"359 426 OFFCURVE",
"371 406 CURVE",
"467 406 LINE",
"493 390 LINE",
"379 326 LINE"
);
},
{
closed = 1;
nodes = (
"556 254 OFFCURVE",
"575 276 OFFCURVE",
"575 302 CURVE SMOOTH",
"575 329 OFFCURVE",
"556 348 OFFCURVE",
"529 348 CURVE SMOOTH",
"503 348 OFFCURVE",
"481 329 OFFCURVE",
"481 302 CURVE SMOOTH",
"481 276 OFFCURVE",
"503 254 OFFCURVE",
"529 254 CURVE SMOOTH"
);
},
{
closed = 1;
nodes = (
"515 278 OFFCURVE",
"503 288 OFFCURVE",
"503 302 CURVE SMOOTH",
"503 316 OFFCURVE",
"515 328 OFFCURVE",
"529 328 CURVE SMOOTH",
"543 328 OFFCURVE",
"553 316 OFFCURVE",
"553 302 CURVE SMOOTH",
"553 288 OFFCURVE",
"543 278 OFFCURVE",
"529 278 CURVE SMOOTH"
);
},
{
closed = 1;
nodes = (
"823 57 OFFCURVE",
"785 69 OFFCURVE",
"747 92 CURVE SMOOTH",
"553 214 LINE",
"663 278 LINE",
"949 90 LINE",
"931 69 OFFCURVE",
"899 57 OFFCURVE",
"862 57 CURVE SMOOTH"
);
}
);
width = 1056;
}
);
note = uni2704;
unicode = 2704;
},
{
glyphname = uni2706;
lastChange = "2016-08-19 02:48:46 +0000";
layers = (
{
layerId = "6E183CFB-E55F-4C96-8804-AC4D4AF4B24B";
paths = (
{
closed = 1;
nodes = (
"513 -106 OFFCURVE",
"578 -88 OFFCURVE",
"638 -53 CURVE SMOOTH",
"759 18 OFFCURVE",
"837 149 OFFCURVE",
"837 288 CURVE SMOOTH",
"837 357 OFFCURVE",
"819 422 OFFCURVE",
"784 483 CURVE SMOOTH",
"713 604 OFFCURVE",
"583 680 OFFCURVE",
"445 680 CURVE SMOOTH",
"375 680 OFFCURVE",
"310 662 OFFCURVE",
"249 626 CURVE SMOOTH",
"127 555 OFFCURVE",
"51 427 OFFCURVE",
"51 288 CURVE SMOOTH",
"51 176 OFFCURVE",
"117 38 OFFCURVE",
"164 38 CURVE SMOOTH",
"172 38 OFFCURVE",
"179 40 OFFCURVE",
"183 42 CURVE",
"115 124 OFFCURVE",
"85 196 OFFCURVE",
"85 288 CURVE SMOOTH",
"85 350 OFFCURVE",
"101 408 OFFCURVE",
"132 463 CURVE SMOOTH",
"195 573 OFFCURVE",
"315 646 OFFCURVE",
"445 646 CURVE SMOOTH",
"509 646 OFFCURVE",
"568 630 OFFCURVE",
"623 598 CURVE SMOOTH",
"733 533 OFFCURVE",
"803 415 OFFCURVE",
"803 288 CURVE SMOOTH",
"803 224 OFFCURVE",
"787 164 OFFCURVE",
"753 108 CURVE SMOOTH",
"687 -3 OFFCURVE",
"570 -70 OFFCURVE",
"445 -70 CURVE SMOOTH",
"328 -70 OFFCURVE",
"255 -30 OFFCURVE",
"255 30 CURVE SMOOTH",
"255 44 OFFCURVE",
"260 57 OFFCURVE",
"271 70 CURVE",
"293 52 LINE",
"344 86 OFFCURVE",
"373 127 OFFCURVE",
"381 174 CURVE",
"366 188 OFFCURVE",
"359 204 OFFCURVE",
"359 220 CURVE SMOOTH",
"359 244 OFFCURVE",
"418 379 OFFCURVE",
"444 407 CURVE SMOOTH",
"457 421 OFFCURVE",
"475 428 OFFCURVE",
"499 428 CURVE SMOOTH",
"505 428 LINE",
"533 460 OFFCURVE",
"547 503 OFFCURVE",
"547 557 CURVE SMOOTH",
"547 574 LINE",
"537 577 OFFCURVE",
"521 578 OFFCURVE",
"499 578 CURVE SMOOTH",
"442 578 OFFCURVE",
"423 563 OFFCURVE",
"361 472 CURVE SMOOTH",
"299 381 OFFCURVE",
"233 205 OFFCURVE",
"233 148 CURVE SMOOTH",
"233 129 OFFCURVE",
"240 117 OFFCURVE",
"253 96 CURVE",
"232 72 OFFCURVE",
"221 48 OFFCURVE",
"221 24 CURVE SMOOTH",
"221 -56 OFFCURVE",
"321 -106 OFFCURVE",
"445 -106 CURVE SMOOTH"
);
},
{
closed = 1;
nodes = (
"385 18 OFFCURVE",
"442 97 OFFCURVE",
"442 122 CURVE SMOOTH",
"442 130 OFFCURVE",
"437 139 OFFCURVE",
"427 146 CURVE SMOOTH",
"397 168 LINE",
"391 122 OFFCURVE",
"359 76 OFFCURVE",
"307 42 CURVE",
"340 27 OFFCURVE",
"356 19 OFFCURVE",
"358 19 CURVE SMOOTH",
"359 18 OFFCURVE",
"360 18 OFFCURVE",
"362 18 CURVE SMOOTH"
);
},
{
closed = 1;
nodes = (
"580 406 OFFCURVE",
"592 417 OFFCURVE",
"603 438 CURVE SMOOTH",
"614 460 OFFCURVE",
"619 488 OFFCURVE",
"619 522 CURVE SMOOTH",
"619 540 OFFCURVE",
"613 542 OFFCURVE",
"599 550 CURVE SMOOTH",
"563 568 LINE",
"563 552 LINE SMOOTH",
"563 498 OFFCURVE",
"554 463 OFFCURVE",
"519 420 CURVE",
"548 411 OFFCURVE",
"564 406 OFFCURVE",
"568 406 CURVE SMOOTH"
);
}
);
width = 888;
}
);
note = uni2706;
unicode = 2706;
},
{
glyphname = uni2707;
lastChange = "2016-08-19 02:48:46 +0000";
layers = (
{
layerId = "6E183CFB-E55F-4C96-8804-AC4D4AF4B24B";
paths = (
{
closed = 1;
nodes = (
"499 -66 OFFCURVE",
"563 -49 OFFCURVE",
"622 -15 CURVE SMOOTH",
"739 53 OFFCURVE",
"811 179 OFFCURVE",
"811 314 CURVE SMOOTH",
"811 382 OFFCURVE",
"794 445 OFFCURVE",
"760 504 CURVE SMOOTH",
"692 622 OFFCURVE",
"566 694 OFFCURVE",
"431 694 CURVE SMOOTH",
"363 694 OFFCURVE",
"299 677 OFFCURVE",
"241 643 CURVE SMOOTH",
"123 575 OFFCURVE",
"51 449 OFFCURVE",
"51 314 CURVE SMOOTH",
"51 246 OFFCURVE",
"68 183 OFFCURVE",
"102 124 CURVE SMOOTH",
"170 6 OFFCURVE",
"296 -66 OFFCURVE",
"431 -66 CURVE SMOOTH"
);
},
{
closed = 1;
nodes = (
"369 188 LINE",
"319 219 OFFCURVE",
"296 251 OFFCURVE",
"291 324 CURVE",
"133 204 LINE",
"140 176 OFFCURVE",
"171 123 OFFCURVE",
"187 110 CURVE"
);
},
{
closed = 1;
nodes = (
"369 -36 OFFCURVE",
"311 -21 OFFCURVE",
"257 10 CURVE SMOOTH",
"150 72 OFFCURVE",
"81 187 OFFCURVE",
"81 314 CURVE SMOOTH",
"81 377 OFFCURVE",
"97 437 OFFCURVE",
"129 491 CURVE SMOOTH",
"193 599 OFFCURVE",
"309 662 OFFCURVE",
"431 662 CURVE SMOOTH",
"494 662 OFFCURVE",
"552 646 OFFCURVE",
"606 616 CURVE SMOOTH",
"713 553 OFFCURVE",
"779 438 OFFCURVE",
"779 314 CURVE SMOOTH",
"779 252 OFFCURVE",
"764 194 OFFCURVE",
"733 141 CURVE SMOOTH",
"672 33 OFFCURVE",
"558 -36 OFFCURVE",
"431 -36 CURVE SMOOTH"
);
},
{
closed = 1;
nodes = (
"491 208 OFFCURVE",
"537 255 OFFCURVE",
"537 314 CURVE SMOOTH",
"537 374 OFFCURVE",
"490 420 OFFCURVE",
"431 420 CURVE SMOOTH",
"371 420 OFFCURVE",
"325 373 OFFCURVE",
"325 314 CURVE SMOOTH",
"325 254 OFFCURVE",
"372 208 OFFCURVE",
"431 208 CURVE SMOOTH"
);
},
{
closed = 1;
nodes = (
"691 123 OFFCURVE",
"719 173 OFFCURVE",
"727 204 CURVE",
"569 324 LINE",
"563 253 OFFCURVE",
"542 221 OFFCURVE",
"491 188 CURVE",
"673 110 LINE"
);
},
{
closed = 1;
nodes = (
"382 443 OFFCURVE",
"408 450 OFFCURVE",
"431 450 CURVE SMOOTH",
"454 450 OFFCURVE",
"479 443 OFFCURVE",
"509 428 CURVE",
"485 624 LINE",
"482 625 OFFCURVE",
"479 625 OFFCURVE",
"475 626 CURVE",
"471 626 OFFCURVE",
"467 627 OFFCURVE",
"462 628 CURVE SMOOTH",
"447 629 LINE SMOOTH",
"441 630 OFFCURVE",
"436 630 OFFCURVE",
"431 630 CURVE SMOOTH",
"418 630 OFFCURVE",
"400 628 OFFCURVE",
"377 624 CURVE",
"351 428 LINE"
);
}
);
width = 862;
}
);
note = uni2707;
unicode = 2707;
},
{
glyphname = uni2708;
lastChange = "2016-08-19 02:48:46 +0000";
layers = (
{
layerId = "6E183CFB-E55F-4C96-8804-AC4D4AF4B24B";
paths = (
{
closed = 1;
nodes = (
"341 -58 LINE",
"351 -55 OFFCURVE",
"358 -50 OFFCURVE",
"362 -43 CURVE SMOOTH",
"417 32 LINE",
"467 36 LINE SMOOTH",
"476 37 OFFCURVE",
"484 38 OFFCURVE",
"490 39 CURVE",
"496 40 OFFCURVE",
"499 43 OFFCURVE",
"499 48 CURVE SMOOTH",
"499 56 LINE SMOOTH",
"499 60 OFFCURVE",
"498 63 OFFCURVE",
"495 64 CURVE",
"492 65 OFFCURVE",
"485 66 OFFCURVE",
"475 68 CURVE SMOOTH",
"447 72 LINE",
"493 134 LINE",
"543 138 LINE",
"552 139 OFFCURVE",
"560 140 OFFCURVE",
"565 141 CURVE",
"571 142 OFFCURVE",
"573 145 OFFCURVE",
"573 150 CURVE SMOOTH",
"573 158 LINE SMOOTH",
"573 162 OFFCURVE",
"572 165 OFFCURVE",
"568 166 CURVE",
"565 167 OFFCURVE",
"559 168 OFFCURVE",
"549 170 CURVE SMOOTH",
"521 174 LINE",
"581 256 LINE",
"659 256 OFFCURVE",
"801 277 OFFCURVE",
"801 304 CURVE SMOOTH",
"801 330 OFFCURVE",
"663 352 OFFCURVE",
"581 352 CURVE",
"521 434 LINE",
"543 438 OFFCURVE",
"557 441 OFFCURVE",
"560 443 CURVE SMOOTH",
"563 444 OFFCURVE",
"565 447 OFFCURVE",
"565 452 CURVE SMOOTH",
"565 460 LINE SMOOTH",
"565 465 OFFCURVE",
"562 468 OFFCURVE",
"556 470 CURVE",
"550 471 OFFCURVE",
"542 472 OFFCURVE",
"533 472 CURVE SMOOTH",
"493 474 LINE",
"447 536 LINE",
"471 542 OFFCURVE",
"484 545 OFFCURVE",
"486 546 CURVE",
"488 548 OFFCURVE",
"489 551 OFFCURVE",
"489 554 CURVE SMOOTH",
"489 562 LINE SMOOTH",
"489 567 OFFCURVE",
"486 570 OFFCURVE",
"481 571 CURVE SMOOTH",
"476 573 OFFCURVE",
"469 574 OFFCURVE",
"459 574 CURVE SMOOTH",
"419 576 LINE",
"378 630 OFFCURVE",
"357 658 OFFCURVE",
"355 660 CURVE",
"353 661 OFFCURVE",
"348 664 OFFCURVE",
"341 666 CURVE SMOOTH",
"281 684 LINE",
"297 664 LINE",
"397 406 LINE",
"403 354 LINE",
"377 354 OFFCURVE",
"216 335 OFFCURVE",
"171 328 CURVE",
"101 430 LINE",
"51 438 LINE",
"91 318 LINE",
"66 314 OFFCURVE",
"53 310 OFFCURVE",
"53 304 CURVE SMOOTH",
"53 298 OFFCURVE",
"66 293 OFFCURVE",
"91 290 CURVE",
"51 170 LINE",
"101 178 LINE",
"171 280 LINE",
"208 274 OFFCURVE",
"375 254 OFFCURVE",
"403 254 CURVE",
"397 202 LINE",
"297 -56 LINE",
"281 -76 LINE"
);
}
);
width = 852;
}
);
note = uni2708;
unicode = 2708;
},
{
glyphname = uni2709;
lastChange = "2016-08-19 02:48:46 +0000";
layers = (
{
layerId = "6E183CFB-E55F-4C96-8804-AC4D4AF4B24B";
paths = (
{
closed = 1;
nodes = (
"670 0 LINE",
"670 434 LINE",
"22 434 LINE",
"22 0 LINE"
);
},
{
closed = 1;
nodes = (
"40 392 LINE",
"257 230 LINE",
"256 222 LINE",
"256 210 LINE",
"257 204 LINE",
"40 42 LINE"
);
},
{
closed = 1;
nodes = (
"263 184 LINE",
"278 149 OFFCURVE",
"309 128 OFFCURVE",
"346 128 CURVE SMOOTH",
"383 128 OFFCURVE",
"412 149 OFFCURVE",
"425 184 CURVE",
"652 20 LINE",
"40 20 LINE"
);
},
{
closed = 1;
nodes = (
"40 416 LINE",
"652 416 LINE",
"425 248 LINE",
"412 281 OFFCURVE",
"383 304 OFFCURVE",
"346 304 CURVE SMOOTH",
"309 304 OFFCURVE",
"277 281 OFFCURVE",
"263 248 CURVE"
);
},
{
closed = 1;
nodes = (
"431 204 LINE",
"432 210 LINE",
"432 216 LINE",
"432 226 LINE",
"431 230 LINE",
"652 392 LINE",
"652 42 LINE"
);
}
);
width = 690;
}
);
note = uni2709;
unicode = 2709;
},
{
glyphname = uni270C;
lastChange = "2016-08-19 02:48:46 +0000";
layers = (
{
layerId = "6E183CFB-E55F-4C96-8804-AC4D4AF4B24B";
paths = (
{
closed = 1;
nodes = (
"315 -30 OFFCURVE",
"339 -25 OFFCURVE",
"377 -17 CURVE SMOOTH",
"453 1 OFFCURVE",
"437 -3 OFFCURVE",
"464 30 CURVE SMOOTH",
"482 51 LINE",
"521 92 LINE SMOOTH",
"547 120 OFFCURVE",
"561 144 OFFCURVE",
"561 166 CURVE",
"566 208 LINE SMOOTH",
"569 234 OFFCURVE",
"571 257 OFFCURVE",
"571 278 CURVE SMOOTH",
"571 364 OFFCURVE",
"543 410 OFFCURVE",
"495 410 CURVE",
"500 418 OFFCURVE",
"505 437 OFFCURVE",
"509 464 CURVE SMOOTH",
"514 492 OFFCURVE",
"519 511 OFFCURVE",
"525 521 CURVE SMOOTH",
"538 542 OFFCURVE",
"563 626 OFFCURVE",
"563 654 CURVE SMOOTH",
"563 679 OFFCURVE",
"540 710 OFFCURVE",
"505 710 CURVE SMOOTH",
"490 710 OFFCURVE",
"476 704 OFFCURVE",
"461 690 CURVE SMOOTH",
"432 664 OFFCURVE",
"424 645 OFFCURVE",
"416 592 CURVE",
"413 578 LINE",
"409 568 LINE",
"396 547 OFFCURVE",
"389 533 OFFCURVE",
"387 526 CURVE",
"379 503 LINE SMOOTH",
"369 476 OFFCURVE",
"360 450 OFFCURVE",
"355 424 CURVE",
"351 424 LINE",
"332 470 OFFCURVE",
"322 504 OFFCURVE",
"320 526 CURVE SMOOTH",
"319 548 OFFCURVE",
"311 574 OFFCURVE",
"295 604 CURVE SMOOTH",
"280 632 OFFCURVE",
"269 659 OFFCURVE",
"261 683 CURVE SMOOTH",
"253 706 OFFCURVE",
"234 718 OFFCURVE",
"205 718 CURVE SMOOTH",
"167 718 OFFCURVE",
"145 691 OFFCURVE",
"145 650 CURVE SMOOTH",
"145 634 OFFCURVE",
"152 606 OFFCURVE",
"165 567 CURVE",
"169 552 LINE",
"174 508 OFFCURVE",
"182 480 OFFCURVE",
"191 467 CURVE SMOOTH",
"200 454 OFFCURVE",
"205 433 OFFCURVE",
"205 402 CURVE",
"189 410 OFFCURVE",
"175 414 OFFCURVE",
"165 414 CURVE SMOOTH",
"161 414 OFFCURVE",
"152 407 OFFCURVE",
"141 393 CURVE SMOOTH",
"117 364 OFFCURVE",
"115 362 OFFCURVE",
"115 342 CURVE SMOOTH",
"115 327 OFFCURVE",
"117 316 OFFCURVE",
"121 308 CURVE SMOOTH",
"135 280 LINE",
"130 284 OFFCURVE",
"123 286 OFFCURVE",
"112 286 CURVE SMOOTH",
"97 286 LINE SMOOTH",
"94 286 OFFCURVE",
"87 282 OFFCURVE",
"76 272 CURVE SMOOTH",
"52 254 OFFCURVE",
"51 234 OFFCURVE",
"51 198 CURVE SMOOTH",
"51 176 OFFCURVE",
"62 143 OFFCURVE",
"83 99 CURVE SMOOTH",
"127 11 OFFCURVE",
"215 -30 OFFCURVE",
"305 -30 CURVE SMOOTH"
);
},
{
closed = 1;
nodes = (
"281 168 OFFCURVE",
"263 179 OFFCURVE",
"238 201 CURVE SMOOTH",
"188 246 OFFCURVE",
"153 291 OFFCURVE",
"147 338 CURVE",
"156 363 OFFCURVE",
"168 376 OFFCURVE",
"183 376 CURVE SMOOTH",
"189 376 OFFCURVE",
"203 367 OFFCURVE",
"225 350 CURVE SMOOTH",
"269 315 OFFCURVE",
"327 233 OFFCURVE",
"327 204 CURVE",
"325 185 OFFCURVE",
"307 168 OFFCURVE",
"291 168 CURVE SMOOTH"
);
},
{
closed = 1;
nodes = (
"268 12 OFFCURVE",
"234 20 OFFCURVE",
"199 35 CURVE SMOOTH",
"128 64 OFFCURVE",
"81 155 OFFCURVE",
"81 204 CURVE SMOOTH",
"81 238 OFFCURVE",
"91 260 OFFCURVE",
"111 260 CURVE SMOOTH",
"144 260 OFFCURVE",
"174 236 OFFCURVE",
"204 188 CURVE SMOOTH",
"211 176 OFFCURVE",
"217 166 OFFCURVE",
"223 158 CURVE SMOOTH",
"228 152 LINE",
"237 141 OFFCURVE",
"241 131 OFFCURVE",
"241 124 CURVE SMOOTH",
"241 115 OFFCURVE",
"231 108 OFFCURVE",
"223 108 CURVE SMOOTH",
"188 108 OFFCURVE",
"145 147 OFFCURVE",
"131 182 CURVE SMOOTH",
"125 198 LINE",
"123 195 OFFCURVE",
"121 188 OFFCURVE",
"121 179 CURVE SMOOTH",
"121 128 OFFCURVE",
"174 82 OFFCURVE",
"233 82 CURVE SMOOTH",
"247 82 OFFCURVE",
"270 107 OFFCURVE",
"270 121 CURVE SMOOTH",
"270 128 OFFCURVE",
"266 141 OFFCURVE",
"257 158 CURVE",
"267 151 LINE",
"272 146 OFFCURVE",
"281 144 OFFCURVE",
"291 144 CURVE SMOOTH",
"303 144 OFFCURVE",
"314 149 OFFCURVE",
"323 158 CURVE",
"322 145 LINE",
"322 119 OFFCURVE",
"338 55 OFFCURVE",
"362 55 CURVE SMOOTH",
"368 55 OFFCURVE",
"371 57 OFFCURVE",
"371 60 CURVE SMOOTH",
"371 63 OFFCURVE",
"368 71 OFFCURVE",
"362 83 CURVE SMOOTH",
"355 96 OFFCURVE",
"352 115 OFFCURVE",
"352 142 CURVE SMOOTH",
"352 164 OFFCURVE",
"357 184 OFFCURVE",
"368 201 CURVE SMOOTH",
"389 236 OFFCURVE",
"434 261 OFFCURVE",
"454 273 CURVE SMOOTH",
"464 279 OFFCURVE",
"469 288 OFFCURVE",
"469 299 CURVE SMOOTH",
"469 304 LINE",
"468 314 OFFCURVE",
"466 322 OFFCURVE",
"455 322 CURVE",
"441 320 LINE",
"415 313 OFFCURVE",
"392 310 OFFCURVE",
"373 310 CURVE SMOOTH",
"312 310 OFFCURVE",
"271 334 OFFCURVE",
"271 366 CURVE SMOOTH",
"271 389 OFFCURVE",
"281 400 OFFCURVE",
"301 400 CURVE",
"309 399 LINE",
"326 396 OFFCURVE",
"338 394 OFFCURVE",
"347 394 CURVE",
"401 398 LINE",
"484 381 OFFCURVE",
"531 394 OFFCURVE",
"531 278 CURVE SMOOTH",
"531 149 OFFCURVE",
"522 155 OFFCURVE",
"469 96 CURVE",
"458 83 LINE SMOOTH",
"440 59 OFFCURVE",
"426 44 OFFCURVE",
"418 39 CURVE",
"400 28 OFFCURVE",
"338 12 OFFCURVE",
"301 12 CURVE SMOOTH"
);
},
{
closed = 1;
nodes = (
"340 248 OFFCURVE",
"328 272 OFFCURVE",
"313 288 CURVE",
"330 282 OFFCURVE",
"347 279 OFFCURVE",
"365 279 CURVE SMOOTH",
"380 279 OFFCURVE",
"398 281 OFFCURVE",
"419 286 CURVE",
"392 273 OFFCURVE",
"360 242 OFFCURVE",
"349 216 CURVE"
);
},
{
closed = 1;
nodes = (
"241 413 OFFCURVE",
"235 430 OFFCURVE",
"234 441 CURVE",
"232 453 OFFCURVE",
"228 466 OFFCURVE",
"222 479 CURVE SMOOTH",
"216 492 OFFCURVE",
"213 500 OFFCURVE",
"213 504 CURVE",
"208 531 LINE",
"203 552 LINE",
"203 556 OFFCURVE",
"199 567 OFFCURVE",
"189 584 CURVE SMOOTH",
"180 602 OFFCURVE",
"176 621 OFFCURVE",
"176 643 CURVE SMOOTH",
"176 672 OFFCURVE",
"186 686 OFFCURVE",
"205 686 CURVE SMOOTH",
"229 686 OFFCURVE",
"243 669 OFFCURVE",
"245 646 CURVE",
"247 632 LINE",
"249 627 OFFCURVE",
"257 609 OFFCURVE",
"273 576 CURVE",
"281 558 LINE",
"283 548 LINE",
"285 522 OFFCURVE",
"287 506 OFFCURVE",
"289 498 CURVE",
"293 481 LINE",
"297 461 LINE SMOOTH",
"299 446 OFFCURVE",
"303 434 OFFCURVE",
"309 426 CURVE",
"298 428 LINE",
"284 429 LINE",
"268 429 OFFCURVE",
"252 412 OFFCURVE",
"249 390 CURVE"
);
},
{
closed = 1;
nodes = (
"457 423 OFFCURVE",
"426 429 OFFCURVE",
"412 429 CURVE SMOOTH",
"405 429 LINE",
"395 428 LINE",
"403 439 OFFCURVE",
"408 457 OFFCURVE",
"411 481 CURVE SMOOTH",
"413 506 OFFCURVE",
"419 527 OFFCURVE",
"430 543 CURVE SMOOTH",
"439 560 OFFCURVE",
"445 573 OFFCURVE",
"447 582 CURVE SMOOTH",
"451 603 LINE SMOOTH",
"456 629 OFFCURVE",
"462 647 OFFCURVE",
"470 657 CURVE SMOOTH",
"478 667 OFFCURVE",
"487 672 OFFCURVE",
"499 672 CURVE SMOOTH",
"520 672 OFFCURVE",
"527 664 OFFCURVE",
"527 646 CURVE SMOOTH",
"527 626 OFFCURVE",
"521 604 OFFCURVE",
"509 579 CURVE SMOOTH",
"497 553 OFFCURVE",
"491 536 OFFCURVE",
"492 528 CURVE SMOOTH",
"492 520 OFFCURVE",
"488 511 OFFCURVE",
"481 502 CURVE SMOOTH",
"474 494 OFFCURVE",
"470 483 OFFCURVE",
"470 472 CURVE SMOOTH",
"470 461 OFFCURVE",
"465 444 OFFCURVE",
"457 422 CURVE"
);
}
);
width = 622;
}
);
note = uni270C;
unicode = 270C;
},
{
glyphname = uni270D;
lastChange = "2016-08-19 02:48:46 +0000";
layers = (
{
layerId = "6E183CFB-E55F-4C96-8804-AC4D4AF4B24B";
paths = (
{
closed = 1;
nodes = (
"163 46 LINE",
"211 94 LINE",
"218 90 OFFCURVE",
"236 86 OFFCURVE",
"265 83 CURVE SMOOTH",
"279 82 LINE",
"295 78 LINE",
"333 66 OFFCURVE",
"356 60 OFFCURVE",
"365 60 CURVE",
"396 63 LINE SMOOTH",
"431 66 OFFCURVE",
"469 68 OFFCURVE",
"511 68 CURVE SMOOTH",
"517 68 OFFCURVE",
"526 66 OFFCURVE",
"540 63 CURVE SMOOTH",
"553 59 OFFCURVE",
"571 56 OFFCURVE",
"594 54 CURVE SMOOTH",
"637 52 LINE",
"651 52 OFFCURVE",
"670 55 OFFCURVE",
"695 62 CURVE",
"705 -8 LINE",
"851 0 LINE",
"869 45 OFFCURVE",
"885 133 OFFCURVE",
"885 188 CURVE SMOOTH",
"885 250 OFFCURVE",
"875 338 OFFCURVE",
"865 352 CURVE",
"731 362 LINE",
"713 340 LINE",
"683 345 OFFCURVE",
"662 351 OFFCURVE",
"652 357 CURVE SMOOTH",
"630 371 OFFCURVE",
"576 411 OFFCURVE",
"555 432 CURVE",
"643 520 LINE SMOOTH",
"648 525 OFFCURVE",
"651 533 OFFCURVE",
"651 544 CURVE SMOOTH",
"651 577 OFFCURVE",
"625 596 OFFCURVE",
"603 596 CURVE SMOOTH",
"593 596 OFFCURVE",
"583 592 OFFCURVE",
"575 584 CURVE SMOOTH",
"477 490 LINE",
"446 517 OFFCURVE",
"424 530 OFFCURVE",
"411 530 CURVE SMOOTH",
"402 530 OFFCURVE",
"384 522 OFFCURVE",
"358 507 CURVE SMOOTH",
"306 478 OFFCURVE",
"200 388 OFFCURVE",
"195 383 CURVE",
"192 380 OFFCURVE",
"189 373 OFFCURVE",
"187 363 CURVE SMOOTH",
"179 340 LINE",
"137 232 LINE",
"93 154 LINE",
"93 151 LINE SMOOTH",
"93 140 OFFCURVE",
"102 130 OFFCURVE",
"113 130 CURVE",
"91 108 LINE",
"51 -10 LINE",
"55 -14 LINE"
);
},
{
closed = 1;
nodes = (
"77 22 LINE",
"107 102 LINE",
"123 94 OFFCURVE",
"146 70 OFFCURVE",
"151 58 CURVE",
"81 18 LINE"
);
},
{
closed = 1;
nodes = (
"140 191 OFFCURVE",
"160 228 OFFCURVE",
"167 250 CURVE",
"175 241 OFFCURVE",
"189 236 OFFCURVE",
"193 236 CURVE",
"193 193 OFFCURVE",
"170 176 OFFCURVE",
"135 176 CURVE SMOOTH",
"127 176 LINE"
);
},
{
closed = 1;
nodes = (
"299 95 OFFCURVE",
"286 99 OFFCURVE",
"273 101 CURVE SMOOTH",
"261 104 OFFCURVE",
"255 114 OFFCURVE",
"255 134 CURVE SMOOTH",
"255 151 OFFCURVE",
"270 162 OFFCURVE",
"289 162 CURVE",
"317 164 LINE",
"312 154 OFFCURVE",
"309 142 OFFCURVE",
"309 128 CURVE SMOOTH",
"309 117 OFFCURVE",
"311 104 OFFCURVE",
"313 90 CURVE"
);
},
{
closed = 1;
nodes = (
"134 144 OFFCURVE",
"127 146 OFFCURVE",
"123 148 CURVE",
"118 150 OFFCURVE",
"115 153 OFFCURVE",
"115 156 CURVE SMOOTH",
"115 161 OFFCURVE",
"118 164 OFFCURVE",
"123 164 CURVE",
"141 163 LINE",
"183 163 OFFCURVE",
"209 206 OFFCURVE",
"213 244 CURVE",
"177 258 LINE",
"184 282 OFFCURVE",
"189 300 OFFCURVE",
"195 312 CURVE SMOOTH",
"208 340 LINE SMOOTH",
"214 355 OFFCURVE",
"221 366 OFFCURVE",
"227 373 CURVE SMOOTH",
"239 385 OFFCURVE",
"318 448 OFFCURVE",
"345 464 CURVE",
"361 474 LINE",
"379 487 OFFCURVE",
"393 494 OFFCURVE",
"401 494 CURVE SMOOTH",
"421 494 OFFCURVE",
"452 474 OFFCURVE",
"455 466 CURVE",
"353 362 OFFCURVE",
"288 300 OFFCURVE",
"261 278 CURVE",
"238 186 OFFCURVE",
"189 144 OFFCURVE",
"143 144 CURVE SMOOTH"
);
},
{
closed = 1;
nodes = (
"441 318 LINE",
"442 315 OFFCURVE",
"443 312 OFFCURVE",
"443 308 CURVE SMOOTH",
"443 279 OFFCURVE",
"431 252 OFFCURVE",
"409 230 CURVE",
"400 230 LINE",
"349 228 LINE"
);
},
{
closed = 1;
nodes = (
"598 78 OFFCURVE",
"576 81 OFFCURVE",
"550 87 CURVE SMOOTH",
"524 93 OFFCURVE",
"503 96 OFFCURVE",
"489 96 CURVE SMOOTH",
"473 96 OFFCURVE",
"454 94 OFFCURVE",
"432 89 CURVE SMOOTH",
"410 84 OFFCURVE",
"393 82 OFFCURVE",
"381 82 CURVE SMOOTH",
"327 82 OFFCURVE",
"323 89 OFFCURVE",
"323 138 CURVE SMOOTH",
"323 148 OFFCURVE",
"329 165 OFFCURVE",
"335 174 CURVE",
"326 175 OFFCURVE",
"315 176 OFFCURVE",
"303 176 CURVE SMOOTH",
"269 176 OFFCURVE",
"243 168 OFFCURVE",
"243 132 CURVE SMOOTH",
"243 122 OFFCURVE",
"245 112 OFFCURVE",
"249 104 CURVE",
"246 104 LINE SMOOTH",
"236 104 OFFCURVE",
"223 115 OFFCURVE",
"223 136 CURVE SMOOTH",
"223 178 OFFCURVE",
"273 208 OFFCURVE",
"317 208 CURVE SMOOTH",
"426 206 LINE SMOOTH",
"457 206 OFFCURVE",
"476 207 OFFCURVE",
"485 209 CURVE SMOOTH",
"502 212 OFFCURVE",
"533 242 OFFCURVE",
"543 260 CURVE",
"496 237 OFFCURVE",
"501 234 OFFCURVE",
"431 232 CURVE",
"458 266 OFFCURVE",
"465 287 OFFCURVE",
"465 336 CURVE SMOOTH",
"465 342 LINE",
"529 408 LINE",
"548 398 OFFCURVE",
"568 384 OFFCURVE",
"587 367 CURVE SMOOTH",
"625 332 OFFCURVE",
"629 333 OFFCURVE",
"700 314 CURVE SMOOTH",
"715 310 LINE",
"723 306 OFFCURVE",
"735 250 OFFCURVE",
"735 214 CURVE SMOOTH",
"735 172 OFFCURVE",
"726 122 OFFCURVE",
"714 108 CURVE SMOOTH",
"702 95 OFFCURVE",
"643 78 OFFCURVE",
"615 78 CURVE SMOOTH"
);
},
{
closed = 1;
nodes = (
"812 54 OFFCURVE",
"821 65 OFFCURVE",
"821 76 CURVE SMOOTH",
"821 87 OFFCURVE",
"812 96 OFFCURVE",
"801 96 CURVE SMOOTH",
"790 96 OFFCURVE",
"779 87 OFFCURVE",
"779 76 CURVE SMOOTH",
"779 65 OFFCURVE",
"790 54 OFFCURVE",
"801 54 CURVE SMOOTH"
);
},
{
closed = 1;
nodes = (
"744 79 OFFCURVE",
"753 111 OFFCURVE",
"757 131 CURVE SMOOTH",
"761 151 OFFCURVE",
"763 168 OFFCURVE",
"763 184 CURVE SMOOTH",
"763 231 OFFCURVE",
"757 289 OFFCURVE",
"749 320 CURVE",
"835 316 LINE",
"845 291 OFFCURVE",
"853 239 OFFCURVE",
"853 184 CURVE SMOOTH",
"853 133 OFFCURVE",
"844 84 OFFCURVE",
"825 40 CURVE",
"729 34 LINE"
);
}
);
width = 936;
}
);
note = uni270D;
unicode = 270D;
},
{
glyphname = uni270E;
lastChange = "2016-08-19 02:48:46 +0000";
layers = (
{
layerId = "6E183CFB-E55F-4C96-8804-AC4D4AF4B24B";
paths = (
{
closed = 1;
nodes = (
"652 14 OFFCURVE",
"662 14 OFFCURVE",
"671 14 CURVE",
"722 16 LINE SMOOTH",
"729 16 OFFCURVE",
"734 16 OFFCURVE",
"739 16 CURVE SMOOTH",
"905 16 LINE",
"919 17 LINE SMOOTH",
"937 17 OFFCURVE",
"952 21 OFFCURVE",
"952 36 CURVE SMOOTH",
"952 39 OFFCURVE",
"951 44 OFFCURVE",
"949 50 CURVE SMOOTH",
"947 57 OFFCURVE",
"917 107 OFFCURVE",
"860 203 CURVE SMOOTH",
"805 295 LINE SMOOTH",
"788 322 OFFCURVE",
"762 348 OFFCURVE",
"747 362 CURVE SMOOTH",
"735 372 LINE",
"720 382 LINE",
"639 428 LINE",
"595 454 LINE SMOOTH",
"568 469 OFFCURVE",
"552 479 OFFCURVE",
"547 484 CURVE",
"542 489 OFFCURVE",
"520 504 OFFCURVE",
"480 529 CURVE SMOOTH",
"452 547 LINE SMOOTH",
"429 561 OFFCURVE",
"417 568 OFFCURVE",
"416 568 CURVE SMOOTH",
"414 568 OFFCURVE",
"405 572 OFFCURVE",
"391 581 CURVE SMOOTH",
"371 593 LINE SMOOTH",
"363 598 OFFCURVE",
"356 602 OFFCURVE",
"349 606 CURVE SMOOTH",
"291 642 LINE",
"278 639 OFFCURVE",
"267 636 OFFCURVE",
"256 632 CURVE SMOOTH",
"229 625 LINE SMOOTH",
"220 622 OFFCURVE",
"213 620 OFFCURVE",
"209 618 CURVE SMOOTH",
"206 617 OFFCURVE",
"200 615 OFFCURVE",
"191 613 CURVE SMOOTH",
"169 607 LINE SMOOTH",
"160 604 OFFCURVE",
"151 603 OFFCURVE",
"141 600 CURVE",
"135 589 OFFCURVE",
"128 578 OFFCURVE",
"123 568 CURVE SMOOTH",
"107 543 LINE",
"107 543 OFFCURVE",
"101 535 OFFCURVE",
"91 520 CURVE SMOOTH",
"81 504 OFFCURVE",
"67 479 OFFCURVE",
"51 444 CURVE",
"62 405 OFFCURVE",
"70 376 OFFCURVE",
"73 356 CURVE SMOOTH",
"77 336 OFFCURVE",
"84 311 OFFCURVE",
"95 280 CURVE",
"227 210 LINE SMOOTH",
"239 204 OFFCURVE",
"250 198 OFFCURVE",
"260 192 CURVE SMOOTH",
"288 178 LINE",
"295 174 OFFCURVE",
"300 171 OFFCURVE",
"303 170 CURVE SMOOTH",
"321 161 LINE",
"333 155 OFFCURVE",
"369 136 OFFCURVE",
"379 130 CURVE SMOOTH",
"435 101 LINE",
"442 96 OFFCURVE",
"448 93 OFFCURVE",
"451 92 CURVE",
"476 79 LINE SMOOTH",
"533 49 OFFCURVE",
"565 31 OFFCURVE",
"572 24 CURVE",
"579 17 OFFCURVE",
"603 13 OFFCURVE",
"643 13 CURVE"
);
},
{
closed = 1;
nodes = (
"558 74 OFFCURVE",
"527 89 OFFCURVE",
"513 98 CURVE SMOOTH",
"496 109 LINE",
"478 119 LINE",
"462 127 LINE SMOOTH",
"457 130 OFFCURVE",
"454 132 OFFCURVE",
"451 134 CURVE SMOOTH",
"415 154 LINE",
"355 186 LINE SMOOTH",
"335 196 OFFCURVE",
"321 203 OFFCURVE",
"314 206 CURVE",
"306 209 OFFCURVE",
"298 212 OFFCURVE",
"291 216 CURVE SMOOTH",
"260 230 LINE SMOOTH",
"225 247 OFFCURVE",
"196 266 OFFCURVE",
"161 288 CURVE",
"179 297 LINE SMOOTH",
"189 303 OFFCURVE",
"200 307 OFFCURVE",
"205 308 CURVE SMOOTH",
"217 311 LINE",
"221 312 OFFCURVE",
"227 313 OFFCURVE",
"235 316 CURVE",
"243 318 OFFCURVE",
"250 320 OFFCURVE",
"255 322 CURVE",
"260 320 OFFCURVE",
"266 317 OFFCURVE",
"271 315 CURVE SMOOTH",
"286 308 LINE",
"307 293 LINE SMOOTH",
"316 287 OFFCURVE",
"325 283 OFFCURVE",
"333 282 CURVE SMOOTH",
"340 280 OFFCURVE",
"348 275 OFFCURVE",
"357 266 CURVE SMOOTH",
"367 256 OFFCURVE",
"378 249 OFFCURVE",
"392 245 CURVE SMOOTH",
"405 240 LINE SMOOTH",
"417 235 OFFCURVE",
"424 231 OFFCURVE",
"427 228 CURVE",
"431 223 OFFCURVE",
"437 218 OFFCURVE",
"447 210 CURVE SMOOTH",
"458 202 LINE SMOOTH",
"462 199 OFFCURVE",
"465 197 OFFCURVE",
"467 196 CURVE",
"469 194 OFFCURVE",
"473 192 OFFCURVE",
"478 190 CURVE SMOOTH",
"495 184 LINE SMOOTH",
"511 177 OFFCURVE",
"521 172 OFFCURVE",
"525 169 CURVE",
"528 167 OFFCURVE",
"535 163 OFFCURVE",
"543 158 CURVE",
"585 133 LINE SMOOTH",
"592 129 OFFCURVE",
"597 126 OFFCURVE",
"599 124 CURVE",
"609 117 LINE SMOOTH",
"614 114 OFFCURVE",
"618 111 OFFCURVE",
"622 109 CURVE",
"625 106 OFFCURVE",
"629 104 OFFCURVE",
"633 102 CURVE",
"585 62 LINE"
);
},
{
closed = 1;
nodes = (
"111 358 LINE SMOOTH",
"108 366 OFFCURVE",
"106 371 OFFCURVE",
"105 375 CURVE SMOOTH",
"104 379 OFFCURVE",
"102 384 OFFCURVE",
"100 391 CURVE SMOOTH",
"85 438 LINE",
"89 444 OFFCURVE",
"94 450 OFFCURVE",
"97 456 CURVE",
"107 471 LINE",
"110 476 OFFCURVE",
"112 479 OFFCURVE",
"113 482 CURVE SMOOTH",
"114 484 OFFCURVE",
"116 488 OFFCURVE",
"118 492 CURVE SMOOTH",
"135 517 LINE",
"148 539 LINE SMOOTH",
"151 545 OFFCURVE",
"154 550 OFFCURVE",
"158 554 CURVE",
"161 559 OFFCURVE",
"164 563 OFFCURVE",
"167 568 CURVE",
"188 574 LINE",
"204 579 LINE",
"217 582 LINE SMOOTH",
"223 583 OFFCURVE",
"238 588 OFFCURVE",
"252 594 CURVE SMOOTH",
"279 604 LINE",
"280 600 OFFCURVE",
"281 596 OFFCURVE",
"282 592 CURVE",
"289 572 LINE",
"292 563 OFFCURVE",
"298 548 OFFCURVE",
"308 524 CURVE SMOOTH",
"317 500 OFFCURVE",
"323 485 OFFCURVE",
"325 480 CURVE",
"316 469 OFFCURVE",
"310 460 OFFCURVE",
"306 454 CURVE SMOOTH",
"302 447 OFFCURVE",
"297 440 OFFCURVE",
"291 433 CURVE SMOOTH",
"285 426 OFFCURVE",
"278 416 OFFCURVE",
"272 402 CURVE SMOOTH",
"267 389 LINE",
"265 383 OFFCURVE",
"249 356 OFFCURVE",
"247 354 CURVE",
"243 354 OFFCURVE",
"233 351 OFFCURVE",
"229 349 CURVE SMOOTH",
"221 346 LINE SMOOTH",
"220 346 OFFCURVE",
"210 342 OFFCURVE",
"191 333 CURVE SMOOTH",
"173 325 OFFCURVE",
"160 320 OFFCURVE",
"153 320 CURVE",
"133 317 LINE SMOOTH",
"130 316 OFFCURVE",
"127 316 OFFCURVE",
"125 316 CURVE"
);
},
{
closed = 1;
nodes = (
"218 396 OFFCURVE",
"259 467 OFFCURVE",
"259 490 CURVE SMOOTH",
"259 517 OFFCURVE",
"247 534 OFFCURVE",
"223 534 CURVE SMOOTH",
"193 534 OFFCURVE",
"151 487 OFFCURVE",
"151 444 CURVE SMOOTH",
"151 418 OFFCURVE",
"165 396 OFFCURVE",
"185 396 CURVE SMOOTH"
);
},
{
closed = 1;
nodes = (
"641 137 LINE",
"635 140 OFFCURVE",
"629 143 OFFCURVE",
"624 146 CURVE SMOOTH",
"607 156 LINE SMOOTH",
"602 159 OFFCURVE",
"596 163 OFFCURVE",
"588 168 CURVE SMOOTH",
"564 184 LINE",
"548 194 OFFCURVE",
"532 205 OFFCURVE",
"523 210 CURVE SMOOTH",
"451 250 LINE",
"420 267 LINE",
"395 281 LINE SMOOTH",
"390 284 OFFCURVE",
"383 289 OFFCURVE",
"373 296 CURVE SMOOTH",
"362 304 OFFCURVE",
"350 311 OFFCURVE",
"336 318 CURVE SMOOTH",
"323 324 LINE SMOOTH",
"316 328 OFFCURVE",
"307 332 OFFCURVE",
"300 337 CURVE SMOOTH",
"287 346 LINE",
"291 352 OFFCURVE",
"294 356 OFFCURVE",
"297 361 CURVE SMOOTH",
"307 375 LINE",
"315 388 LINE SMOOTH",
"322 399 OFFCURVE",
"326 407 OFFCURVE",
"326 413 CURVE SMOOTH",
"326 418 OFFCURVE",
"333 428 OFFCURVE",
"345 442 CURVE",
"352 438 OFFCURVE",
"358 436 OFFCURVE",
"363 432 CURVE",
"377 424 LINE SMOOTH",
"384 420 OFFCURVE",
"391 416 OFFCURVE",
"399 410 CURVE",
"406 404 OFFCURVE",
"416 399 OFFCURVE",
"427 395 CURVE SMOOTH",
"447 388 LINE",
"461 382 OFFCURVE",
"476 376 OFFCURVE",
"481 372 CURVE SMOOTH",
"493 363 LINE",
"527 338 LINE SMOOTH",
"541 328 OFFCURVE",
"551 323 OFFCURVE",
"560 323 CURVE SMOOTH",
"568 322 OFFCURVE",
"583 314 OFFCURVE",
"607 298 CURVE SMOOTH",
"627 284 LINE SMOOTH",
"641 274 OFFCURVE",
"645 272 OFFCURVE",
"658 266 CURVE",
"677 256 LINE",
"703 240 LINE",
"721 228 LINE",
"715 215 LINE SMOOTH",
"711 205 OFFCURVE",
"707 193 OFFCURVE",
"703 180 CURVE SMOOTH",
"699 167 OFFCURVE",
"685 149 OFFCURVE",
"659 128 CURVE"
);
},
{
closed = 1;
nodes = (
"636 49 OFFCURVE",
"631 49 OFFCURVE",
"627 49 CURVE SMOOTH",
"624 50 OFFCURVE",
"620 50 OFFCURVE",
"617 50 CURVE",
"629 66 OFFCURVE",
"647 84 OFFCURVE",
"673 84 CURVE SMOOTH",
"681 84 OFFCURVE",
"688 84 OFFCURVE",
"695 85 CURVE SMOOTH",
"701 86 OFFCURVE",
"707 87 OFFCURVE",
"712 87 CURVE SMOOTH",
"717 87 LINE SMOOTH",
"719 87 OFFCURVE",
"721 86 OFFCURVE",
"723 86 CURVE",
"706 99 OFFCURVE",
"695 108 OFFCURVE",
"695 120 CURVE SMOOTH",
"695 130 OFFCURVE",
"705 150 OFFCURVE",
"730 150 CURVE SMOOTH",
"743 150 LINE SMOOTH",
"746 150 OFFCURVE",
"751 148 OFFCURVE",
"758 146 CURVE SMOOTH",
"779 138 LINE",
"807 126 LINE",
"774 157 OFFCURVE",
"745 189 OFFCURVE",
"745 202 CURVE SMOOTH",
"745 211 OFFCURVE",
"749 214 OFFCURVE",
"754 214 CURVE SMOOTH",
"762 214 OFFCURVE",
"778 204 OFFCURVE",
"791 194 CURVE",
"782 207 OFFCURVE",
"775 219 OFFCURVE",
"769 230 CURVE",
"763 240 OFFCURVE",
"759 248 OFFCURVE",
"759 252 CURVE",
"759 253 OFFCURVE",
"759 255 OFFCURVE",
"758 257 CURVE",
"758 259 OFFCURVE",
"758 261 OFFCURVE",
"758 263 CURVE SMOOTH",
"758 272 OFFCURVE",
"758 280 OFFCURVE",
"759 288 CURVE SMOOTH",
"761 300 LINE",
"776 279 LINE SMOOTH",
"784 268 OFFCURVE",
"793 254 OFFCURVE",
"797 246 CURVE SMOOTH",
"805 230 LINE SMOOTH",
"817 209 OFFCURVE",
"833 181 OFFCURVE",
"845 166 CURVE SMOOTH",
"859 146 LINE SMOOTH",
"873 126 OFFCURVE",
"887 103 OFFCURVE",
"887 96 CURVE SMOOTH",
"887 81 OFFCURVE",
"869 50 OFFCURVE",
"853 50 CURVE SMOOTH",
"745 52 LINE",
"672 49 LINE SMOOTH",
"661 49 OFFCURVE",
"650 49 OFFCURVE",
"641 49 CURVE SMOOTH"
);
},
{
closed = 1;
nodes = (
"712 279 OFFCURVE",
"701 286 OFFCURVE",
"694 290 CURVE SMOOTH",
"687 294 OFFCURVE",
"676 299 OFFCURVE",
"663 306 CURVE SMOOTH",
"609 330 LINE",
"607 331 OFFCURVE",
"604 333 OFFCURVE",
"599 336 CURVE SMOOTH",
"570 355 LINE",
"565 357 OFFCURVE",
"563 360 OFFCURVE",
"560 361 CURVE SMOOTH",
"558 363 OFFCURVE",
"554 365 OFFCURVE",
"549 367 CURVE",
"537 371 LINE SMOOTH",
"526 375 OFFCURVE",
"517 380 OFFCURVE",
"509 385 CURVE SMOOTH",
"502 391 OFFCURVE",
"491 396 OFFCURVE",
"477 402 CURVE",
"465 406 LINE SMOOTH",
"459 408 OFFCURVE",
"450 412 OFFCURVE",
"442 418 CURVE SMOOTH",
"430 426 LINE SMOOTH",
"421 432 OFFCURVE",
"415 437 OFFCURVE",
"409 443 CURVE",
"403 449 OFFCURVE",
"394 456 OFFCURVE",
"380 463 CURVE SMOOTH",
"367 470 OFFCURVE",
"359 476 OFFCURVE",
"356 481 CURVE",
"351 492 OFFCURVE",
"337 529 OFFCURVE",
"337 538 CURVE SMOOTH",
"337 543 OFFCURVE",
"332 556 OFFCURVE",
"328 567 CURVE SMOOTH",
"319 590 LINE",
"348 572 OFFCURVE",
"375 556 OFFCURVE",
"399 541 CURVE SMOOTH",
"430 521 LINE",
"458 504 LINE",
"491 482 LINE",
"495 479 OFFCURVE",
"502 475 OFFCURVE",
"512 469 CURVE SMOOTH",
"589 420 LINE SMOOTH",
"592 418 OFFCURVE",
"597 416 OFFCURVE",
"603 413 CURVE SMOOTH",
"623 403 LINE",
"637 396 OFFCURVE",
"652 388 OFFCURVE",
"661 382 CURVE SMOOTH",
"729 338 LINE",
"727 270 LINE"
);
}
);
width = 1003;
}
);
note = uni270E;
unicode = 270E;
},
{
glyphname = uni270F;
lastChange = "2016-08-19 02:48:46 +0000";
layers = (
{
layerId = "6E183CFB-E55F-4C96-8804-AC4D4AF4B24B";
paths = (
{
closed = 1;
nodes = (
"389 28 LINE",
"402 28 LINE",
"531 24 LINE",
"560 26 OFFCURVE",
"596 27 OFFCURVE",
"639 27 CURVE SMOOTH",
"662 27 LINE",
"680 26 LINE",
"688 26 OFFCURVE",
"700 31 OFFCURVE",
"717 42 CURVE SMOOTH",
"733 53 OFFCURVE",
"761 73 OFFCURVE",
"798 102 CURVE",
"844 132 LINE",
"931 196 LINE",
"945 205 LINE",
"970 220 OFFCURVE",
"982 233 OFFCURVE",
"982 245 CURVE",
"979 253 OFFCURVE",
"973 262 OFFCURVE",
"961 271 CURVE SMOOTH",
"950 281 OFFCURVE",
"905 314 OFFCURVE",
"826 370 CURVE SMOOTH",
"793 394 LINE",
"728 438 LINE",
"716 444 OFFCURVE",
"658 459 OFFCURVE",
"642 462 CURVE",
"531 462 LINE SMOOTH",
"488 462 OFFCURVE",
"451 464 OFFCURVE",
"421 467 CURVE SMOOTH",
"390 469 OFFCURVE",
"359 470 OFFCURVE",
"327 470 CURVE",
"282 468 LINE",
"254 468 OFFCURVE",
"214 469 OFFCURVE",
"162 471 CURVE",
"103 409 LINE",
"54 346 LINE",
"54 296 LINE SMOOTH",
"54 270 OFFCURVE",
"53 252 OFFCURVE",
"52 246 CURVE",
"51 237 LINE",
"51 224 LINE SMOOTH",
"51 204 OFFCURVE",
"52 180 OFFCURVE",
"54 153 CURVE",
"128 58 OFFCURVE",
"125 62 OFFCURVE",
"174 19 CURVE"
);
},
{
closed = 1;
nodes = (
"135 106 LINE SMOOTH",
"129 111 OFFCURVE",
"113 130 OFFCURVE",
"87 165 CURVE",
"90 208 LINE",
"89 223 LINE",
"90 293 OFFCURVE",
"90 297 OFFCURVE",
"93 332 CURVE",
"108 350 OFFCURVE",
"120 362 OFFCURVE",
"129 370 CURVE SMOOTH",
"137 377 OFFCURVE",
"151 398 OFFCURVE",
"171 432 CURVE",
"196 409 LINE",
"273 334 LINE",
"271 314 OFFCURVE",
"269 302 OFFCURVE",
"269 296 CURVE SMOOTH",
"269 283 OFFCURVE",
"268 269 OFFCURVE",
"265 255 CURVE",
"265 249 LINE",
"267 226 LINE",
"269 206 LINE",
"268 173 LINE",
"261 167 OFFCURVE",
"254 160 OFFCURVE",
"250 153 CURVE SMOOTH",
"229 119 LINE SMOOTH",
"217 98 OFFCURVE",
"209 86 OFFCURVE",
"204 83 CURVE",
"182 65 LINE"
);
},
{
closed = 1;
nodes = (
"192 175 OFFCURVE",
"202 182 OFFCURVE",
"208 197 CURVE SMOOTH",
"214 211 OFFCURVE",
"218 231 OFFCURVE",
"218 258 CURVE SMOOTH",
"218 290 OFFCURVE",
"213 311 OFFCURVE",
"205 321 CURVE SMOOTH",
"195 331 OFFCURVE",
"186 336 OFFCURVE",
"176 336 CURVE SMOOTH",
"146 336 OFFCURVE",
"129 297 OFFCURVE",
"129 252 CURVE SMOOTH",
"129 206 OFFCURVE",
"154 175 OFFCURVE",
"180 175 CURVE SMOOTH"
);
},
{
closed = 1;
nodes = (
"254 59 LINE",
"227 59 LINE",
"240 81 OFFCURVE",
"250 95 OFFCURVE",
"256 100 CURVE SMOOTH",
"262 105 OFFCURVE",
"273 122 OFFCURVE",
"291 150 CURVE",
"295 151 LINE",
"309 153 LINE",
"316 153 LINE",
"330 151 LINE",
"336 151 LINE SMOOTH",
"344 151 OFFCURVE",
"352 151 OFFCURVE",
"358 153 CURVE SMOOTH",
"365 154 OFFCURVE",
"369 155 OFFCURVE",
"372 155 CURVE",
"394 151 OFFCURVE",
"408 149 OFFCURVE",
"415 149 CURVE SMOOTH",
"421 149 OFFCURVE",
"429 150 OFFCURVE",
"437 152 CURVE SMOOTH",
"445 154 OFFCURVE",
"453 155 OFFCURVE",
"459 155 CURVE SMOOTH",
"463 155 LINE",
"467 154 LINE",
"474 151 OFFCURVE",
"494 149 OFFCURVE",
"526 148 CURVE SMOOTH",
"541 147 LINE",
"549 149 LINE",
"552 151 OFFCURVE",
"558 152 OFFCURVE",
"564 152 CURVE SMOOTH",
"583 151 LINE",
"607 151 LINE",
"648 150 LINE",
"655 148 OFFCURVE",
"667 148 OFFCURVE",
"681 148 CURVE SMOOTH",
"689 148 LINE",
"667 66 LINE",
"638 63 OFFCURVE",
"613 61 OFFCURVE",
"593 61 CURVE SMOOTH",
"555 61 LINE",
"405 65 LINE",
"389 65 LINE",
"379 64 LINE",
"347 60 OFFCURVE",
"320 57 OFFCURVE",
"298 57 CURVE SMOOTH",
"291 57 LINE"
);
},
{
closed = 1;
nodes = (
"539 187 LINE",
"516 185 OFFCURVE",
"478 184 OFFCURVE",
"425 184 CURVE SMOOTH",
"408 184 LINE",
"396 185 LINE",
"388 187 OFFCURVE",
"378 187 OFFCURVE",
"365 187 CURVE SMOOTH",
"349 187 OFFCURVE",
"337 187 OFFCURVE",
"329 185 CURVE",
"314 185 LINE",
"307 186 LINE",
"310 237 LINE",
"310 247 OFFCURVE",
"310 254 OFFCURVE",
"308 261 CURVE SMOOTH",
"307 267 OFFCURVE",
"306 271 OFFCURVE",
"306 274 CURVE",
"309 312 LINE",
"337 312 LINE",
"371 310 LINE",
"402 315 OFFCURVE",
"432 318 OFFCURVE",
"459 318 CURVE SMOOTH",
"496 319 LINE",
"536 319 LINE",
"597 314 LINE",
"607 315 LINE",
"616 316 OFFCURVE",
"630 317 OFFCURVE",
"650 317 CURVE SMOOTH",
"680 316 LINE",
"702 314 LINE",
"704 291 OFFCURVE",
"706 274 OFFCURVE",
"708 264 CURVE SMOOTH",
"710 254 OFFCURVE",
"712 247 OFFCURVE",
"712 242 CURVE SMOOTH",
"712 226 OFFCURVE",
"708 207 OFFCURVE",
"698 184 CURVE",
"639 182 LINE"
);
},
{
closed = 1;
nodes = (
"371 339 OFFCURVE",
"313 348 OFFCURVE",
"300 350 CURVE",
"292 356 OFFCURVE",
"257 384 OFFCURVE",
"254 391 CURVE",
"231 418 LINE",
"213 440 LINE",
"314 439 OFFCURVE",
"372 438 OFFCURVE",
"388 436 CURVE SMOOTH",
"403 434 OFFCURVE",
"428 433 OFFCURVE",
"462 433 CURVE SMOOTH",
"531 431 LINE",
"567 434 LINE",
"594 432 OFFCURVE",
"623 430 OFFCURVE",
"654 430 CURVE",
"686 354 LINE",
"630 354 LINE",
"593 351 OFFCURVE",
"561 349 OFFCURVE",
"534 349 CURVE",
"458 346 LINE",
"448 346 OFFCURVE",
"436 345 OFFCURVE",
"420 342 CURVE SMOOTH",
"411 340 LINE",
"404 339 LINE",
"394 339 LINE SMOOTH"
);
},
{
closed = 1;
nodes = (
"705 118 OFFCURVE",
"715 146 OFFCURVE",
"766 179 CURVE",
"739 183 OFFCURVE",
"730 187 OFFCURVE",
"730 208 CURVE SMOOTH",
"730 212 LINE",
"732 256 OFFCURVE",
"813 256 OFFCURVE",
"819 256 CURVE",
"795 266 OFFCURVE",
"775 275 OFFCURVE",
"758 286 CURVE SMOOTH",
"741 296 OFFCURVE",
"732 305 OFFCURVE",
"732 313 CURVE SMOOTH",
"732 319 OFFCURVE",
"738 322 OFFCURVE",
"751 322 CURVE",
"771 320 LINE",
"765 322 OFFCURVE",
"723 344 OFFCURVE",
"712 375 CURVE SMOOTH",
"700 413 LINE",
"739 384 LINE",
"785 352 LINE",
"824 325 LINE",
"841 312 LINE",
"875 284 LINE",
"889 274 OFFCURVE",
"893 266 OFFCURVE",
"893 248 CURVE SMOOTH",
"893 221 OFFCURVE",
"890 213 OFFCURVE",
"875 202 CURVE",
"854 184 LINE",
"841 172 OFFCURVE",
"813 151 OFFCURVE",
"804 146 CURVE",
"788 134 LINE",
"742 98 OFFCURVE",
"712 76 OFFCURVE",
"701 71 CURVE"
);
}
);
width = 1033;
}
);
note = uni270F;
unicode = 270F;
},
{
glyphname = uni2710;
lastChange = "2016-08-19 02:48:46 +0000";
layers = (
{
layerId = "6E183CFB-E55F-4C96-8804-AC4D4AF4B24B";
paths = (
{
closed = 1;
nodes = (
"342 26 OFFCURVE",
"372 45 OFFCURVE",
"399 63 CURVE SMOOTH",
"505 134 LINE SMOOTH",
"508 136 OFFCURVE",
"514 140 OFFCURVE",
"521 145 CURVE SMOOTH",
"630 214 LINE",
"636 218 OFFCURVE",
"641 221 OFFCURVE",
"645 224 CURVE SMOOTH",
"648 226 OFFCURVE",
"656 231 OFFCURVE",
"668 240 CURVE SMOOTH",
"704 263 LINE SMOOTH",
"735 283 OFFCURVE",
"756 296 OFFCURVE",
"767 300 CURVE SMOOTH",
"778 305 OFFCURVE",
"793 326 OFFCURVE",
"813 364 CURVE SMOOTH",
"841 421 LINE SMOOTH",
"845 429 OFFCURVE",
"848 435 OFFCURVE",
"850 438 CURVE",
"853 442 OFFCURVE",
"855 447 OFFCURVE",
"858 453 CURVE SMOOTH",
"880 492 LINE SMOOTH",
"885 500 OFFCURVE",
"889 507 OFFCURVE",
"893 515 CURVE SMOOTH",
"923 570 LINE",
"938 595 LINE SMOOTH",
"943 604 OFFCURVE",
"947 614 OFFCURVE",
"947 622 CURVE SMOOTH",
"947 628 OFFCURVE",
"944 633 OFFCURVE",
"938 636 CURVE SMOOTH",
"931 640 OFFCURVE",
"919 641 OFFCURVE",
"901 641 CURVE SMOOTH",
"881 641 LINE",
"887 641 OFFCURVE",
"670 634 OFFCURVE",
"669 634 CURVE",
"625 632 LINE SMOOTH",
"615 631 OFFCURVE",
"557 620 OFFCURVE",
"515 594 CURVE SMOOTH",
"475 571 LINE",
"395 523 LINE SMOOTH",
"370 508 OFFCURVE",
"352 498 OFFCURVE",
"338 493 CURVE SMOOTH",
"325 488 OFFCURVE",
"295 473 OFFCURVE",
"248 446 CURVE SMOOTH",
"224 432 LINE SMOOTH",
"217 429 OFFCURVE",
"212 425 OFFCURVE",
"207 421 CURVE",
"201 417 OFFCURVE",
"188 409 OFFCURVE",
"168 397 CURVE SMOOTH",
"146 385 LINE SMOOTH",
"128 375 OFFCURVE",
"108 364 OFFCURVE",
"87 352 CURVE",
"80 320 OFFCURVE",
"75 297 OFFCURVE",
"72 281 CURVE SMOOTH",
"68 265 OFFCURVE",
"66 255 OFFCURVE",
"65 250 CURVE SMOOTH",
"59 228 LINE SMOOTH",
"56 219 OFFCURVE",
"53 210 OFFCURVE",
"51 200 CURVE",
"69 168 LINE",
"73 163 OFFCURVE",
"81 148 OFFCURVE",
"93 125 CURVE SMOOTH",
"105 101 OFFCURVE",
"122 75 OFFCURVE",
"143 46 CURVE",
"155 43 OFFCURVE",
"167 40 OFFCURVE",
"178 37 CURVE SMOOTH",
"207 29 LINE SMOOTH",
"217 26 OFFCURVE",
"228 23 OFFCURVE",
"237 20 CURVE SMOOTH",
"246 17 OFFCURVE",
"260 13 OFFCURVE",
"279 10 CURVE SMOOTH",
"309 4 LINE"
);
},
{
closed = 1;
nodes = (
"268 52 LINE SMOOTH",
"245 55 OFFCURVE",
"193 64 OFFCURVE",
"165 72 CURVE",
"156 92 LINE SMOOTH",
"150 103 OFFCURVE",
"146 110 OFFCURVE",
"143 116 CURVE",
"139 121 OFFCURVE",
"136 125 OFFCURVE",
"135 127 CURVE SMOOTH",
"120 153 LINE",
"116 159 OFFCURVE",
"113 164 OFFCURVE",
"110 168 CURVE SMOOTH",
"107 173 OFFCURVE",
"104 180 OFFCURVE",
"99 190 CURVE",
"91 208 LINE",
"95 229 LINE",
"100 246 LINE SMOOTH",
"101 251 OFFCURVE",
"102 256 OFFCURVE",
"103 258 CURVE SMOOTH",
"104 261 OFFCURVE",
"105 265 OFFCURVE",
"106 272 CURVE SMOOTH",
"110 294 LINE SMOOTH",
"112 302 OFFCURVE",
"113 312 OFFCURVE",
"115 322 CURVE",
"125 319 OFFCURVE",
"153 315 OFFCURVE",
"155 315 CURVE",
"184 311 LINE",
"201 308 LINE",
"245 302 LINE",
"247 297 OFFCURVE",
"249 293 OFFCURVE",
"250 290 CURVE",
"255 279 LINE",
"260 270 LINE",
"263 266 OFFCURVE",
"266 259 OFFCURVE",
"270 250 CURVE SMOOTH",
"273 242 OFFCURVE",
"279 231 OFFCURVE",
"289 219 CURVE SMOOTH",
"303 200 LINE",
"304 199 OFFCURVE",
"305 196 OFFCURVE",
"307 193 CURVE SMOOTH",
"311 185 LINE",
"313 181 OFFCURVE",
"314 177 OFFCURVE",
"317 174 CURVE",
"316 172 OFFCURVE",
"313 158 OFFCURVE",
"311 146 CURVE",
"310 132 LINE SMOOTH",
"308 110 OFFCURVE",
"305 83 OFFCURVE",
"301 74 CURVE SMOOTH",
"296 64 LINE SMOOTH",
"295 61 OFFCURVE",
"291 50 OFFCURVE",
"291 48 CURVE"
);
},
{
closed = 1;
nodes = (
"243 126 OFFCURVE",
"255 138 OFFCURVE",
"255 157 CURVE SMOOTH",
"255 190 OFFCURVE",
"215 259 OFFCURVE",
"178 259 CURVE SMOOTH",
"160 259 OFFCURVE",
"144 242 OFFCURVE",
"144 219 CURVE SMOOTH",
"144 178 OFFCURVE",
"179 126 OFFCURVE",
"223 126 CURVE SMOOTH"
);
},
{
closed = 1;
nodes = (
"334 86 LINE SMOOTH",
"334 97 OFFCURVE",
"335 108 OFFCURVE",
"337 114 CURVE SMOOTH",
"340 126 LINE SMOOTH",
"341 131 OFFCURVE",
"343 137 OFFCURVE",
"344 143 CURVE",
"346 150 OFFCURVE",
"347 157 OFFCURVE",
"349 164 CURVE",
"362 176 OFFCURVE",
"376 186 OFFCURVE",
"391 193 CURVE SMOOTH",
"405 199 OFFCURVE",
"415 206 OFFCURVE",
"422 213 CURVE SMOOTH",
"429 221 OFFCURVE",
"438 226 OFFCURVE",
"452 229 CURVE SMOOTH",
"464 232 OFFCURVE",
"475 238 OFFCURVE",
"483 246 CURVE SMOOTH",
"494 256 LINE SMOOTH",
"503 265 OFFCURVE",
"511 270 OFFCURVE",
"516 271 CURVE SMOOTH",
"521 271 OFFCURVE",
"529 274 OFFCURVE",
"541 279 CURVE SMOOTH",
"563 290 LINE",
"565 291 OFFCURVE",
"568 293 OFFCURVE",
"573 297 CURVE SMOOTH",
"586 308 LINE SMOOTH",
"598 317 OFFCURVE",
"606 323 OFFCURVE",
"613 327 CURVE",
"619 330 OFFCURVE",
"625 333 OFFCURVE",
"632 337 CURVE SMOOTH",
"675 362 LINE SMOOTH",
"681 366 OFFCURVE",
"686 369 OFFCURVE",
"689 370 CURVE",
"700 375 LINE SMOOTH",
"704 377 OFFCURVE",
"708 379 OFFCURVE",
"711 381 CURVE SMOOTH",
"725 388 LINE",
"737 328 LINE",
"713 309 OFFCURVE",
"693 295 OFFCURVE",
"678 287 CURVE SMOOTH",
"663 279 OFFCURVE",
"655 274 OFFCURVE",
"653 272 CURVE",
"635 262 LINE SMOOTH",
"629 259 OFFCURVE",
"624 255 OFFCURVE",
"620 252 CURVE SMOOTH",
"615 250 OFFCURVE",
"611 248 OFFCURVE",
"609 246 CURVE SMOOTH",
"597 239 LINE",
"594 236 OFFCURVE",
"586 231 OFFCURVE",
"576 225 CURVE SMOOTH",
"566 218 OFFCURVE",
"556 212 OFFCURVE",
"547 206 CURVE SMOOTH",
"518 188 LINE SMOOTH",
"500 175 OFFCURVE",
"476 158 OFFCURVE",
"447 136 CURVE SMOOTH",
"418 114 OFFCURVE",
"398 101 OFFCURVE",
"389 96 CURVE SMOOTH",
"375 89 LINE",
"371 87 OFFCURVE",
"364 83 OFFCURVE",
"356 79 CURVE SMOOTH",
"347 74 OFFCURVE",
"339 70 OFFCURVE",
"333 66 CURVE"
);
},
{
closed = 1;
nodes = (
"251 332 OFFCURVE",
"243 333 OFFCURVE",
"234 334 CURVE SMOOTH",
"214 338 LINE",
"211 338 OFFCURVE",
"204 341 OFFCURVE",
"194 344 CURVE SMOOTH",
"183 348 OFFCURVE",
"167 350 OFFCURVE",
"145 350 CURVE",
"175 367 OFFCURVE",
"203 382 OFFCURVE",
"228 396 CURVE SMOOTH",
"259 414 LINE",
"288 429 LINE SMOOTH",
"306 439 OFFCURVE",
"319 446 OFFCURVE",
"328 451 CURVE SMOOTH",
"337 455 OFFCURVE",
"353 463 OFFCURVE",
"376 477 CURVE SMOOTH",
"406 494 LINE SMOOTH",
"415 499 OFFCURVE",
"421 501 OFFCURVE",
"423 503 CURVE SMOOTH",
"426 504 OFFCURVE",
"431 508 OFFCURVE",
"438 513 CURVE SMOOTH",
"477 540 LINE SMOOTH",
"488 547 OFFCURVE",
"498 553 OFFCURVE",
"512 560 CURVE SMOOTH",
"536 573 LINE SMOOTH",
"545 578 OFFCURVE",
"555 583 OFFCURVE",
"565 588 CURVE",
"623 552 LINE",
"617 548 OFFCURVE",
"610 545 OFFCURVE",
"604 542 CURVE SMOOTH",
"589 533 LINE SMOOTH",
"579 527 OFFCURVE",
"570 521 OFFCURVE",
"560 513 CURVE SMOOTH",
"542 499 LINE",
"513 478 LINE SMOOTH",
"511 477 OFFCURVE",
"508 475 OFFCURVE",
"503 473 CURVE SMOOTH",
"488 465 LINE",
"461 450 LINE",
"458 449 OFFCURVE",
"456 446 OFFCURVE",
"453 444 CURVE SMOOTH",
"443 436 LINE SMOOTH",
"436 430 OFFCURVE",
"427 424 OFFCURVE",
"415 417 CURVE SMOOTH",
"403 411 OFFCURVE",
"392 403 OFFCURVE",
"381 394 CURVE SMOOTH",
"359 374 OFFCURVE",
"332 360 OFFCURVE",
"319 358 CURVE",
"313 356 OFFCURVE",
"304 354 OFFCURVE",
"295 348 CURVE SMOOTH",
"271 334 LINE",
"261 330 LINE"
);
},
{
closed = 1;
nodes = (
"340 209 OFFCURVE",
"338 215 OFFCURVE",
"335 221 CURVE",
"321 250 LINE SMOOTH",
"316 258 OFFCURVE",
"312 265 OFFCURVE",
"306 270 CURVE SMOOTH",
"301 274 OFFCURVE",
"298 277 OFFCURVE",
"297 280 CURVE SMOOTH",
"294 286 LINE",
"293 288 OFFCURVE",
"292 291 OFFCURVE",
"291 293 CURVE",
"287 302 LINE",
"293 306 OFFCURVE",
"299 309 OFFCURVE",
"305 313 CURVE",
"318 320 LINE SMOOTH",
"326 325 OFFCURVE",
"334 329 OFFCURVE",
"342 333 CURVE",
"351 336 OFFCURVE",
"360 342 OFFCURVE",
"369 350 CURVE SMOOTH",
"385 364 LINE SMOOTH",
"397 374 OFFCURVE",
"409 384 OFFCURVE",
"415 386 CURVE",
"429 393 LINE",
"466 411 LINE SMOOTH",
"482 419 OFFCURVE",
"487 423 OFFCURVE",
"494 430 CURVE",
"507 442 LINE",
"510 445 OFFCURVE",
"520 450 OFFCURVE",
"535 457 CURVE SMOOTH",
"550 463 OFFCURVE",
"570 475 OFFCURVE",
"594 490 CURVE SMOOTH",
"612 501 LINE",
"629 511 LINE SMOOTH",
"634 514 OFFCURVE",
"638 516 OFFCURVE",
"639 516 CURVE SMOOTH",
"641 517 OFFCURVE",
"643 518 OFFCURVE",
"645 519 CURVE",
"657 526 LINE",
"660 522 OFFCURVE",
"663 519 OFFCURVE",
"667 515 CURVE SMOOTH",
"677 504 LINE",
"695 485 LINE SMOOTH",
"696 484 OFFCURVE",
"700 477 OFFCURVE",
"705 464 CURVE",
"709 451 OFFCURVE",
"712 438 OFFCURVE",
"715 424 CURVE",
"707 418 OFFCURVE",
"688 406 OFFCURVE",
"681 402 CURVE SMOOTH",
"665 392 LINE SMOOTH",
"660 389 OFFCURVE",
"654 386 OFFCURVE",
"646 381 CURVE SMOOTH",
"595 354 LINE SMOOTH",
"587 350 OFFCURVE",
"582 347 OFFCURVE",
"577 344 CURVE",
"508 300 LINE SMOOTH",
"469 275 OFFCURVE",
"444 261 OFFCURVE",
"434 257 CURVE SMOOTH",
"422 253 OFFCURVE",
"409 246 OFFCURVE",
"394 235 CURVE SMOOTH",
"370 219 LINE",
"357 211 LINE",
"353 209 OFFCURVE",
"348 207 OFFCURVE",
"343 204 CURVE"
);
},
{
closed = 1;
nodes = (
"758 361 OFFCURVE",
"752 376 OFFCURVE",
"752 390 CURVE SMOOTH",
"752 400 OFFCURVE",
"754 409 OFFCURVE",
"758 416 CURVE SMOOTH",
"763 422 OFFCURVE",
"767 430 OFFCURVE",
"770 438 CURVE SMOOTH",
"773 447 OFFCURVE",
"778 454 OFFCURVE",
"783 460 CURVE",
"764 453 LINE",
"759 450 OFFCURVE",
"754 449 OFFCURVE",
"750 449 CURVE SMOOTH",
"734 449 OFFCURVE",
"725 466 OFFCURVE",
"725 478 CURVE SMOOTH",
"725 484 OFFCURVE",
"727 490 OFFCURVE",
"729 495 CURVE SMOOTH",
"737 508 LINE SMOOTH",
"741 515 OFFCURVE",
"769 538 OFFCURVE",
"789 552 CURVE",
"752 540 OFFCURVE",
"722 532 OFFCURVE",
"705 532 CURVE SMOOTH",
"698 532 OFFCURVE",
"692 534 OFFCURVE",
"690 536 CURVE SMOOTH",
"688 539 OFFCURVE",
"686 542 OFFCURVE",
"686 544 CURVE SMOOTH",
"686 553 OFFCURVE",
"703 564 OFFCURVE",
"721 572 CURVE",
"707 571 LINE",
"702 570 OFFCURVE",
"698 570 OFFCURVE",
"693 570 CURVE SMOOTH",
"678 570 LINE SMOOTH",
"669 570 OFFCURVE",
"662 570 OFFCURVE",
"656 572 CURVE",
"650 573 OFFCURVE",
"636 582 OFFCURVE",
"615 598 CURVE",
"637 600 LINE SMOOTH",
"648 602 OFFCURVE",
"663 602 OFFCURVE",
"673 602 CURVE SMOOTH",
"696 602 LINE SMOOTH",
"729 602 OFFCURVE",
"755 604 OFFCURVE",
"774 606 CURVE SMOOTH",
"793 609 OFFCURVE",
"812 611 OFFCURVE",
"831 611 CURVE SMOOTH",
"843 611 OFFCURVE",
"851 610 OFFCURVE",
"855 607 CURVE",
"863 603 OFFCURVE",
"879 581 OFFCURVE",
"879 565 CURVE SMOOTH",
"879 557 OFFCURVE",
"870 539 OFFCURVE",
"853 510 CURVE SMOOTH",
"834 481 OFFCURVE",
"825 465 OFFCURVE",
"823 462 CURVE",
"818 452 LINE",
"785 388 LINE SMOOTH",
"776 373 OFFCURVE",
"769 358 OFFCURVE",
"763 350 CURVE"
);
}
);
width = 998;
}
);
note = uni2710;
unicode = 2710;
},
{
glyphname = uni2711;
lastChange = "2016-08-19 02:48:46 +0000";
layers = (
{
layerId = "6E183CFB-E55F-4C96-8804-AC4D4AF4B24B";
paths = (
{
closed = 1;
nodes = (
"708 44 OFFCURVE",
"749 63 OFFCURVE",
"841 146 CURVE SMOOTH",
"977 268 LINE",
"841 384 LINE SMOOTH",
"795 422 OFFCURVE",
"764 446 OFFCURVE",
"747 457 CURVE SMOOTH",
"711 479 OFFCURVE",
"678 488 OFFCURVE",
"633 488 CURVE SMOOTH",
"594 488 OFFCURVE",
"563 478 OFFCURVE",
"529 432 CURVE SMOOTH",
"496 387 OFFCURVE",
"458 364 OFFCURVE",
"413 364 CURVE SMOOTH",
"376 364 OFFCURVE",
"339 395 OFFCURVE",
"315 442 CURVE",
"221 442 LINE SMOOTH",
"116 442 OFFCURVE",
"51 375 OFFCURVE",
"51 266 CURVE SMOOTH",
"51 157 OFFCURVE",
"115 90 OFFCURVE",
"221 90 CURVE SMOOTH",
"315 90 LINE",
"339 137 OFFCURVE",
"376 168 OFFCURVE",
"413 168 CURVE SMOOTH",
"450 168 OFFCURVE",
"484 151 OFFCURVE",
"507 126 CURVE SMOOTH",
"523 108 LINE",
"538 90 LINE",
"559 59 OFFCURVE",
"591 44 OFFCURVE",
"633 44 CURVE SMOOTH"
);
},
{
closed = 1;
nodes = (
"609 82 OFFCURVE",
"586 95 OFFCURVE",
"565 122 CURVE SMOOTH",
"551 140 LINE SMOOTH",
"519 179 OFFCURVE",
"463 206 OFFCURVE",
"415 206 CURVE SMOOTH",
"362 206 OFFCURVE",
"313 175 OFFCURVE",
"289 128 CURVE",
"221 128 LINE SMOOTH",
"143 128 OFFCURVE",
"89 184 OFFCURVE",
"89 266 CURVE SMOOTH",
"89 346 OFFCURVE",
"141 402 OFFCURVE",
"221 402 CURVE SMOOTH",
"289 402 LINE",
"313 355 OFFCURVE",
"361 324 OFFCURVE",
"415 324 CURVE SMOOTH",
"466 324 OFFCURVE",
"521 350 OFFCURVE",
"563 406 CURVE SMOOTH",
"584 434 OFFCURVE",
"608 448 OFFCURVE",
"635 448 CURVE SMOOTH",
"707 448 OFFCURVE",
"773 388 OFFCURVE",
"797 370 CURVE",
"797 276 LINE",
"709 280 LINE",
"709 322 OFFCURVE",
"682 348 OFFCURVE",
"637 348 CURVE SMOOTH",
"592 348 OFFCURVE",
"565 318 OFFCURVE",
"565 266 CURVE SMOOTH",
"565 213 OFFCURVE",
"592 182 OFFCURVE",
"637 182 CURVE SMOOTH",
"682 182 OFFCURVE",
"709 210 OFFCURVE",
"709 252 CURVE",
"797 254 LINE",
"797 162 LINE",
"757 131 LINE SMOOTH",
"714 95 OFFCURVE",
"682 82 OFFCURVE",
"633 82 CURVE SMOOTH"
);
}
);
width = 1028;
}
);
note = uni2711;
unicode = 2711;
},
{
glyphname = uni2712;
lastChange = "2016-08-19 02:48:46 +0000";
layers = (
{
layerId = "6E183CFB-E55F-4C96-8804-AC4D4AF4B24B";
paths = (
{
closed = 1;
nodes = (
"640 18 OFFCURVE",
"659 25 OFFCURVE",
"681 40 CURVE SMOOTH",
"703 54 OFFCURVE",
"734 81 OFFCURVE",
"774 120 CURVE SMOOTH",
"854 198 OFFCURVE",
"917 227 OFFCURVE",
"977 236 CURVE",
"977 244 LINE",
"908 254 OFFCURVE",
"841 293 OFFCURVE",
"774 361 CURVE SMOOTH",
"707 428 OFFCURVE",
"657 462 OFFCURVE",
"623 462 CURVE SMOOTH",
"587 462 OFFCURVE",
"559 446 OFFCURVE",
"536 415 CURVE SMOOTH",
"490 352 OFFCURVE",
"454 338 OFFCURVE",
"413 338 CURVE SMOOTH",
"376 338 OFFCURVE",
"337 359 OFFCURVE",
"305 396 CURVE",
"211 396 LINE SMOOTH",
"99 396 OFFCURVE",
"51 342 OFFCURVE",
"51 240 CURVE SMOOTH",
"51 138 OFFCURVE",
"99 84 OFFCURVE",
"211 84 CURVE SMOOTH",
"305 84 LINE",
"339 123 OFFCURVE",
"375 142 OFFCURVE",
"413 142 CURVE SMOOTH",
"450 142 OFFCURVE",
"484 125 OFFCURVE",
"507 100 CURVE SMOOTH",
"523 82 LINE",
"538 64 LINE",
"559 33 OFFCURVE",
"587 18 OFFCURVE",
"623 18 CURVE SMOOTH"
);
},
{
closed = 1;
nodes = (
"561 190 OFFCURVE",
"528 194 OFFCURVE",
"509 203 CURVE SMOOTH",
"490 211 OFFCURVE",
"481 224 OFFCURVE",
"481 240 CURVE SMOOTH",
"481 256 OFFCURVE",
"491 269 OFFCURVE",
"510 277 CURVE SMOOTH",
"529 286 OFFCURVE",
"562 290 OFFCURVE",
"609 290 CURVE SMOOTH",
"653 290 LINE SMOOTH",
"678 290 OFFCURVE",
"696 275 OFFCURVE",
"699 252 CURVE",
"709 250 OFFCURVE",
"742 249 OFFCURVE",
"797 249 CURVE SMOOTH",
"851 249 OFFCURVE",
"887 247 OFFCURVE",
"907 244 CURVE",
"907 238 LINE",
"884 234 OFFCURVE",
"834 232 OFFCURVE",
"757 231 CURVE SMOOTH",
"699 230 LINE",
"696 206 OFFCURVE",
"680 190 OFFCURVE",
"653 190 CURVE SMOOTH",
"609 190 LINE SMOOTH"
);
}
);
width = 1028;
}
);
note = uni2712;
unicode = 2712;
},
{
glyphname = uni2713;
lastChange = "2016-08-19 02:48:46 +0000";
layers = (
{
layerId = "6E183CFB-E55F-4C96-8804-AC4D4AF4B24B";
paths = (
{
closed = 1;
nodes = (
"223 -30 LINE",
"226 -29 LINE",
"232 -32 LINE",
"235 -34 LINE",
"248 -24 OFFCURVE",
"259 -13 OFFCURVE",
"268 -2 CURVE SMOOTH",
"277 9 OFFCURVE",
"294 38 OFFCURVE",
"321 83 CURVE SMOOTH",
"383 188 LINE SMOOTH",
"417 244 OFFCURVE",
"590 479 OFFCURVE",
"635 532 CURVE",
"682 584 LINE SMOOTH",
"723 629 OFFCURVE",
"749 659 OFFCURVE",
"760 673 CURVE SMOOTH",
"772 687 OFFCURVE",
"778 698 OFFCURVE",
"778 706 CURVE SMOOTH",
"778 711 OFFCURVE",
"775 719 OFFCURVE",
"770 719 CURVE SMOOTH",
"765 719 OFFCURVE",
"757 715 OFFCURVE",
"747 708 CURVE",
"755 726 LINE",
"721 706 LINE",
"723 720 LINE",
"721 714 OFFCURVE",
"705 698 OFFCURVE",
"701 698 CURVE SMOOTH",
"698 698 OFFCURVE",
"697 701 OFFCURVE",
"697 706 CURVE SMOOTH",
"697 710 LINE",
"669 696 LINE",
"667 696 OFFCURVE",
"665 697 OFFCURVE",
"665 700 CURVE SMOOTH",
"665 703 OFFCURVE",
"667 710 OFFCURVE",
"669 720 CURVE",
"655 705 OFFCURVE",
"635 688 OFFCURVE",
"609 670 CURVE SMOOTH",
"574 646 OFFCURVE",
"439 474 OFFCURVE",
"383 386 CURVE SMOOTH",
"355 341 OFFCURVE",
"339 315 OFFCURVE",
"336 306 CURVE",
"332 296 OFFCURVE",
"329 292 OFFCURVE",
"325 292 CURVE SMOOTH",
"323 292 OFFCURVE",
"322 296 OFFCURVE",
"321 304 CURVE",
"303 263 OFFCURVE",
"287 229 OFFCURVE",
"271 204 CURVE SMOOTH",
"254 179 OFFCURVE",
"240 166 OFFCURVE",
"229 166 CURVE SMOOTH",
"216 166 OFFCURVE",
"204 191 OFFCURVE",
"193 242 CURVE SMOOTH",
"188 264 OFFCURVE",
"177 278 OFFCURVE",
"161 286 CURVE",
"158 287 LINE",
"155 287 OFFCURVE",
"151 285 OFFCURVE",
"146 282 CURVE SMOOTH",
"142 278 OFFCURVE",
"138 276 OFFCURVE",
"136 276 CURVE SMOOTH",
"135 276 LINE",
"117 282 LINE",
"101 258 LINE",
"99 255 OFFCURVE",
"95 254 OFFCURVE",
"92 254 CURVE SMOOTH",
"87 254 OFFCURVE",
"83 255 OFFCURVE",
"81 258 CURVE",
"77 244 OFFCURVE",
"72 237 OFFCURVE",
"68 237 CURVE SMOOTH",
"65 237 OFFCURVE",
"59 239 OFFCURVE",
"51 244 CURVE",
"58 191 OFFCURVE",
"64 156 OFFCURVE",
"70 139 CURVE SMOOTH",
"80 105 OFFCURVE",
"110 20 OFFCURVE",
"141 -30 CURVE",
"145 -38 LINE",
"155 -32 OFFCURVE",
"158 -31 OFFCURVE",
"165 -31 CURVE",
"173 -32 LINE",
"178 -34 OFFCURVE",
"181 -37 OFFCURVE",
"181 -42 CURVE",
"204 -31 LINE",
"208 -31 OFFCURVE",
"209 -35 OFFCURVE",
"209 -44 CURVE"
);
}
);
width = 829;
}
);
note = uni2713;
unicode = 2713;
},
{
glyphname = uni2714;
lastChange = "2016-08-19 02:48:46 +0000";
layers = (
{
layerId = "6E183CFB-E55F-4C96-8804-AC4D4AF4B24B";
paths = (
{
closed = 1;
nodes = (
"234 -80 OFFCURVE",
"257 -71 OFFCURVE",
"282 -52 CURVE SMOOTH",
"307 -33 OFFCURVE",
"347 3 OFFCURVE",
"402 57 CURVE SMOOTH",
"457 110 OFFCURVE",
"529 183 OFFCURVE",
"619 274 CURVE SMOOTH",
"643 298 LINE SMOOTH",
"722 374 OFFCURVE",
"730 385 OFFCURVE",
"792 458 CURVE SMOOTH",
"823 494 OFFCURVE",
"845 519 OFFCURVE",
"858 532 CURVE SMOOTH",
"872 546 OFFCURVE",
"879 559 OFFCURVE",
"879 571 CURVE SMOOTH",
"879 582 OFFCURVE",
"877 593 OFFCURVE",
"873 603 CURVE",
"879 629 LINE",
"875 656 OFFCURVE",
"873 671 OFFCURVE",
"872 672 CURVE SMOOTH",
"872 674 OFFCURVE",
"870 675 OFFCURVE",
"869 676 CURVE",
"857 682 LINE",
"833 676 LINE",
"829 678 OFFCURVE",
"825 679 OFFCURVE",
"822 679 CURVE SMOOTH",
"806 679 OFFCURVE",
"781 661 OFFCURVE",
"748 624 CURVE SMOOTH",
"715 587 OFFCURVE",
"636 511 OFFCURVE",
"510 396 CURVE SMOOTH",
"306 207 LINE",
"304 205 OFFCURVE",
"299 204 OFFCURVE",
"292 204 CURVE SMOOTH",
"287 204 OFFCURVE",
"282 209 OFFCURVE",
"277 218 CURVE SMOOTH",
"272 228 OFFCURVE",
"269 242 OFFCURVE",
"267 262 CURVE",
"235 428 LINE SMOOTH",
"231 443 OFFCURVE",
"226 451 OFFCURVE",
"218 451 CURVE SMOOTH",
"216 451 OFFCURVE",
"211 449 OFFCURVE",
"205 443 CURVE SMOOTH",
"199 438 OFFCURVE",
"192 435 OFFCURVE",
"187 435 CURVE SMOOTH",
"180 435 OFFCURVE",
"174 434 OFFCURVE",
"170 432 CURVE",
"149 424 LINE",
"138 424 OFFCURVE",
"130 423 OFFCURVE",
"126 421 CURVE",
"117 418 OFFCURVE",
"87 393 OFFCURVE",
"79 374 CURVE",
"57 376 LINE",
"53 375 OFFCURVE",
"51 367 OFFCURVE",
"51 354 CURVE",
"53 327 LINE",
"55 300 LINE",
"63 172 LINE",
"67 146 OFFCURVE",
"69 121 OFFCURVE",
"69 98 CURVE SMOOTH",
"69 85 OFFCURVE",
"70 67 OFFCURVE",
"73 45 CURVE SMOOTH",
"79 0 OFFCURVE",
"85 -3 OFFCURVE",
"112 -30 CURVE SMOOTH",
"138 -58 OFFCURVE",
"176 -80 OFFCURVE",
"213 -80 CURVE SMOOTH"
);
}
);
width = 930;
}
);
note = uni2714;
unicode = 2714;
},
{
glyphname = uni2715;
lastChange = "2016-08-19 02:48:46 +0000";
layers = (
{
layerId = "6E183CFB-E55F-4C96-8804-AC4D4AF4B24B";
paths = (
{
closed = 1;
nodes = (
"433 252 LINE",
"759 -76 LINE",
"813 -22 LINE",
"485 308 LINE",
"813 638 LINE",
"759 692 LINE",
"433 362 LINE",
"105 692 LINE",
"51 638 LINE",
"379 308 LINE",
"51 -22 LINE",
"105 -76 LINE"
);
}
);
width = 864;
}
);
note = uni2715;
unicode = 2715;
},
{
glyphname = uni2716;
lastChange = "2016-08-19 02:48:46 +0000";
layers = (
{
layerId = "6E183CFB-E55F-4C96-8804-AC4D4AF4B24B";
paths = (
{
closed = 1;
nodes = (
"423 114 LINE",
"645 -108 LINE",
"795 42 LINE",
"575 264 LINE",
"795 486 LINE",
"645 636 LINE",
"423 414 LINE",
"201 636 LINE",
"51 486 LINE",
"273 264 LINE",
"51 42 LINE",
"201 -108 LINE"
);
}
);
width = 846;
}
);
note = uni2716;
unicode = 2716;
},
{
glyphname = uni2717;
lastChange = "2016-08-19 02:48:46 +0000";
layers = (
{
layerId = "6E183CFB-E55F-4C96-8804-AC4D4AF4B24B";
paths = (
{
closed = 1;
nodes = (
"105 -116 LINE",
"117 -122 LINE",
"134 -120 OFFCURVE",
"150 -104 OFFCURVE",
"165 -76 CURVE SMOOTH",
"194 -20 OFFCURVE",
"238 51 OFFCURVE",
"289 122 CURVE SMOOTH",
"339 194 LINE",
"375 132 LINE SMOOTH",
"402 86 OFFCURVE",
"421 55 OFFCURVE",
"434 39 CURVE SMOOTH",
"459 6 OFFCURVE",
"465 5 OFFCURVE",
"487 4 CURVE",
"490 19 LINE",
"491 22 LINE",
"505 18 LINE",
"509 40 LINE",
"513 45 OFFCURVE",
"516 48 OFFCURVE",
"519 48 CURVE SMOOTH",
"521 48 LINE",
"524 47 LINE",
"530 47 OFFCURVE",
"537 51 OFFCURVE",
"537 56 CURVE SMOOTH",
"537 59 OFFCURVE",
"532 74 OFFCURVE",
"522 100 CURVE SMOOTH",
"515 118 LINE SMOOTH",
"511 131 OFFCURVE",
"489 177 OFFCURVE",
"451 256 CURVE SMOOTH",
"425 310 LINE",
"461 358 LINE SMOOTH",
"547 472 OFFCURVE",
"594 534 OFFCURVE",
"602 544 CURVE SMOOTH",
"609 554 OFFCURVE",
"613 564 OFFCURVE",
"613 575 CURVE SMOOTH",
"613 579 OFFCURVE",
"612 583 OFFCURVE",
"610 586 CURVE",
"607 590 OFFCURVE",
"606 594 OFFCURVE",
"606 598 CURVE SMOOTH",
"606 602 OFFCURVE",
"606 606 OFFCURVE",
"605 610 CURVE",
"605 611 OFFCURVE",
"604 612 OFFCURVE",
"603 612 CURVE SMOOTH",
"602 612 OFFCURVE",
"597 608 OFFCURVE",
"588 600 CURVE SMOOTH",
"579 592 OFFCURVE",
"573 588 OFFCURVE",
"569 588 CURVE",
"565 590 LINE",
"562 592 OFFCURVE",
"560 595 OFFCURVE",
"560 599 CURVE SMOOTH",
"560 603 OFFCURVE",
"560 605 OFFCURVE",
"558 606 CURVE",
"550 602 LINE",
"545 598 LINE",
"539 610 LINE",
"511 577 OFFCURVE",
"486 548 OFFCURVE",
"462 522 CURVE SMOOTH",
"438 497 OFFCURVE",
"409 461 OFFCURVE",
"373 416 CURVE",
"335 490 LINE",
"293 576 LINE",
"291 576 LINE",
"287 577 LINE SMOOTH",
"282 577 OFFCURVE",
"280 579 OFFCURVE",
"279 582 CURVE",
"278 584 OFFCURVE",
"273 586 OFFCURVE",
"265 586 CURVE",
"261 562 LINE",
"253 572 LINE",
"241 560 LINE",
"240 560 OFFCURVE",
"237 562 OFFCURVE",
"234 564 CURVE",
"231 567 OFFCURVE",
"229 569 OFFCURVE",
"226 570 CURVE",
"224 570 OFFCURVE",
"223 567 OFFCURVE",
"221 562 CURVE",
"207 562 LINE",
"205 556 OFFCURVE",
"202 545 OFFCURVE",
"199 531 CURVE",
"199 526 OFFCURVE",
"204 510 OFFCURVE",
"213 482 CURVE SMOOTH",
"223 454 OFFCURVE",
"237 418 OFFCURVE",
"255 374 CURVE SMOOTH",
"267 344 LINE",
"283 308 LINE",
"250 270 OFFCURVE",
"219 231 OFFCURVE",
"192 194 CURVE SMOOTH",
"155 144 LINE SMOOTH",
"130 111 OFFCURVE",
"67 9 OFFCURVE",
"51 -22 CURVE",
"54 -30 OFFCURVE",
"59 -34 OFFCURVE",
"63 -34 CURVE SMOOTH",
"65 -34 OFFCURVE",
"66 -37 OFFCURVE",
"66 -41 CURVE",
"65 -45 LINE",
"65 -48 LINE",
"51 -72 LINE",
"61 -86 LINE",
"66 -86 OFFCURVE",
"69 -89 OFFCURVE",
"69 -94 CURVE SMOOTH",
"69 -101 OFFCURVE",
"74 -109 OFFCURVE",
"85 -120 CURVE",
"91 -114 LINE",
"101 -124 LINE"
);
}
);
width = 664;
}
);
note = uni2717;
unicode = 2717;
},
{
glyphname = uni2718;
lastChange = "2016-08-19 02:48:46 +0000";
layers = (
{
layerId = "6E183CFB-E55F-4C96-8804-AC4D4AF4B24B";
paths = (
{
closed = 1;
nodes = (
"159 -136 LINE",
"163 -136 OFFCURVE",
"173 -120 OFFCURVE",
"191 -86 CURVE SMOOTH",
"201 -68 LINE SMOOTH",
"206 -60 OFFCURVE",
"230 -26 OFFCURVE",
"276 32 CURVE SMOOTH",
"323 92 LINE",
"384 0 OFFCURVE",
"425 -57 OFFCURVE",
"447 -80 CURVE",
"458 -84 OFFCURVE",
"465 -87 OFFCURVE",
"470 -87 CURVE SMOOTH",
"473 -87 LINE SMOOTH",
"477 -87 OFFCURVE",
"480 -85 OFFCURVE",
"481 -82 CURVE SMOOTH",
"483 -79 OFFCURVE",
"484 -72 OFFCURVE",
"486 -63 CURVE",
"489 -56 LINE",
"490 -54 OFFCURVE",
"493 -53 OFFCURVE",
"496 -53 CURVE SMOOTH",
"502 -53 OFFCURVE",
"508 -55 OFFCURVE",
"511 -58 CURVE SMOOTH",
"515 -62 OFFCURVE",
"518 -63 OFFCURVE",
"522 -63 CURVE SMOOTH",
"529 -63 OFFCURVE",
"534 -60 OFFCURVE",
"537 -52 CURVE",
"539 -45 OFFCURVE",
"543 -42 OFFCURVE",
"549 -42 CURVE SMOOTH",
"554 -42 LINE SMOOTH",
"556 -42 OFFCURVE",
"559 -41 OFFCURVE",
"563 -39 CURVE",
"567 -36 LINE",
"559 -8 LINE",
"589 -6 LINE",
"599 -6 OFFCURVE",
"619 36 OFFCURVE",
"619 52 CURVE SMOOTH",
"619 58 OFFCURVE",
"612 69 OFFCURVE",
"599 83 CURVE SMOOTH",
"586 97 OFFCURVE",
"540 157 OFFCURVE",
"461 262 CURVE",
"522 335 OFFCURVE",
"569 387 OFFCURVE",
"601 417 CURVE SMOOTH",
"711 524 LINE",
"703 536 LINE",
"711 541 OFFCURVE",
"715 547 OFFCURVE",
"715 557 CURVE",
"713 574 LINE",
"703 576 LINE",
"707 592 LINE",
"702 592 LINE SMOOTH",
"696 592 OFFCURVE",
"691 591 OFFCURVE",
"688 589 CURVE",
"685 587 OFFCURVE",
"682 586 OFFCURVE",
"679 586 CURVE",
"673 588 OFFCURVE",
"665 609 OFFCURVE",
"665 615 CURVE",
"667 626 LINE",
"653 634 LINE",
"651 641 LINE",
"650 646 OFFCURVE",
"645 652 OFFCURVE",
"634 659 CURVE",
"631 660 LINE",
"595 632 LINE SMOOTH",
"587 625 OFFCURVE",
"577 615 OFFCURVE",
"564 601 CURVE SMOOTH",
"551 587 OFFCURVE",
"536 572 OFFCURVE",
"519 558 CURVE SMOOTH",
"502 542 OFFCURVE",
"451 489 OFFCURVE",
"367 396 CURVE",
"336 440 OFFCURVE",
"315 473 OFFCURVE",
"303 494 CURVE SMOOTH",
"280 534 OFFCURVE",
"229 602 OFFCURVE",
"217 614 CURVE",
"214 615 LINE",
"212 615 OFFCURVE",
"210 613 OFFCURVE",
"208 610 CURVE",
"207 606 OFFCURVE",
"205 603 OFFCURVE",
"203 600 CURVE",
"200 598 LINE",
"197 598 OFFCURVE",
"193 601 OFFCURVE",
"189 606 CURVE",
"187 592 OFFCURVE",
"183 583 OFFCURVE",
"177 580 CURVE",
"173 579 LINE",
"169 579 OFFCURVE",
"166 581 OFFCURVE",
"162 583 CURVE",
"157 586 OFFCURVE",
"154 588 OFFCURVE",
"153 588 CURVE SMOOTH",
"149 588 OFFCURVE",
"135 574 OFFCURVE",
"133 567 CURVE",
"131 559 OFFCURVE",
"117 548 OFFCURVE",
"109 548 CURVE SMOOTH",
"107 548 OFFCURVE",
"107 547 OFFCURVE",
"107 545 CURVE SMOOTH",
"107 539 OFFCURVE",
"117 500 OFFCURVE",
"124 492 CURVE",
"129 486 LINE",
"163 396 OFFCURVE",
"197 316 OFFCURVE",
"231 246 CURVE",
"131 139 OFFCURVE",
"73 69 OFFCURVE",
"53 26 CURVE",
"59 9 OFFCURVE",
"61 -3 OFFCURVE",
"61 -10 CURVE",
"59 -19 OFFCURVE",
"55 -28 OFFCURVE",
"51 -36 CURVE",
"65 -42 LINE",
"67 -42 OFFCURVE",
"73 -54 OFFCURVE",
"73 -62 CURVE",
"71 -78 LINE",
"71 -80 OFFCURVE",
"72 -81 OFFCURVE",
"73 -82 CURVE",
"81 -80 LINE",
"87 -78 LINE",
"88 -78 OFFCURVE",
"89 -79 OFFCURVE",
"89 -80 CURVE",
"87 -93 LINE",
"87 -95 OFFCURVE",
"88 -97 OFFCURVE",
"91 -98 CURVE",
"96 -98 OFFCURVE",
"101 -96 OFFCURVE",
"105 -93 CURVE SMOOTH",
"110 -89 OFFCURVE",
"114 -88 OFFCURVE",
"117 -88 CURVE SMOOTH",
"119 -88 OFFCURVE",
"119 -89 OFFCURVE",
"119 -92 CURVE SMOOTH",
"119 -95 OFFCURVE",
"118 -101 OFFCURVE",
"115 -110 CURVE",
"133 -134 LINE",
"134 -136 OFFCURVE",
"138 -137 OFFCURVE",
"143 -137 CURVE"
);
}
);
width = 766;
}
);
note = uni2718;
unicode = 2718;
},
{
glyphname = uni2719;
lastChange = "2016-08-19 02:48:46 +0000";
layers = (
{
layerId = "6E183CFB-E55F-4C96-8804-AC4D4AF4B24B";
paths = (
{
closed = 1;
nodes = (
"537 -68 LINE",
"537 182 LINE",
"785 182 LINE",
"785 418 LINE",
"537 418 LINE",
"537 666 LINE",
"301 666 LINE",
"301 418 LINE",
"51 418 LINE",
"51 182 LINE",
"301 182 LINE",
"301 -68 LINE"
);
},
{
closed = 1;
nodes = (
"331 212 LINE",
"83 212 LINE",
"83 388 LINE",
"331 388 LINE",
"331 634 LINE",
"507 634 LINE",
"507 388 LINE",
"753 388 LINE",
"753 212 LINE",
"507 212 LINE",
"507 -36 LINE",
"331 -36 LINE"
);
},
{
closed = 1;
nodes = (
"463 6 LINE",
"463 254 LINE",
"711 254 LINE",
"711 344 LINE",
"463 344 LINE",
"463 592 LINE",
"373 592 LINE",
"373 344 LINE",
"125 344 LINE",
"125 254 LINE",
"373 254 LINE",
"373 6 LINE"
);
}
);
width = 836;
}
);
note = uni2719;
unicode = 2719;
},
{
glyphname = uni271A;
lastChange = "2016-08-19 02:48:46 +0000";
layers = (
{
layerId = "6E183CFB-E55F-4C96-8804-AC4D4AF4B24B";
paths = (
{
closed = 1;
nodes = (
"535 -68 LINE",
"535 182 LINE",
"785 182 LINE",
"785 418 LINE",
"535 418 LINE",
"535 666 LINE",
"299 666 LINE",
"299 418 LINE",
"51 418 LINE",
"51 182 LINE",
"299 182 LINE",
"299 -68 LINE"
);
}
);
width = 836;
}
);
note = uni271A;
unicode = 271A;
},
{
glyphname = uni271B;
lastChange = "2016-08-19 02:48:46 +0000";
layers = (
{
layerId = "6E183CFB-E55F-4C96-8804-AC4D4AF4B24B";
paths = (
{
closed = 1;
nodes = (
"487 -68 LINE",
"479 240 LINE",
"785 232 LINE",
"785 368 LINE",
"479 358 LINE",
"487 666 LINE",
"351 666 LINE",
"359 358 LINE",
"51 368 LINE",
"51 232 LINE",
"359 240 LINE",
"351 -68 LINE"
);
},
{
closed = 1;
nodes = (
"365 354 LINE",
"473 354 LINE",
"473 244 LINE",
"365 244 LINE"
);
}
);
width = 836;
}
);
note = uni271B;
unicode = 271B;
},
{
glyphname = uni271C;
lastChange = "2016-08-19 02:48:46 +0000";
layers = (
{
layerId = "6E183CFB-E55F-4C96-8804-AC4D4AF4B24B";
paths = (
{
closed = 1;
nodes = (
"541 -66 LINE",
"541 176 LINE",
"783 176 LINE",
"783 424 LINE",
"541 424 LINE",
"541 666 LINE",
"293 666 LINE",
"293 424 LINE",
"51 424 LINE",
"51 176 LINE",
"293 176 LINE",
"293 -66 LINE"
);
},
{
closed = 1;
nodes = (
"301 416 LINE",
"531 416 LINE",
"531 184 LINE",
"301 184 LINE"
);
}
);
width = 834;
}
);
note = uni271C;
unicode = 271C;
},
{
glyphname = uni271D;
lastChange = "2016-08-19 02:48:46 +0000";
layers = (
{
layerId = "6E183CFB-E55F-4C96-8804-AC4D4AF4B24B";
paths = (
{
closed = 1;
nodes = (
"341 -86 LINE",
"341 366 LINE",
"517 366 LINE",
"517 472 LINE",
"341 472 LINE",
"341 668 LINE",
"229 668 LINE",
"229 472 LINE",
"51 472 LINE",
"51 366 LINE",
"229 366 LINE",
"229 -86 LINE"
);
}
);
width = 568;
}
);
note = uni271D;
unicode = 271D;
},
{
glyphname = uni271E;
lastChange = "2016-08-19 02:48:46 +0000";
layers = (
{
layerId = "6E183CFB-E55F-4C96-8804-AC4D4AF4B24B";
paths = (
{
closed = 1;
nodes = (
"439 -130 LINE",
"439 274 LINE",
"595 274 LINE",
"595 434 LINE",
"537 500 LINE",
"439 500 LINE",
"439 596 LINE",
"365 670 LINE",
"209 670 LINE",
"209 500 LINE",
"51 500 LINE",
"51 358 LINE",
"147 274 LINE",
"209 274 LINE",
"209 -54 LINE",
"303 -130 LINE"
);
},
{
closed = 1;
nodes = (
"243 368 LINE",
"85 368 LINE",
"85 470 LINE",
"243 470 LINE",
"243 638 LINE",
"349 638 LINE",
"349 470 LINE",
"505 470 LINE",
"505 368 LINE",
"349 368 LINE",
"349 -46 LINE",
"243 -46 LINE"
);
}
);
width = 646;
}
);
note = uni271E;
unicode = 271E;
},
{
glyphname = uni271F;
lastChange = "2016-08-19 02:48:46 +0000";
layers = (
{
layerId = "6E183CFB-E55F-4C96-8804-AC4D4AF4B24B";
paths = (
{
closed = 1;
nodes = (
"421 -96 LINE",
"421 294 LINE",
"577 294 LINE",
"577 508 LINE",
"421 508 LINE",
"421 676 LINE",
"205 676 LINE",
"205 508 LINE",
"51 508 LINE",
"51 294 LINE",
"205 294 LINE",
"205 -96 LINE"
);
},
{
closed = 1;
nodes = (
"233 324 LINE",
"79 324 LINE",
"79 476 LINE",
"233 476 LINE",
"233 646 LINE",
"391 646 LINE",
"391 476 LINE",
"547 476 LINE",
"547 324 LINE",
"391 324 LINE",
"391 -68 LINE",
"233 -68 LINE"
);
},
{
closed = 1;
nodes = (
"355 -34 LINE",
"355 358 LINE",
"511 358 LINE",
"511 440 LINE",
"355 440 LINE",
"355 612 LINE",
"271 612 LINE",
"271 440 LINE",
"115 440 LINE",
"115 358 LINE",
"271 358 LINE",
"271 -34 LINE"
);
}
);
width = 628;
}
);
note = uni271F;
unicode = 271F;
},
{
glyphname = uni2720;
lastChange = "2016-08-19 02:48:46 +0000";
layers = (
{
layerId = "6E183CFB-E55F-4C96-8804-AC4D4AF4B24B";
paths = (
{
closed = 1;
nodes = (
"225 21 OFFCURVE",
"289 24 OFFCURVE",
"337 24 CURVE SMOOTH",
"386 24 OFFCURVE",
"450 21 OFFCURVE",
"529 14 CURVE",
"529 42 LINE",
"479 49 OFFCURVE",
"444 62 OFFCURVE",
"423 80 CURVE SMOOTH",
"381 117 OFFCURVE",
"355 187 OFFCURVE",
"355 282 CURVE",
"409 282 OFFCURVE",
"455 275 OFFCURVE",
"490 260 CURVE SMOOTH",
"562 230 OFFCURVE",
"585 192 OFFCURVE",
"597 108 CURVE",
"625 108 LINE",
"619 187 OFFCURVE",
"615 251 OFFCURVE",
"615 300 CURVE SMOOTH",
"615 348 OFFCURVE",
"619 411 OFFCURVE",
"625 490 CURVE",
"597 490 LINE",
"591 447 OFFCURVE",
"581 415 OFFCURVE",
"565 392 CURVE SMOOTH",
"536 347 OFFCURVE",
"435 316 OFFCURVE",
"355 316 CURVE",
"355 368 OFFCURVE",
"362 412 OFFCURVE",
"376 448 CURVE SMOOTH",
"404 520 OFFCURVE",
"438 545 OFFCURVE",
"529 558 CURVE",
"529 586 LINE",
"450 580 OFFCURVE",
"386 576 OFFCURVE",
"337 576 CURVE SMOOTH",
"289 576 OFFCURVE",
"225 580 OFFCURVE",
"147 586 CURVE",
"147 558 LINE",
"195 551 OFFCURVE",
"230 539 OFFCURVE",
"252 521 CURVE SMOOTH",
"295 486 OFFCURVE",
"321 387 OFFCURVE",
"321 316 CURVE",
"271 316 OFFCURVE",
"229 322 OFFCURVE",
"194 335 CURVE SMOOTH",
"124 361 OFFCURVE",
"93 393 OFFCURVE",
"79 490 CURVE",
"51 490 LINE",
"58 407 OFFCURVE",
"61 343 OFFCURVE",
"61 300 CURVE SMOOTH",
"61 255 OFFCURVE",
"58 191 OFFCURVE",
"51 108 CURVE",
"79 108 LINE",
"85 153 OFFCURVE",
"96 186 OFFCURVE",
"112 208 CURVE SMOOTH",
"143 251 OFFCURVE",
"219 282 OFFCURVE",
"321 282 CURVE",
"321 235 OFFCURVE",
"315 194 OFFCURVE",
"303 160 CURVE SMOOTH",
"280 92 OFFCURVE",
"247 56 OFFCURVE",
"147 42 CURVE",
"147 14 LINE"
);
}
);
width = 676;
}
);
note = uni2720;
unicode = 2720;
},
{
glyphname = uni2721;
lastChange = "2016-08-19 02:48:46 +0000";
layers = (
{
layerId = "6E183CFB-E55F-4C96-8804-AC4D4AF4B24B";
paths = (
{
closed = 1;
nodes = (
"497 100 LINE",
"723 100 LINE",
"611 296 LINE",
"723 494 LINE",
"497 494 LINE",
"387 684 LINE",
"277 494 LINE",
"51 494 LINE",
"165 296 LINE",
"51 100 LINE",
"277 100 LINE",
"387 -90 LINE"
);
},
{
closed = 1;
nodes = (
"189 256 LINE",
"257 138 LINE",
"121 138 LINE"
);
},
{
closed = 1;
nodes = (
"321 100 LINE",
"453 100 LINE",
"387 -14 LINE"
);
},
{
closed = 1;
nodes = (
"121 456 LINE",
"257 456 LINE",
"189 338 LINE"
);
},
{
closed = 1;
nodes = (
"211 296 LINE",
"301 456 LINE",
"475 456 LINE",
"565 296 LINE",
"473 138 LINE",
"301 138 LINE"
);
},
{
closed = 1;
nodes = (
"587 256 LINE",
"655 138 LINE",
"517 138 LINE"
);
},
{
closed = 1;
nodes = (
"387 608 LINE",
"453 494 LINE",
"323 494 LINE"
);
},
{
closed = 1;
nodes = (
"519 456 LINE",
"655 456 LINE",
"587 338 LINE"
);
}
);
width = 774;
}
);
note = uni2721;
unicode = 2721;
},
{
glyphname = uni2722;
lastChange = "2016-08-19 02:48:46 +0000";
layers = (
{
layerId = "6E183CFB-E55F-4C96-8804-AC4D4AF4B24B";
paths = (
{
closed = 1;
nodes = (
"503 -54 OFFCURVE",
"537 -14 OFFCURVE",
"537 42 CURVE SMOOTH",
"537 72 OFFCURVE",
"530 98 OFFCURVE",
"503 152 CURVE SMOOTH",
"483 194 LINE SMOOTH",
"467 229 OFFCURVE",
"456 271 OFFCURVE",
"451 320 CURVE",
"500 315 OFFCURVE",
"542 304 OFFCURVE",
"577 288 CURVE SMOOTH",
"619 269 LINE SMOOTH",
"668 245 OFFCURVE",
"699 236 OFFCURVE",
"731 236 CURVE SMOOTH",
"783 236 OFFCURVE",
"825 271 OFFCURVE",
"825 334 CURVE SMOOTH",
"825 396 OFFCURVE",
"784 432 OFFCURVE",
"731 432 CURVE SMOOTH",
"701 432 OFFCURVE",
"664 421 OFFCURVE",
"619 400 CURVE SMOOTH",
"577 380 LINE SMOOTH",
"538 362 OFFCURVE",
"496 351 OFFCURVE",
"451 346 CURVE",
"458 406 OFFCURVE",
"474 459 OFFCURVE",
"499 507 CURVE SMOOTH",
"524 554 OFFCURVE",
"537 594 OFFCURVE",
"537 626 CURVE SMOOTH",
"537 678 OFFCURVE",
"507 720 OFFCURVE",
"439 720 CURVE SMOOTH",
"370 720 OFFCURVE",
"339 679 OFFCURVE",
"339 626 CURVE SMOOTH",
"339 595 OFFCURVE",
"347 569 OFFCURVE",
"374 514 CURVE SMOOTH",
"393 472 LINE SMOOTH",
"409 437 OFFCURVE",
"420 395 OFFCURVE",
"425 346 CURVE",
"376 351 OFFCURVE",
"326 366 OFFCURVE",
"273 393 CURVE SMOOTH",
"221 419 OFFCURVE",
"178 432 OFFCURVE",
"145 432 CURVE SMOOTH",
"93 432 OFFCURVE",
"51 397 OFFCURVE",
"51 334 CURVE SMOOTH",
"51 271 OFFCURVE",
"92 236 OFFCURVE",
"145 236 CURVE SMOOTH",
"178 236 OFFCURVE",
"208 245 OFFCURVE",
"257 269 CURVE SMOOTH",
"299 288 LINE SMOOTH",
"334 304 OFFCURVE",
"376 315 OFFCURVE",
"425 320 CURVE",
"418 260 OFFCURVE",
"402 207 OFFCURVE",
"377 159 CURVE SMOOTH",
"352 112 OFFCURVE",
"339 73 OFFCURVE",
"339 42 CURVE SMOOTH",
"339 -13 OFFCURVE",
"373 -54 OFFCURVE",
"439 -54 CURVE SMOOTH"
);
}
);
width = 876;
}
);
note = uni2722;
unicode = 2722;
},
{
glyphname = uni2723;
lastChange = "2016-08-19 02:48:46 +0000";
layers = (
{
layerId = "6E183CFB-E55F-4C96-8804-AC4D4AF4B24B";
paths = (
{
closed = 1;
nodes = (
"498 -51 OFFCURVE",
"547 -5 OFFCURVE",
"547 55 CURVE SMOOTH",
"547 88 OFFCURVE",
"530 119 OFFCURVE",
"497 150 CURVE SMOOTH",
"463 180 OFFCURVE",
"447 206 OFFCURVE",
"447 227 CURVE SMOOTH",
"447 263 LINE",
"478 269 OFFCURVE",
"500 291 OFFCURVE",
"505 321 CURVE",
"541 321 LINE SMOOTH",
"570 321 OFFCURVE",
"603 288 OFFCURVE",
"642 250 CURVE SMOOTH",
"661 231 OFFCURVE",
"685 221 OFFCURVE",
"713 221 CURVE SMOOTH",
"772 221 OFFCURVE",
"819 269 OFFCURVE",
"819 333 CURVE SMOOTH",
"819 396 OFFCURVE",
"773 445 OFFCURVE",
"713 445 CURVE SMOOTH",
"681 445 OFFCURVE",
"649 428 OFFCURVE",
"619 394 CURVE SMOOTH",
"588 360 OFFCURVE",
"563 343 OFFCURVE",
"541 343 CURVE SMOOTH",
"505 343 LINE",
"500 374 OFFCURVE",
"478 396 OFFCURVE",
"447 401 CURVE",
"447 437 LINE SMOOTH",
"447 458 OFFCURVE",
"463 484 OFFCURVE",
"497 515 CURVE SMOOTH",
"530 545 OFFCURVE",
"547 577 OFFCURVE",
"547 611 CURVE SMOOTH",
"547 670 OFFCURVE",
"499 717 OFFCURVE",
"435 717 CURVE SMOOTH",
"372 717 OFFCURVE",
"323 671 OFFCURVE",
"323 611 CURVE SMOOTH",
"323 578 OFFCURVE",
"335 551 OFFCURVE",
"364 524 CURVE",
"385 503 LINE SMOOTH",
"412 476 OFFCURVE",
"425 454 OFFCURVE",
"425 437 CURVE SMOOTH",
"425 401 LINE",
"395 396 OFFCURVE",
"371 374 OFFCURVE",
"365 343 CURVE",
"329 343 LINE SMOOTH",
"300 343 OFFCURVE",
"268 375 OFFCURVE",
"229 415 CURVE SMOOTH",
"209 435 OFFCURVE",
"186 445 OFFCURVE",
"157 445 CURVE SMOOTH",
"97 445 OFFCURVE",
"51 397 OFFCURVE",
"51 333 CURVE SMOOTH",
"51 269 OFFCURVE",
"97 221 OFFCURVE",
"157 221 CURVE SMOOTH",
"192 221 OFFCURVE",
"217 235 OFFCURVE",
"245 266 CURVE SMOOTH",
"273 297 OFFCURVE",
"306 321 OFFCURVE",
"329 321 CURVE SMOOTH",
"365 321 LINE",
"371 291 OFFCURVE",
"395 269 OFFCURVE",
"425 263 CURVE",
"425 227 LINE SMOOTH",
"425 205 OFFCURVE",
"402 176 OFFCURVE",
"368 144 CURVE SMOOTH",
"334 112 OFFCURVE",
"323 88 OFFCURVE",
"323 55 CURVE SMOOTH",
"323 -4 OFFCURVE",
"371 -51 OFFCURVE",
"435 -51 CURVE SMOOTH"
);
}
);
width = 870;
}
);
note = uni2723;
unicode = 2723;
},
{
glyphname = uni2724;
lastChange = "2016-08-19 02:48:46 +0000";
layers = (
{
layerId = "6E183CFB-E55F-4C96-8804-AC4D4AF4B24B";
paths = (
{
closed = 1;
nodes = (
"512 -51 OFFCURVE",
"573 11 OFFCURVE",
"573 87 CURVE SMOOTH",
"573 139 OFFCURVE",
"553 182 OFFCURVE",
"512 215 CURVE SMOOTH",
"472 249 OFFCURVE",
"451 278 OFFCURVE",
"451 301 CURVE SMOOTH",
"451 319 LINE",
"467 319 LINE SMOOTH",
"485 319 OFFCURVE",
"504 308 OFFCURVE",
"526 285 CURVE SMOOTH",
"547 262 LINE",
"571 231 OFFCURVE",
"617 195 OFFCURVE",
"681 195 CURVE SMOOTH",
"757 195 OFFCURVE",
"819 257 OFFCURVE",
"819 333 CURVE SMOOTH",
"819 410 OFFCURVE",
"757 471 OFFCURVE",
"681 471 CURVE SMOOTH",
"630 471 OFFCURVE",
"587 451 OFFCURVE",
"553 410 CURVE SMOOTH",
"519 370 OFFCURVE",
"490 349 OFFCURVE",
"467 349 CURVE SMOOTH",
"451 349 LINE",
"451 365 LINE SMOOTH",
"451 388 OFFCURVE",
"472 416 OFFCURVE",
"512 451 CURVE SMOOTH",
"553 485 OFFCURVE",
"573 528 OFFCURVE",
"573 579 CURVE SMOOTH",
"573 654 OFFCURVE",
"511 717 OFFCURVE",
"435 717 CURVE SMOOTH",
"358 717 OFFCURVE",
"297 655 OFFCURVE",
"297 579 CURVE SMOOTH",
"297 517 OFFCURVE",
"329 474 OFFCURVE",
"364 445 CURVE",
"387 424 LINE SMOOTH",
"410 402 OFFCURVE",
"421 383 OFFCURVE",
"421 365 CURVE SMOOTH",
"421 349 LINE",
"403 349 LINE SMOOTH",
"381 349 OFFCURVE",
"352 370 OFFCURVE",
"317 410 CURVE SMOOTH",
"283 451 OFFCURVE",
"240 471 OFFCURVE",
"189 471 CURVE SMOOTH",
"113 471 OFFCURVE",
"51 409 OFFCURVE",
"51 333 CURVE SMOOTH",
"51 257 OFFCURVE",
"113 195 OFFCURVE",
"189 195 CURVE SMOOTH",
"239 195 OFFCURVE",
"282 215 OFFCURVE",
"318 257 CURVE SMOOTH",
"354 298 OFFCURVE",
"382 319 OFFCURVE",
"403 319 CURVE SMOOTH",
"421 319 LINE",
"421 301 LINE SMOOTH",
"421 283 OFFCURVE",
"410 264 OFFCURVE",
"387 242 CURVE SMOOTH",
"364 221 LINE",
"325 189 OFFCURVE",
"297 146 OFFCURVE",
"297 87 CURVE SMOOTH",
"297 11 OFFCURVE",
"359 -51 OFFCURVE",
"435 -51 CURVE SMOOTH"
);
}
);
width = 870;
}
);
note = uni2724;
unicode = 2724;
},
{
glyphname = uni2725;
lastChange = "2016-08-19 02:48:46 +0000";
layers = (
{
layerId = "6E183CFB-E55F-4C96-8804-AC4D4AF4B24B";
paths = (
{
closed = 1;
nodes = (
"480 -55 OFFCURVE",
"513 -22 OFFCURVE",
"513 19 CURVE SMOOTH",
"513 27 OFFCURVE",
"512 35 OFFCURVE",
"509 43 CURVE",
"546 48 OFFCURVE",
"573 77 OFFCURVE",
"573 115 CURVE SMOOTH",
"573 156 OFFCURVE",
"540 189 OFFCURVE",
"499 189 CURVE SMOOTH",
"482 189 OFFCURVE",
"466 184 OFFCURVE",
"453 173 CURVE",
"457 313 LINE",
"597 317 LINE",
"585 302 OFFCURVE",
"579 287 OFFCURVE",
"579 271 CURVE SMOOTH",
"579 230 OFFCURVE",
"611 197 OFFCURVE",
"653 197 CURVE SMOOTH",
"690 197 OFFCURVE",
"722 223 OFFCURVE",
"727 261 CURVE",
"735 258 OFFCURVE",
"743 257 OFFCURVE",
"751 257 CURVE SMOOTH",
"792 257 OFFCURVE",
"825 290 OFFCURVE",
"825 331 CURVE SMOOTH",
"825 374 OFFCURVE",
"792 405 OFFCURVE",
"751 405 CURVE SMOOTH",
"745 405 OFFCURVE",
"736 403 OFFCURVE",
"727 401 CURVE",
"721 440 OFFCURVE",
"688 467 OFFCURVE",
"653 467 CURVE SMOOTH",
"612 467 OFFCURVE",
"579 434 OFFCURVE",
"579 393 CURVE SMOOTH",
"579 376 OFFCURVE",
"585 360 OFFCURVE",
"597 345 CURVE",
"457 351 LINE",
"453 489 LINE",
"467 479 OFFCURVE",
"482 473 OFFCURVE",
"499 473 CURVE SMOOTH",
"540 473 OFFCURVE",
"573 505 OFFCURVE",
"573 547 CURVE SMOOTH",
"573 583 OFFCURVE",
"548 615 OFFCURVE",
"509 621 CURVE",
"512 629 OFFCURVE",
"513 637 OFFCURVE",
"513 645 CURVE SMOOTH",
"513 686 OFFCURVE",
"480 719 OFFCURVE",
"439 719 CURVE SMOOTH",
"396 719 OFFCURVE",
"365 686 OFFCURVE",
"365 645 CURVE SMOOTH",
"365 634 OFFCURVE",
"366 626 OFFCURVE",
"367 621 CURVE",
"328 616 OFFCURVE",
"303 583 OFFCURVE",
"303 547 CURVE SMOOTH",
"303 506 OFFCURVE",
"336 473 OFFCURVE",
"377 473 CURVE SMOOTH",
"394 473 OFFCURVE",
"409 479 OFFCURVE",
"423 489 CURVE",
"419 351 LINE",
"281 347 LINE",
"292 360 OFFCURVE",
"297 376 OFFCURVE",
"297 393 CURVE SMOOTH",
"297 434 OFFCURVE",
"264 467 OFFCURVE",
"223 467 CURVE SMOOTH",
"188 467 OFFCURVE",
"155 440 OFFCURVE",
"149 401 CURVE",
"140 403 OFFCURVE",
"131 405 OFFCURVE",
"125 405 CURVE SMOOTH",
"84 405 OFFCURVE",
"51 373 OFFCURVE",
"51 331 CURVE SMOOTH",
"51 290 OFFCURVE",
"84 257 OFFCURVE",
"125 257 CURVE SMOOTH",
"133 257 OFFCURVE",
"141 258 OFFCURVE",
"149 261 CURVE",
"154 222 OFFCURVE",
"187 197 OFFCURVE",
"223 197 CURVE SMOOTH",
"266 197 OFFCURVE",
"297 230 OFFCURVE",
"297 271 CURVE SMOOTH",
"297 288 OFFCURVE",
"292 304 OFFCURVE",
"281 317 CURVE",
"419 313 LINE",
"423 173 LINE",
"410 184 OFFCURVE",
"394 189 OFFCURVE",
"377 189 CURVE SMOOTH",
"334 189 OFFCURVE",
"303 155 OFFCURVE",
"303 115 CURVE SMOOTH",
"303 77 OFFCURVE",
"330 48 OFFCURVE",
"367 43 CURVE",
"366 38 OFFCURVE",
"365 30 OFFCURVE",
"365 19 CURVE SMOOTH",
"365 -22 OFFCURVE",
"397 -55 OFFCURVE",
"439 -55 CURVE SMOOTH"
);
}
);
width = 876;
}
);
note = uni2725;
unicode = 2725;
},
{
glyphname = uni2726;
lastChange = "2016-08-19 02:48:46 +0000";
layers = (
{
layerId = "6E183CFB-E55F-4C96-8804-AC4D4AF4B24B";
paths = (
{
closed = 1;
nodes = (
"457 -84 LINE",
"464 -41 OFFCURVE",
"483 6 OFFCURVE",
"515 57 CURVE SMOOTH",
"579 158 OFFCURVE",
"708 257 OFFCURVE",
"819 280 CURVE",
"819 322 LINE",
"764 334 OFFCURVE",
"710 359 OFFCURVE",
"658 396 CURVE SMOOTH",
"552 471 OFFCURVE",
"474 583 OFFCURVE",
"457 684 CURVE",
"415 684 LINE",
"405 631 OFFCURVE",
"382 580 OFFCURVE",
"346 528 CURVE SMOOTH",
"273 426 OFFCURVE",
"164 349 OFFCURVE",
"51 322 CURVE",
"51 280 LINE",
"108 268 OFFCURVE",
"166 240 OFFCURVE",
"223 197 CURVE SMOOTH",
"338 109 OFFCURVE",
"400 2 OFFCURVE",
"415 -84 CURVE"
);
}
);
width = 870;
}
);
note = uni2726;
unicode = 2726;
},
{
glyphname = uni2727;
lastChange = "2016-08-19 02:48:46 +0000";
layers = (
{
layerId = "6E183CFB-E55F-4C96-8804-AC4D4AF4B24B";
paths = (
{
closed = 1;
nodes = (
"455 -84 LINE",
"462 -40 OFFCURVE",
"482 7 OFFCURVE",
"514 58 CURVE SMOOTH",
"578 158 OFFCURVE",
"706 257 OFFCURVE",
"819 280 CURVE",
"819 322 LINE",
"763 334 OFFCURVE",
"709 359 OFFCURVE",
"657 396 CURVE SMOOTH",
"551 470 OFFCURVE",
"472 582 OFFCURVE",
"455 684 CURVE",
"413 684 LINE",
"403 630 OFFCURVE",
"380 578 OFFCURVE",
"344 527 CURVE SMOOTH",
"271 426 OFFCURVE",
"162 347 OFFCURVE",
"51 322 CURVE",
"51 280 LINE",
"106 269 OFFCURVE",
"163 241 OFFCURVE",
"221 197 CURVE SMOOTH",
"337 109 OFFCURVE",
"399 2 OFFCURVE",
"413 -84 CURVE"
);
},
{
closed = 1;
nodes = (
"419 36 OFFCURVE",
"388 151 OFFCURVE",
"351 216 CURVE",
"283 254 OFFCURVE",
"166 285 OFFCURVE",
"75 292 CURVE",
"75 306 LINE",
"167 313 OFFCURVE",
"287 347 OFFCURVE",
"351 384 CURVE",
"389 451 OFFCURVE",
"419 564 OFFCURVE",
"427 658 CURVE",
"441 658 LINE",
"451 554 OFFCURVE",
"482 444 OFFCURVE",
"517 384 CURVE",
"579 347 OFFCURVE",
"705 313 OFFCURVE",
"793 306 CURVE",
"793 292 LINE",
"705 286 OFFCURVE",
"584 254 OFFCURVE",
"517 216 CURVE",
"482 157 OFFCURVE",
"451 44 OFFCURVE",
"441 -60 CURVE",
"427 -60 LINE"
);
}
);
width = 870;
}
);
note = uni2727;
unicode = 2727;
},
{
glyphname = uni2729;
lastChange = "2016-08-19 02:48:46 +0000";
layers = (
{
layerId = "6E183CFB-E55F-4C96-8804-AC4D4AF4B24B";
paths = (
{
closed = 1;
nodes = (
"447 98 LINE",
"703 -70 LINE",
"619 219 LINE",
"843 382 LINE",
"561 397 LINE",
"447 698 LINE",
"331 397 LINE",
"51 382 LINE",
"275 219 LINE",
"189 -70 LINE"
);
},
{
closed = 1;
nodes = (
"327 236 LINE",
"126 362 LINE",
"363 356 LINE",
"447 631 LINE",
"529 356 LINE",
"768 362 LINE",
"567 236 LINE",
"660 -12 LINE",
"447 158 LINE",
"232 -12 LINE"
);
}
);
width = 894;
}
);
note = uni2729;
unicode = 2729;
},
{
glyphname = uni272A;
lastChange = "2016-08-19 02:48:46 +0000";
layers = (
{
layerId = "6E183CFB-E55F-4C96-8804-AC4D4AF4B24B";
paths = (
{
closed = 1;
nodes = (
"480 -74 OFFCURVE",
"541 -58 OFFCURVE",
"597 -26 CURVE SMOOTH",
"710 39 OFFCURVE",
"781 159 OFFCURVE",
"781 292 CURVE SMOOTH",
"781 358 OFFCURVE",
"764 419 OFFCURVE",
"731 476 CURVE SMOOTH",
"665 588 OFFCURVE",
"545 656 OFFCURVE",
"415 656 CURVE SMOOTH",
"350 656 OFFCURVE",
"290 640 OFFCURVE",
"233 608 CURVE SMOOTH",
"121 543 OFFCURVE",
"51 423 OFFCURVE",
"51 292 CURVE SMOOTH",
"51 226 OFFCURVE",
"67 165 OFFCURVE",
"100 108 CURVE SMOOTH",
"166 -5 OFFCURVE",
"285 -74 OFFCURVE",
"415 -74 CURVE SMOOTH"
);
},
{
closed = 1;
nodes = (
"293 250 LINE",
"109 374 LINE",
"335 374 LINE",
"415 618 LINE",
"497 374 LINE",
"723 374 LINE",
"539 250 LINE",
"615 24 LINE",
"415 168 LINE",
"217 24 LINE"
);
}
);
width = 832;
}
);
note = uni272A;
unicode = 272A;
},
{
glyphname = uni272B;
lastChange = "2016-08-19 02:48:46 +0000";
layers = (
{
layerId = "6E183CFB-E55F-4C96-8804-AC4D4AF4B24B";
paths = (
{
closed = 1;
nodes = (
"455 116 LINE",
"717 -76 LINE",
"617 224 LINE",
"859 400 LINE",
"563 386 LINE",
"455 708 LINE",
"349 386 LINE",
"51 400 LINE",
"293 224 LINE",
"193 -76 LINE"
);
},
{
closed = 1;
nodes = (
"391 159 OFFCURVE",
"343 209 OFFCURVE",
"343 271 CURVE SMOOTH",
"343 334 OFFCURVE",
"393 385 OFFCURVE",
"455 385 CURVE SMOOTH",
"518 385 OFFCURVE",
"569 333 OFFCURVE",
"569 271 CURVE SMOOTH",
"569 209 OFFCURVE",
"519 159 OFFCURVE",
"455 159 CURVE SMOOTH"
);
}
);
width = 910;
}
);
note = uni272B;
unicode = 272B;
},
{
glyphname = uni272C;
lastChange = "2016-08-19 02:48:46 +0000";
layers = (
{
layerId = "6E183CFB-E55F-4C96-8804-AC4D4AF4B24B";
paths = (
{
closed = 1;
nodes = (
"447 96 LINE",
"703 -72 LINE",
"625 220 LINE",
"843 382 LINE",
"557 398 LINE",
"447 698 LINE",
"335 398 LINE",
"51 382 LINE",
"259 220 LINE",
"189 -72 LINE"
);
},
{
closed = 1;
nodes = (
"503 170 OFFCURVE",
"549 216 OFFCURVE",
"549 272 CURVE SMOOTH",
"549 329 OFFCURVE",
"503 374 OFFCURVE",
"447 374 CURVE SMOOTH",
"391 374 OFFCURVE",
"345 328 OFFCURVE",
"345 272 CURVE SMOOTH",
"345 217 OFFCURVE",
"392 170 OFFCURVE",
"447 170 CURVE SMOOTH"
);
},
{
closed = 1;
nodes = (
"327 228 LINE",
"95 368 LINE",
"359 344 LINE",
"447 652 LINE",
"533 344 LINE",
"799 368 LINE",
"567 228 LINE",
"677 -36 LINE",
"447 162 LINE",
"217 -36 LINE"
);
}
);
width = 894;
}
);
note = uni272C;
unicode = 272C;
},
{
glyphname = uni272D;
lastChange = "2016-08-19 02:48:46 +0000";
layers = (
{
layerId = "6E183CFB-E55F-4C96-8804-AC4D4AF4B24B";
paths = (
{
closed = 1;
nodes = (
"459 124 LINE",
"725 -70 LINE",
"623 234 LINE",
"867 396 LINE",
"569 396 LINE",
"459 722 LINE",
"351 396 LINE",
"51 396 LINE",
"297 234 LINE",
"195 -70 LINE"
);
},
{
closed = 1;
nodes = (
"337 246 LINE",
"145 368 LINE",
"373 368 LINE",
"459 634 LINE",
"543 368 LINE",
"775 368 LINE",
"583 246 LINE",
"667 10 LINE",
"459 164 LINE",
"251 10 LINE"
);
},
{
closed = 1;
nodes = (
"459 196 LINE",
"621 76 LINE",
"553 256 LINE",
"699 346 LINE",
"527 346 LINE",
"459 564 LINE",
"393 346 LINE",
"221 346 LINE",
"367 256 LINE",
"299 76 LINE"
);
}
);
width = 918;
}
);
note = uni272D;
unicode = 272D;
},
{
glyphname = uni272E;
lastChange = "2016-08-19 02:48:46 +0000";
layers = (
{
layerId = "6E183CFB-E55F-4C96-8804-AC4D4AF4B24B";
paths = (
{
closed = 1;
nodes = (
"449 111 LINE",
"713 -77 LINE",
"639 235 LINE",
"847 415 LINE",
"567 435 LINE",
"449 713 LINE",
"331 435 LINE",
"51 415 LINE",
"261 235 LINE",
"185 -77 LINE"
);
},
{
closed = 1;
nodes = (
"449 243 LINE",
"563 145 LINE",
"519 277 LINE",
"637 347 LINE",
"493 347 LINE",
"449 483 LINE",
"405 347 LINE",
"262 347 LINE",
"379 277 LINE",
"335 145 LINE"
);
},
{
closed = 1;
nodes = (
"327 259 LINE",
"169 375 LINE",
"373 381 LINE",
"449 591 LINE",
"525 381 LINE",
"729 375 LINE",
"573 259 LINE",
"623 49 LINE",
"449 187 LINE",
"275 49 LINE"
);
}
);
width = 898;
}
);
note = uni272E;
unicode = 272E;
},
{
glyphname = uni272F;
lastChange = "2016-08-19 02:48:46 +0000";
layers = (
{
layerId = "6E183CFB-E55F-4C96-8804-AC4D4AF4B24B";
paths = (
{
closed = 1;
nodes = (
"447 118 LINE",
"705 -70 LINE",
"605 224 LINE",
"843 382 LINE",
"553 382 LINE",
"447 698 LINE",
"343 382 LINE",
"51 382 LINE",
"289 224 LINE",
"191 -70 LINE"
);
},
{
closed = 1;
nodes = (
"447 262 LINE",
"447 150 LINE",
"243 0 LINE"
);
},
{
closed = 1;
nodes = (
"125 360 LINE",
"435 276 LINE",
"319 238 LINE"
);
},
{
closed = 1;
nodes = (
"459 264 LINE",
"577 224 LINE",
"663 -14 LINE"
);
},
{
closed = 1;
nodes = (
"369 380 LINE",
"447 632 LINE",
"447 292 LINE"
);
},
{
closed = 1;
nodes = (
"535 358 LINE",
"773 362 LINE",
"459 278 LINE"
);
}
);
width = 894;
}
);
note = uni272F;
unicode = 272F;
},
{
glyphname = uni2730;
lastChange = "2016-08-19 02:48:46 +0000";
layers = (
{
layerId = "6E183CFB-E55F-4C96-8804-AC4D4AF4B24B";
paths = (
{
closed = 1;
nodes = (
"477 90 LINE",
"627 -22 LINE",
"739 -26 LINE",
"657 214 LINE",
"863 364 LINE",
"793 384 LINE",
"599 384 LINE",
"515 636 LINE",
"407 668 LINE",
"313 384 LINE",
"51 384 LINE",
"265 242 LINE",
"175 -22 LINE",
"293 -52 LINE"
);
},
{
closed = 1;
nodes = (
"305 248 LINE",
"131 360 LINE",
"339 360 LINE",
"417 612 LINE",
"493 360 LINE",
"703 360 LINE",
"529 248 LINE",
"605 34 LINE",
"417 174 LINE",
"229 34 LINE"
);
}
);
width = 914;
}
);
note = uni2730;
unicode = 2730;
},
{
glyphname = uni2731;
lastChange = "2016-08-19 02:48:46 +0000";
layers = (
{
layerId = "6E183CFB-E55F-4C96-8804-AC4D4AF4B24B";
paths = (
{
closed = 1;
nodes = (
"461 -4 LINE",
"461 216 LINE",
"651 106 LINE",
"723 232 LINE",
"533 342 LINE",
"723 452 LINE",
"651 578 LINE",
"461 468 LINE",
"461 688 LINE",
"315 688 LINE",
"315 468 LINE",
"123 578 LINE",
"51 452 LINE",
"241 342 LINE",
"51 232 LINE",
"123 106 LINE",
"315 216 LINE",
"315 -4 LINE"
);
}
);
width = 774;
}
);
note = uni2731;
unicode = 2731;
},
{
glyphname = uni2732;
lastChange = "2016-08-19 02:48:46 +0000";
layers = (
{
layerId = "6E183CFB-E55F-4C96-8804-AC4D4AF4B24B";
paths = (
{
closed = 1;
nodes = (
"739 200 LINE",
"509 331 LINE",
"451 232 LINE",
"681 100 LINE"
);
},
{
closed = 1;
nodes = (
"337 232 LINE",
"279 331 LINE",
"51 200 LINE",
"109 100 LINE"
);
},
{
closed = 1;
nodes = (
"451 -32 LINE",
"451 231 LINE",
"337 231 LINE",
"337 -32 LINE"
);
},
{
closed = 1;
nodes = (
"336 432 LINE",
"109 564 LINE",
"51 464 LINE",
"279 332 LINE"
);
},
{
closed = 1;
nodes = (
"453 432 LINE",
"453 696 LINE",
"337 696 LINE",
"337 432 LINE"
);
},
{
closed = 1;
nodes = (
"739 464 LINE",
"681 564 LINE",
"453 431 LINE",
"509 332 LINE"
);
}
);
width = 790;
}
);
note = uni2732;
unicode = 2732;
},
{
glyphname = uni2733;
lastChange = "2016-08-19 02:48:46 +0000";
layers = (
{
layerId = "6E183CFB-E55F-4C96-8804-AC4D4AF4B24B";
paths = (
{
closed = 1;
nodes = (
"449 -27 LINE",
"441 295 LINE",
"663 61 LINE",
"703 101 LINE",
"469 323 LINE",
"791 315 LINE",
"791 371 LINE",
"469 363 LINE",
"703 585 LINE",
"663 625 LINE",
"441 391 LINE",
"449 713 LINE",
"393 713 LINE",
"401 391 LINE",
"179 625 LINE",
"139 585 LINE",
"373 363 LINE",
"51 371 LINE",
"51 315 LINE",
"373 323 LINE",
"139 101 LINE",
"179 61 LINE",
"401 295 LINE",
"393 -27 LINE"
);
}
);
width = 842;
}
);
note = uni2733;
unicode = 2733;
},
{
glyphname = uni2734;
lastChange = "2016-08-19 02:48:46 +0000";
layers = (
{
layerId = "6E183CFB-E55F-4C96-8804-AC4D4AF4B24B";
paths = (
{
closed = 1;
nodes = (
"451 -44 LINE",
"471 266 LINE",
"703 60 LINE",
"721 78 LINE",
"515 310 LINE",
"825 330 LINE",
"825 354 LINE",
"515 374 LINE",
"721 608 LINE",
"703 626 LINE",
"471 420 LINE",
"451 730 LINE",
"427 730 LINE",
"405 420 LINE",
"173 626 LINE",
"155 608 LINE",
"361 374 LINE",
"51 354 LINE",
"51 330 LINE",
"361 310 LINE",
"155 78 LINE",
"173 60 LINE",
"405 266 LINE",
"425 -44 LINE"
);
}
);
width = 876;
}
);
note = uni2734;
unicode = 2734;
},
{
glyphname = uni2735;
lastChange = "2016-08-19 02:48:46 +0000";
layers = (
{
layerId = "6E183CFB-E55F-4C96-8804-AC4D4AF4B24B";
paths = (
{
closed = 1;
nodes = (
"451 -45 LINE",
"499 199 LINE",
"707 61 LINE",
"723 75 LINE",
"585 283 LINE",
"829 331 LINE",
"829 353 LINE",
"585 403 LINE",
"723 609 LINE",
"707 625 LINE",
"499 487 LINE",
"451 731 LINE",
"429 731 LINE",
"381 487 LINE",
"173 625 LINE",
"157 609 LINE",
"295 403 LINE",
"51 353 LINE",
"51 331 LINE",
"295 283 LINE",
"157 75 LINE",
"173 61 LINE",
"381 199 LINE",
"429 -45 LINE"
);
},
{
closed = 1;
nodes = (
"417 321 LINE",
"381 221 LINE",
"203 107 LINE"
);
},
{
closed = 1;
nodes = (
"105 343 LINE",
"409 343 LINE",
"313 299 LINE"
);
},
{
closed = 1;
nodes = (
"439 311 LINE",
"483 215 LINE",
"439 9 LINE"
);
},
{
closed = 1;
nodes = (
"319 403 LINE",
"203 579 LINE",
"417 365 LINE"
);
},
{
closed = 1;
nodes = (
"463 321 LINE",
"561 283 LINE",
"677 107 LINE"
);
},
{
closed = 1;
nodes = (
"397 471 LINE",
"439 677 LINE",
"439 375 LINE"
);
},
{
closed = 1;
nodes = (
"567 385 LINE",
"775 343 LINE",
"471 343 LINE"
);
},
{
closed = 1;
nodes = (
"499 463 LINE",
"677 579 LINE",
"463 365 LINE"
);
}
);
width = 880;
}
);
note = uni2735;
unicode = 2735;
},
{
glyphname = uni2736;
lastChange = "2016-08-19 02:48:46 +0000";
layers = (
{
layerId = "6E183CFB-E55F-4C96-8804-AC4D4AF4B24B";
paths = (
{
closed = 1;
nodes = (
"403 -76 LINE",
"453 216 LINE",
"731 112 LINE",
"739 126 LINE",
"511 316 LINE",
"739 504 LINE",
"731 518 LINE",
"453 416 LINE",
"403 708 LINE",
"387 708 LINE",
"337 416 LINE",
"59 518 LINE",
"51 504 LINE",
"279 316 LINE",
"51 126 LINE",
"59 112 LINE",
"337 216 LINE",
"387 -76 LINE"
);
}
);
width = 790;
}
);
note = uni2736;
unicode = 2736;
},
{
glyphname = uni2737;
lastChange = "2016-08-19 02:48:46 +0000";
layers = (
{
layerId = "6E183CFB-E55F-4C96-8804-AC4D4AF4B24B";
paths = (
{
closed = 1;
nodes = (
"431 145 LINE",
"583 -63 LINE",
"601 -55 LINE",
"549 199 LINE",
"801 145 LINE",
"809 163 LINE",
"601 317 LINE",
"809 469 LINE",
"801 487 LINE",
"549 435 LINE",
"601 687 LINE",
"583 695 LINE",
"431 487 LINE",
"277 695 LINE",
"259 687 LINE",
"313 435 LINE",
"59 487 LINE",
"51 469 LINE",
"259 317 LINE",
"51 163 LINE",
"59 145 LINE",
"313 199 LINE",
"259 -55 LINE",
"277 -63 LINE"
);
}
);
width = 860;
}
);
note = uni2737;
unicode = 2737;
},
{
glyphname = uni2738;
lastChange = "2016-08-19 02:48:46 +0000";
layers = (
{
layerId = "6E183CFB-E55F-4C96-8804-AC4D4AF4B24B";
paths = (
{
closed = 1;
nodes = (
"423 140 LINE",
"577 -50 LINE",
"555 192 LINE",
"795 164 LINE",
"613 322 LINE",
"795 482 LINE",
"555 452 LINE",
"577 694 LINE",
"423 506 LINE",
"271 694 LINE",
"291 452 LINE",
"51 482 LINE",
"233 322 LINE",
"51 164 LINE",
"291 192 LINE",
"271 -50 LINE"
);
}
);
width = 846;
}
);
note = uni2738;
unicode = 2738;
},
{
glyphname = uni2739;
lastChange = "2016-08-19 02:48:46 +0000";
layers = (
{
layerId = "6E183CFB-E55F-4C96-8804-AC4D4AF4B24B";
paths = (
{
closed = 1;
nodes = (
"487 132 LINE",
"629 -14 LINE",
"575 182 LINE",
"771 128 LINE",
"625 270 LINE",
"821 320 LINE",
"625 372 LINE",
"771 514 LINE",
"575 460 LINE",
"629 654 LINE",
"487 510 LINE",
"435 706 LINE",
"385 510 LINE",
"243 654 LINE",
"297 460 LINE",
"101 514 LINE",
"247 372 LINE",
"51 320 LINE",
"247 270 LINE",
"101 128 LINE",
"297 182 LINE",
"243 -14 LINE",
"385 132 LINE",
"435 -66 LINE"
);
}
);
width = 872;
}
);
note = uni2739;
unicode = 2739;
},
{
glyphname = uni273A;
lastChange = "2016-08-19 02:48:46 +0000";
layers = (
{
layerId = "6E183CFB-E55F-4C96-8804-AC4D4AF4B24B";
paths = (
{
closed = 1;
nodes = (
"445 -48 LINE",
"429 240 LINE",
"527 -32 LINE",
"581 -10 LINE",
"457 252 LINE",
"651 36 LINE",
"693 80 LINE",
"479 272 LINE",
"739 148 LINE",
"763 204 LINE",
"489 300 LINE",
"779 286 LINE",
"779 346 LINE",
"489 330 LINE",
"763 428 LINE",
"739 482 LINE",
"479 358 LINE",
"693 552 LINE",
"651 594 LINE",
"457 380 LINE",
"581 640 LINE",
"527 664 LINE",
"429 392 LINE",
"445 680 LINE",
"385 680 LINE",
"399 390 LINE",
"303 664 LINE",
"247 640 LINE",
"371 380 LINE",
"179 594 LINE",
"135 552 LINE",
"351 358 LINE",
"89 482 LINE",
"67 428 LINE",
"339 330 LINE",
"51 346 LINE",
"51 286 LINE",
"339 300 LINE",
"67 204 LINE",
"89 148 LINE",
"351 272 LINE",
"135 80 LINE",
"179 36 LINE",
"371 252 LINE",
"247 -10 LINE",
"303 -32 LINE",
"399 240 LINE",
"385 -48 LINE"
);
}
);
width = 830;
}
);
note = uni273A;
unicode = 273A;
},
{
glyphname = uni273B;
lastChange = "2016-08-19 02:48:46 +0000";
layers = (
{
layerId = "6E183CFB-E55F-4C96-8804-AC4D4AF4B24B";
paths = (
{
closed = 1;
nodes = (
"190 486 LINE SMOOTH",
"161 518 OFFCURVE",
"135 534 OFFCURVE",
"111 534 CURVE SMOOTH",
"78 534 OFFCURVE",
"51 493 OFFCURVE",
"51 463 CURVE SMOOTH",
"51 428 OFFCURVE",
"97 401 OFFCURVE",
"136 396 CURVE",
"290 368 LINE"
);
},
{
closed = 1;
nodes = (
"135 98 OFFCURVE",
"162 114 OFFCURVE",
"190 146 CURVE SMOOTH",
"290 264 LINE",
"136 236 LINE",
"97 230 OFFCURVE",
"51 204 OFFCURVE",
"51 169 CURVE SMOOTH",
"51 140 OFFCURVE",
"75 98 OFFCURVE",
"110 98 CURVE SMOOTH"
);
},
{
closed = 1;
nodes = (
"417 -44 OFFCURVE",
"438 -23 OFFCURVE",
"438 18 CURVE SMOOTH",
"438 36 OFFCURVE",
"435 54 OFFCURVE",
"428 72 CURVE SMOOTH",
"376 218 LINE",
"322 72 LINE SMOOTH",
"315 56 OFFCURVE",
"312 40 OFFCURVE",
"312 24 CURVE SMOOTH",
"312 -21 OFFCURVE",
"333 -44 OFFCURVE",
"376 -44 CURVE SMOOTH"
);
},
{
closed = 1;
nodes = (
"417 242 OFFCURVE",
"450 274 OFFCURVE",
"450 316 CURVE SMOOTH",
"450 357 OFFCURVE",
"417 390 OFFCURVE",
"376 390 CURVE SMOOTH",
"335 390 OFFCURVE",
"302 357 OFFCURVE",
"302 316 CURVE SMOOTH",
"302 273 OFFCURVE",
"335 242 OFFCURVE",
"376 242 CURVE SMOOTH"
);
},
{
closed = 1;
nodes = (
"675 98 OFFCURVE",
"699 138 OFFCURVE",
"699 169 CURVE SMOOTH",
"699 204 OFFCURVE",
"653 230 OFFCURVE",
"614 236 CURVE",
"462 264 LINE",
"562 146 LINE",
"582 119 OFFCURVE",
"615 98 OFFCURVE",
"639 98 CURVE SMOOTH"
);
},
{
closed = 1;
nodes = (
"428 560 LINE",
"435 576 OFFCURVE",
"438 594 OFFCURVE",
"438 616 CURVE SMOOTH",
"438 656 OFFCURVE",
"417 676 OFFCURVE",
"376 676 CURVE SMOOTH",
"333 676 OFFCURVE",
"312 655 OFFCURVE",
"312 614 CURVE SMOOTH",
"312 596 OFFCURVE",
"315 578 OFFCURVE",
"322 560 CURVE SMOOTH",
"376 414 LINE"
);
},
{
closed = 1;
nodes = (
"614 396 LINE",
"653 401 OFFCURVE",
"699 428 OFFCURVE",
"699 463 CURVE SMOOTH",
"699 493 OFFCURVE",
"672 534 OFFCURVE",
"640 534 CURVE SMOOTH",
"616 534 OFFCURVE",
"584 514 OFFCURVE",
"562 486 CURVE",
"462 368 LINE"
);
}
);
width = 750;
}
);
note = uni273B;
unicode = 273B;
},
{
glyphname = uni273C;
lastChange = "2016-08-19 02:48:46 +0000";
layers = (
{
layerId = "6E183CFB-E55F-4C96-8804-AC4D4AF4B24B";
paths = (
{
closed = 1;
nodes = (
"418 -44 OFFCURVE",
"442 -22 OFFCURVE",
"442 19 CURVE SMOOTH",
"442 22 LINE",
"440 63 OFFCURVE",
"414 146 OFFCURVE",
"404 174 CURVE",
"400 192 LINE",
"400 198 OFFCURVE",
"406 203 OFFCURVE",
"418 207 CURVE",
"431 209 OFFCURVE",
"440 215 OFFCURVE",
"448 223 CURVE SMOOTH",
"456 230 OFFCURVE",
"460 234 OFFCURVE",
"463 234 CURVE SMOOTH",
"466 234 OFFCURVE",
"473 229 OFFCURVE",
"482 218 CURVE",
"528 170 LINE SMOOTH",
"555 142 OFFCURVE",
"577 123 OFFCURVE",
"592 113 CURVE SMOOTH",
"607 103 OFFCURVE",
"621 98 OFFCURVE",
"633 98 CURVE SMOOTH",
"668 98 OFFCURVE",
"698 138 OFFCURVE",
"698 175 CURVE SMOOTH",
"698 206 OFFCURVE",
"673 228 OFFCURVE",
"622 242 CURVE SMOOTH",
"570 255 OFFCURVE",
"543 262 OFFCURVE",
"540 263 CURVE",
"512 270 LINE SMOOTH",
"498 273 OFFCURVE",
"490 278 OFFCURVE",
"490 284 CURVE SMOOTH",
"490 290 OFFCURVE",
"491 295 OFFCURVE",
"492 299 CURVE SMOOTH",
"494 303 OFFCURVE",
"494 309 OFFCURVE",
"494 316 CURVE SMOOTH",
"494 323 OFFCURVE",
"493 329 OFFCURVE",
"492 333 CURVE",
"490 337 OFFCURVE",
"489 342 OFFCURVE",
"489 347 CURVE SMOOTH",
"489 352 OFFCURVE",
"492 354 OFFCURVE",
"497 357 CURVE SMOOTH",
"502 359 OFFCURVE",
"530 366 OFFCURVE",
"578 378 CURVE SMOOTH",
"622 390 LINE SMOOTH",
"670 401 OFFCURVE",
"699 427 OFFCURVE",
"699 456 CURVE SMOOTH",
"699 487 OFFCURVE",
"668 534 OFFCURVE",
"633 534 CURVE SMOOTH",
"619 534 OFFCURVE",
"603 527 OFFCURVE",
"584 514 CURVE SMOOTH",
"565 501 OFFCURVE",
"539 474 OFFCURVE",
"503 435 CURVE SMOOTH",
"484 414 LINE",
"475 404 OFFCURVE",
"468 399 OFFCURVE",
"464 399 CURVE SMOOTH",
"459 399 OFFCURVE",
"454 402 OFFCURVE",
"448 409 CURVE SMOOTH",
"441 416 OFFCURVE",
"432 421 OFFCURVE",
"419 425 CURVE",
"406 429 OFFCURVE",
"400 434 OFFCURVE",
"400 440 CURVE",
"404 458 LINE",
"424 522 LINE SMOOTH",
"435 559 OFFCURVE",
"441 588 OFFCURVE",
"442 610 CURVE",
"442 613 LINE SMOOTH",
"442 654 OFFCURVE",
"418 676 OFFCURVE",
"376 676 CURVE SMOOTH",
"332 676 OFFCURVE",
"308 651 OFFCURVE",
"308 613 CURVE SMOOTH",
"308 610 LINE",
"310 568 OFFCURVE",
"336 486 OFFCURVE",
"346 458 CURVE",
"350 440 LINE",
"350 434 OFFCURVE",
"344 430 OFFCURVE",
"332 426 CURVE SMOOTH",
"320 423 OFFCURVE",
"310 417 OFFCURVE",
"303 410 CURVE SMOOTH",
"295 403 OFFCURVE",
"290 399 OFFCURVE",
"287 399 CURVE SMOOTH",
"283 399 OFFCURVE",
"277 404 OFFCURVE",
"268 414 CURVE",
"222 462 LINE SMOOTH",
"195 490 OFFCURVE",
"174 509 OFFCURVE",
"159 519 CURVE SMOOTH",
"143 529 OFFCURVE",
"129 534 OFFCURVE",
"117 534 CURVE SMOOTH",
"82 534 OFFCURVE",
"51 486 OFFCURVE",
"51 456 CURVE SMOOTH",
"51 427 OFFCURVE",
"80 401 OFFCURVE",
"128 390 CURVE SMOOTH",
"238 362 LINE SMOOTH",
"247 359 OFFCURVE",
"253 357 OFFCURVE",
"257 355 CURVE",
"260 354 OFFCURVE",
"261 351 OFFCURVE",
"261 347 CURVE SMOOTH",
"261 342 OFFCURVE",
"260 337 OFFCURVE",
"259 332 CURVE",
"257 327 OFFCURVE",
"256 322 OFFCURVE",
"256 316 CURVE",
"257 298 LINE",
"259 284 LINE",
"259 278 OFFCURVE",
"254 274 OFFCURVE",
"244 271 CURVE SMOOTH",
"233 269 OFFCURVE",
"207 262 OFFCURVE",
"162 251 CURVE SMOOTH",
"118 241 OFFCURVE",
"88 229 OFFCURVE",
"74 217 CURVE SMOOTH",
"59 204 OFFCURVE",
"52 190 OFFCURVE",
"52 175 CURVE SMOOTH",
"52 137 OFFCURVE",
"85 98 OFFCURVE",
"118 98 CURVE SMOOTH",
"142 98 OFFCURVE",
"168 113 OFFCURVE",
"192 139 CURVE SMOOTH",
"248 197 LINE",
"268 218 LINE",
"277 229 OFFCURVE",
"284 234 OFFCURVE",
"287 234 CURVE SMOOTH",
"290 234 OFFCURVE",
"294 230 OFFCURVE",
"301 223 CURVE",
"308 216 OFFCURVE",
"317 211 OFFCURVE",
"328 208 CURVE",
"341 203 LINE SMOOTH",
"347 201 OFFCURVE",
"350 197 OFFCURVE",
"350 192 CURVE",
"346 174 LINE",
"333 135 OFFCURVE",
"310 63 OFFCURVE",
"308 22 CURVE",
"308 19 LINE SMOOTH",
"308 -20 OFFCURVE",
"332 -44 OFFCURVE",
"376 -44 CURVE SMOOTH"
);
},
{
closed = 1;
nodes = (
"335 242 OFFCURVE",
"302 274 OFFCURVE",
"302 316 CURVE SMOOTH",
"302 357 OFFCURVE",
"335 390 OFFCURVE",
"376 390 CURVE SMOOTH",
"417 390 OFFCURVE",
"450 357 OFFCURVE",
"450 316 CURVE SMOOTH",
"450 273 OFFCURVE",
"417 242 OFFCURVE",
"376 242 CURVE SMOOTH"
);
}
);
width = 750;
}
);
note = uni273C;
unicode = 273C;
},
{
glyphname = uni273D;
lastChange = "2016-08-19 02:48:46 +0000";
layers = (
{
layerId = "6E183CFB-E55F-4C96-8804-AC4D4AF4B24B";
paths = (
{
closed = 1;
nodes = (
"405 -46 OFFCURVE",
"432 -13 OFFCURVE",
"432 34 CURVE SMOOTH",
"432 57 OFFCURVE",
"423 94 OFFCURVE",
"406 146 CURVE SMOOTH",
"389 198 OFFCURVE",
"380 246 OFFCURVE",
"380 289 CURVE SMOOTH",
"380 302 LINE",
"424 274 OFFCURVE",
"454 251 OFFCURVE",
"468 235 CURVE SMOOTH",
"497 202 OFFCURVE",
"573 108 OFFCURVE",
"632 108 CURVE SMOOTH",
"667 108 OFFCURVE",
"691 133 OFFCURVE",
"691 163 CURVE SMOOTH",
"691 180 OFFCURVE",
"684 195 OFFCURVE",
"670 210 CURVE SMOOTH",
"642 239 OFFCURVE",
"580 254 OFFCURVE",
"507 269 CURVE SMOOTH",
"470 276 OFFCURVE",
"431 292 OFFCURVE",
"388 316 CURVE",
"432 340 OFFCURVE",
"472 356 OFFCURVE",
"510 364 CURVE SMOOTH",
"547 372 OFFCURVE",
"580 380 OFFCURVE",
"608 389 CURVE SMOOTH",
"666 406 OFFCURVE",
"691 437 OFFCURVE",
"691 471 CURVE SMOOTH",
"691 502 OFFCURVE",
"667 524 OFFCURVE",
"635 524 CURVE SMOOTH",
"615 524 OFFCURVE",
"596 518 OFFCURVE",
"577 505 CURVE SMOOTH",
"559 493 OFFCURVE",
"526 461 OFFCURVE",
"479 409 CURVE",
"450 380 LINE",
"436 368 OFFCURVE",
"413 351 OFFCURVE",
"380 330 CURVE",
"380 378 OFFCURVE",
"389 429 OFFCURVE",
"407 482 CURVE SMOOTH",
"425 535 OFFCURVE",
"434 574 OFFCURVE",
"434 598 CURVE SMOOTH",
"434 646 OFFCURVE",
"407 678 OFFCURVE",
"372 678 CURVE SMOOTH",
"336 678 OFFCURVE",
"310 644 OFFCURVE",
"310 598 CURVE SMOOTH",
"310 563 OFFCURVE",
"335 488 OFFCURVE",
"351 440 CURVE SMOOTH",
"358 416 OFFCURVE",
"362 383 OFFCURVE",
"362 343 CURVE SMOOTH",
"362 330 LINE",
"322 354 OFFCURVE",
"291 379 OFFCURVE",
"269 404 CURVE SMOOTH",
"224 454 OFFCURVE",
"163 524 OFFCURVE",
"110 524 CURVE SMOOTH",
"75 524 OFFCURVE",
"51 501 OFFCURVE",
"51 471 CURVE SMOOTH",
"51 454 OFFCURVE",
"58 438 OFFCURVE",
"71 423 CURVE SMOOTH",
"98 394 OFFCURVE",
"157 379 OFFCURVE",
"232 364 CURVE SMOOTH",
"270 356 OFFCURVE",
"311 340 OFFCURVE",
"354 316 CURVE",
"312 292 OFFCURVE",
"272 276 OFFCURVE",
"236 269 CURVE SMOOTH",
"199 262 OFFCURVE",
"166 253 OFFCURVE",
"137 245 CURVE SMOOTH",
"78 227 OFFCURVE",
"51 196 OFFCURVE",
"51 163 CURVE SMOOTH",
"51 133 OFFCURVE",
"77 108 OFFCURVE",
"109 108 CURVE SMOOTH",
"161 108 OFFCURVE",
"210 163 OFFCURVE",
"260 219 CURVE SMOOTH",
"284 248 OFFCURVE",
"318 275 OFFCURVE",
"362 302 CURVE",
"362 250 OFFCURVE",
"353 200 OFFCURVE",
"335 148 CURVE SMOOTH",
"317 97 OFFCURVE",
"308 59 OFFCURVE",
"308 34 CURVE SMOOTH",
"308 -11 OFFCURVE",
"333 -46 OFFCURVE",
"370 -46 CURVE SMOOTH"
);
}
);
width = 742;
}
);
note = uni273D;
unicode = 273D;
},
{
glyphname = uni273E;
lastChange = "2016-08-19 02:48:46 +0000";
layers = (
{
layerId = "6E183CFB-E55F-4C96-8804-AC4D4AF4B24B";
paths = (
{
closed = 1;
nodes = (
"465 -64 OFFCURVE",
"504 -14 OFFCURVE",
"504 50 CURVE SMOOTH",
"504 73 OFFCURVE",
"490 109 OFFCURVE",
"462 161 CURVE SMOOTH",
"448 188 LINE",
"408 272 LINE",
"426 280 LINE",
"443 254 LINE SMOOTH",
"489 182 OFFCURVE",
"525 134 OFFCURVE",
"551 112 CURVE SMOOTH",
"576 89 OFFCURVE",
"604 78 OFFCURVE",
"633 78 CURVE SMOOTH",
"666 78 OFFCURVE",
"698 92 OFFCURVE",
"730 120 CURVE",
"732 132 OFFCURVE",
"734 146 OFFCURVE",
"734 161 CURVE SMOOTH",
"734 202 OFFCURVE",
"720 233 OFFCURVE",
"692 257 CURVE SMOOTH",
"665 280 OFFCURVE",
"604 295 OFFCURVE",
"510 301 CURVE SMOOTH",
"440 306 LINE",
"440 324 LINE",
"534 330 LINE SMOOTH",
"594 333 OFFCURVE",
"637 338 OFFCURVE",
"663 347 CURVE SMOOTH",
"714 362 OFFCURVE",
"743 395 OFFCURVE",
"743 444 CURVE SMOOTH",
"743 493 OFFCURVE",
"699 554 OFFCURVE",
"639 554 CURVE SMOOTH",
"589 554 OFFCURVE",
"548 523 OFFCURVE",
"511 464 CURVE SMOOTH",
"482 418 LINE",
"430 342 LINE",
"412 354 LINE",
"426 382 LINE SMOOTH",
"455 438 OFFCURVE",
"474 481 OFFCURVE",
"483 509 CURVE SMOOTH",
"493 537 OFFCURVE",
"498 559 OFFCURVE",
"498 576 CURVE SMOOTH",
"498 632 OFFCURVE",
"460 676 OFFCURVE",
"396 698 CURVE",
"333 677 OFFCURVE",
"296 635 OFFCURVE",
"296 576 CURVE SMOOTH",
"296 537 OFFCURVE",
"325 463 OFFCURVE",
"382 354 CURVE",
"364 342 LINE",
"333 386 OFFCURVE",
"301 433 OFFCURVE",
"269 481 CURVE SMOOTH",
"236 530 OFFCURVE",
"197 554 OFFCURVE",
"153 554 CURVE SMOOTH",
"96 554 OFFCURVE",
"51 493 OFFCURVE",
"51 444 CURVE SMOOTH",
"51 373 OFFCURVE",
"99 337 OFFCURVE",
"220 332 CURVE SMOOTH",
"352 324 LINE",
"352 306 LINE",
"282 301 LINE SMOOTH",
"202 296 OFFCURVE",
"147 285 OFFCURVE",
"118 268 CURVE SMOOTH",
"78 245 OFFCURVE",
"58 208 OFFCURVE",
"58 160 CURVE SMOOTH",
"58 146 OFFCURVE",
"60 132 OFFCURVE",
"62 120 CURVE",
"94 92 OFFCURVE",
"126 78 OFFCURVE",
"159 78 CURVE SMOOTH",
"224 78 OFFCURVE",
"270 128 OFFCURVE",
"352 254 CURVE SMOOTH",
"368 280 LINE",
"386 272 LINE",
"359 214 OFFCURVE",
"336 168 OFFCURVE",
"318 133 CURVE SMOOTH",
"299 97 OFFCURVE",
"290 70 OFFCURVE",
"290 50 CURVE SMOOTH",
"290 -14 OFFCURVE",
"326 -64 OFFCURVE",
"396 -64 CURVE SMOOTH"
);
},
{
closed = 1;
nodes = (
"129 110 OFFCURVE",
"109 119 OFFCURVE",
"90 136 CURVE",
"88 145 OFFCURVE",
"87 153 OFFCURVE",
"87 161 CURVE SMOOTH",
"87 192 OFFCURVE",
"104 218 OFFCURVE",
"137 239 CURVE SMOOTH",
"171 260 OFFCURVE",
"226 276 OFFCURVE",
"304 288 CURVE SMOOTH",
"356 296 LINE",
"360 286 LINE",
"327 245 LINE SMOOTH",
"252 147 OFFCURVE",
"197 110 OFFCURVE",
"150 110 CURVE SMOOTH"
);
},
{
closed = 1;
nodes = (
"381 286 OFFCURVE",
"369 298 OFFCURVE",
"369 314 CURVE SMOOTH",
"369 330 OFFCURVE",
"381 342 OFFCURVE",
"397 342 CURVE SMOOTH",
"413 342 OFFCURVE",
"425 330 OFFCURVE",
"425 314 CURVE SMOOTH",
"425 298 OFFCURVE",
"413 286 OFFCURVE",
"397 286 CURVE SMOOTH"
);
},
{
closed = 1;
nodes = (
"596 110 OFFCURVE",
"541 146 OFFCURVE",
"465 245 CURVE SMOOTH",
"432 286 LINE",
"438 296 LINE",
"521 282 LINE SMOOTH",
"627 265 OFFCURVE",
"707 226 OFFCURVE",
"707 160 CURVE SMOOTH",
"707 152 OFFCURVE",
"706 144 OFFCURVE",
"704 136 CURVE",
"685 119 OFFCURVE",
"665 110 OFFCURVE",
"643 110 CURVE SMOOTH"
);
},
{
closed = 1;
nodes = (
"373 405 LINE SMOOTH",
"344 474 OFFCURVE",
"330 528 OFFCURVE",
"330 568 CURVE SMOOTH",
"330 620 OFFCURVE",
"352 653 OFFCURVE",
"396 666 CURVE",
"440 653 OFFCURVE",
"462 620 OFFCURVE",
"462 568 CURVE SMOOTH",
"462 528 OFFCURVE",
"448 474 OFFCURVE",
"421 405 CURVE SMOOTH",
"402 356 LINE",
"392 356 LINE"
);
}
);
width = 794;
}
);
note = uni273E;
unicode = 273E;
},
{
glyphname = uni273F;
lastChange = "2016-08-19 02:48:46 +0000";
layers = (
{
layerId = "6E183CFB-E55F-4C96-8804-AC4D4AF4B24B";
paths = (
{
closed = 1;
nodes = (
"350 -20 OFFCURVE",
"407 39 OFFCURVE",
"407 121 CURVE SMOOTH",
"407 136 OFFCURVE",
"405 150 OFFCURVE",
"402 164 CURVE",
"436 164 LINE",
"433 152 OFFCURVE",
"431 137 OFFCURVE",
"431 121 CURVE SMOOTH",
"431 38 OFFCURVE",
"488 -20 OFFCURVE",
"564 -20 CURVE SMOOTH",
"637 -20 OFFCURVE",
"698 44 OFFCURVE",
"698 116 CURVE SMOOTH",
"698 188 OFFCURVE",
"636 244 OFFCURVE",
"556 252 CURVE",
"566 284 LINE",
"599 266 OFFCURVE",
"630 257 OFFCURVE",
"661 257 CURVE SMOOTH",
"729 257 OFFCURVE",
"787 320 OFFCURVE",
"787 390 CURVE SMOOTH",
"787 465 OFFCURVE",
"726 525 OFFCURVE",
"654 525 CURVE SMOOTH",
"598 525 OFFCURVE",
"543 482 OFFCURVE",
"520 426 CURVE",
"494 446 LINE",
"529 477 OFFCURVE",
"554 523 OFFCURVE",
"554 560 CURVE SMOOTH",
"554 634 OFFCURVE",
"492 696 OFFCURVE",
"418 696 CURVE SMOOTH",
"344 696 OFFCURVE",
"284 635 OFFCURVE",
"284 560 CURVE SMOOTH",
"284 523 OFFCURVE",
"308 479 OFFCURVE",
"344 446 CURVE",
"318 426 LINE",
"295 480 OFFCURVE",
"239 525 OFFCURVE",
"184 525 CURVE SMOOTH",
"112 525 OFFCURVE",
"51 466 OFFCURVE",
"51 390 CURVE SMOOTH",
"51 319 OFFCURVE",
"106 257 OFFCURVE",
"178 257 CURVE SMOOTH",
"208 257 OFFCURVE",
"245 269 OFFCURVE",
"272 284 CURVE",
"282 252 LINE",
"200 244 OFFCURVE",
"140 188 OFFCURVE",
"140 116 CURVE SMOOTH",
"140 42 OFFCURVE",
"202 -20 OFFCURVE",
"274 -20 CURVE SMOOTH"
);
},
{
closed = 1;
nodes = (
"351 190 OFFCURVE",
"296 245 OFFCURVE",
"296 314 CURVE SMOOTH",
"296 382 OFFCURVE",
"350 438 OFFCURVE",
"418 438 CURVE SMOOTH",
"486 438 OFFCURVE",
"542 382 OFFCURVE",
"542 314 CURVE SMOOTH",
"542 246 OFFCURVE",
"486 190 OFFCURVE",
"418 190 CURVE SMOOTH"
);
}
);
width = 838;
}
);
note = uni273F;
unicode = 273F;
},
{
glyphname = uni2740;
lastChange = "2016-08-19 02:48:46 +0000";
layers = (
{
layerId = "6E183CFB-E55F-4C96-8804-AC4D4AF4B24B";
paths = (
{
closed = 1;
nodes = (
"379 -48 OFFCURVE",
"438 27 OFFCURVE",
"453 150 CURVE",
"453 127 OFFCURVE",
"459 99 OFFCURVE",
"473 64 CURVE SMOOTH",
"498 -5 OFFCURVE",
"549 -48 OFFCURVE",
"615 -48 CURVE SMOOTH",
"689 -48 OFFCURVE",
"755 23 OFFCURVE",
"755 84 CURVE SMOOTH",
"755 169 OFFCURVE",
"678 239 OFFCURVE",
"609 264 CURVE",
"625 259 OFFCURVE",
"649 255 OFFCURVE",
"680 254 CURVE",
"768 254 OFFCURVE",
"855 306 OFFCURVE",
"855 395 CURVE SMOOTH",
"855 482 OFFCURVE",
"791 538 OFFCURVE",
"719 538 CURVE SMOOTH",
"656 538 OFFCURVE",
"596 506 OFFCURVE",
"553 453 CURVE SMOOTH",
"549 448 LINE",
"575 485 OFFCURVE",
"591 537 OFFCURVE",
"591 586 CURVE SMOOTH",
"591 667 OFFCURVE",
"536 730 OFFCURVE",
"453 730 CURVE SMOOTH",
"368 730 OFFCURVE",
"313 665 OFFCURVE",
"313 586 CURVE SMOOTH",
"313 533 OFFCURVE",
"332 481 OFFCURVE",
"355 448 CURVE",
"314 500 OFFCURVE",
"246 538 OFFCURVE",
"187 538 CURVE SMOOTH",
"113 538 OFFCURVE",
"51 480 OFFCURVE",
"51 394 CURVE SMOOTH",
"51 308 OFFCURVE",
"132 254 OFFCURVE",
"225 254 CURVE SMOOTH",
"248 254 OFFCURVE",
"271 257 OFFCURVE",
"295 264 CURVE",
"228 241 OFFCURVE",
"151 166 OFFCURVE",
"151 86 CURVE SMOOTH",
"151 20 OFFCURVE",
"220 -48 OFFCURVE",
"290 -48 CURVE SMOOTH"
);
},
{
closed = 1;
nodes = (
"255 16 OFFCURVE",
"204 62 OFFCURVE",
"204 114 CURVE SMOOTH",
"204 183 OFFCURVE",
"282 240 OFFCURVE",
"335 250 CURVE",
"353 222 LINE",
"347 198 OFFCURVE",
"335 180 OFFCURVE",
"318 168 CURVE SMOOTH",
"301 156 OFFCURVE",
"292 144 OFFCURVE",
"292 130 CURVE SMOOTH",
"292 119 OFFCURVE",
"302 107 OFFCURVE",
"314 107 CURVE SMOOTH",
"330 107 OFFCURVE",
"341 118 OFFCURVE",
"347 141 CURVE SMOOTH",
"354 163 OFFCURVE",
"368 182 OFFCURVE",
"391 196 CURVE",
"423 186 LINE",
"424 178 LINE",
"424 168 LINE SMOOTH",
"424 106 OFFCURVE",
"373 16 OFFCURVE",
"306 16 CURVE SMOOTH"
);
},
{
closed = 1;
nodes = (
"173 278 OFFCURVE",
"120 322 OFFCURVE",
"120 382 CURVE SMOOTH",
"120 438 OFFCURVE",
"159 484 OFFCURVE",
"215 484 CURVE SMOOTH",
"274 484 OFFCURVE",
"335 439 OFFCURVE",
"355 398 CURVE",
"335 370 LINE",
"331 370 LINE SMOOTH",
"313 370 OFFCURVE",
"294 375 OFFCURVE",
"276 386 CURVE SMOOTH",
"257 396 OFFCURVE",
"244 401 OFFCURVE",
"236 401 CURVE SMOOTH",
"224 401 OFFCURVE",
"212 395 OFFCURVE",
"212 380 CURVE SMOOTH",
"212 363 OFFCURVE",
"229 353 OFFCURVE",
"261 350 CURVE SMOOTH",
"294 346 OFFCURVE",
"314 338 OFFCURVE",
"321 328 CURVE",
"321 294 LINE",
"301 283 OFFCURVE",
"278 278 OFFCURVE",
"251 278 CURVE SMOOTH"
);
},
{
closed = 1;
nodes = (
"573 16 OFFCURVE",
"554 24 OFFCURVE",
"536 39 CURVE SMOOTH",
"500 70 OFFCURVE",
"476 131 OFFCURVE",
"476 168 CURVE SMOOTH",
"476 178 LINE",
"477 186 LINE",
"509 196 LINE",
"529 181 OFFCURVE",
"544 163 OFFCURVE",
"552 141 CURVE SMOOTH",
"561 118 OFFCURVE",
"572 107 OFFCURVE",
"586 107 CURVE SMOOTH",
"597 107 OFFCURVE",
"607 117 OFFCURVE",
"607 128 CURVE SMOOTH",
"607 141 OFFCURVE",
"598 154 OFFCURVE",
"581 168 CURVE SMOOTH",
"563 181 OFFCURVE",
"552 199 OFFCURVE",
"547 222 CURVE",
"565 250 LINE",
"619 238 OFFCURVE",
"696 184 OFFCURVE",
"696 114 CURVE SMOOTH",
"696 63 OFFCURVE",
"646 16 OFFCURVE",
"594 16 CURVE SMOOTH"
);
},
{
closed = 1;
nodes = (
"370 458 OFFCURVE",
"353 507 OFFCURVE",
"353 554 CURVE SMOOTH",
"353 617 OFFCURVE",
"395 658 OFFCURVE",
"453 658 CURVE SMOOTH",
"511 658 OFFCURVE",
"551 617 OFFCURVE",
"551 554 CURVE SMOOTH",
"551 507 OFFCURVE",
"534 459 OFFCURVE",
"507 432 CURVE",
"475 444 LINE",
"470 457 OFFCURVE",
"467 470 OFFCURVE",
"467 482 CURVE SMOOTH",
"467 488 OFFCURVE",
"470 500 OFFCURVE",
"476 520 CURVE",
"477 530 LINE",
"477 548 OFFCURVE",
"469 564 OFFCURVE",
"453 564 CURVE SMOOTH",
"437 564 OFFCURVE",
"429 548 OFFCURVE",
"429 530 CURVE",
"431 520 LINE",
"435 499 OFFCURVE",
"437 486 OFFCURVE",
"437 482 CURVE SMOOTH",
"437 472 OFFCURVE",
"435 459 OFFCURVE",
"429 444 CURVE",
"397 432 LINE"
);
},
{
closed = 1;
nodes = (
"626 278 OFFCURVE",
"603 283 OFFCURVE",
"583 294 CURVE",
"585 328 LINE",
"604 343 OFFCURVE",
"627 351 OFFCURVE",
"653 352 CURVE SMOOTH",
"679 353 OFFCURVE",
"692 362 OFFCURVE",
"692 379 CURVE SMOOTH",
"692 394 OFFCURVE",
"684 401 OFFCURVE",
"668 401 CURVE SMOOTH",
"659 401 OFFCURVE",
"647 396 OFFCURVE",
"631 386 CURVE SMOOTH",
"615 376 OFFCURVE",
"599 371 OFFCURVE",
"583 371 CURVE SMOOTH",
"575 370 LINE",
"571 370 LINE",
"549 398 LINE",
"568 438 OFFCURVE",
"629 484 OFFCURVE",
"690 484 CURVE SMOOTH",
"745 484 OFFCURVE",
"786 440 OFFCURVE",
"786 382 CURVE SMOOTH",
"786 322 OFFCURVE",
"732 278 OFFCURVE",
"654 278 CURVE SMOOTH"
);
}
);
width = 906;
}
);
note = uni2740;
unicode = 2740;
},
{
glyphname = uni2741;
lastChange = "2016-08-19 02:48:46 +0000";
layers = (
{
layerId = "6E183CFB-E55F-4C96-8804-AC4D4AF4B24B";
paths = (
{
closed = 1;
nodes = (
"464 -78 OFFCURVE",
"506 -42 OFFCURVE",
"506 26 CURVE SMOOTH",
"506 34 OFFCURVE",
"505 42 OFFCURVE",
"504 48 CURVE",
"526 17 OFFCURVE",
"558 -2 OFFCURVE",
"590 -2 CURVE SMOOTH",
"646 -2 OFFCURVE",
"710 60 OFFCURVE",
"710 118 CURVE SMOOTH",
"710 149 OFFCURVE",
"691 181 OFFCURVE",
"660 204 CURVE",
"667 203 OFFCURVE",
"674 202 OFFCURVE",
"682 202 CURVE SMOOTH",
"750 202 OFFCURVE",
"786 244 OFFCURVE",
"786 314 CURVE SMOOTH",
"786 384 OFFCURVE",
"750 426 OFFCURVE",
"682 426 CURVE SMOOTH",
"674 426 OFFCURVE",
"667 425 OFFCURVE",
"660 424 CURVE",
"693 450 OFFCURVE",
"710 479 OFFCURVE",
"710 511 CURVE SMOOTH",
"710 574 OFFCURVE",
"655 627 OFFCURVE",
"590 627 CURVE SMOOTH",
"561 627 OFFCURVE",
"529 610 OFFCURVE",
"504 580 CURVE",
"505 586 OFFCURVE",
"506 594 OFFCURVE",
"506 602 CURVE SMOOTH",
"506 670 OFFCURVE",
"464 706 OFFCURVE",
"394 706 CURVE SMOOTH",
"324 706 OFFCURVE",
"282 670 OFFCURVE",
"282 602 CURVE SMOOTH",
"282 594 OFFCURVE",
"283 586 OFFCURVE",
"284 580 CURVE",
"263 608 OFFCURVE",
"229 627 OFFCURVE",
"198 627 CURVE SMOOTH",
"131 627 OFFCURVE",
"78 574 OFFCURVE",
"78 511 CURVE SMOOTH",
"78 479 OFFCURVE",
"97 447 OFFCURVE",
"128 424 CURVE",
"122 424 LINE",
"106 425 LINE SMOOTH",
"48 425 OFFCURVE",
"2 386 OFFCURVE",
"2 314 CURVE SMOOTH",
"2 244 OFFCURVE",
"38 202 OFFCURVE",
"106 202 CURVE SMOOTH",
"114 202 OFFCURVE",
"122 203 OFFCURVE",
"128 204 CURVE",
"97 182 OFFCURVE",
"78 150 OFFCURVE",
"78 118 CURVE SMOOTH",
"78 60 OFFCURVE",
"142 -2 OFFCURVE",
"198 -2 CURVE SMOOTH",
"230 -2 OFFCURVE",
"263 18 OFFCURVE",
"284 48 CURVE",
"283 42 OFFCURVE",
"282 34 OFFCURVE",
"282 26 CURVE SMOOTH",
"282 -42 OFFCURVE",
"324 -78 OFFCURVE",
"394 -78 CURVE SMOOTH"
);
},
{
closed = 1;
nodes = (
"153 26 OFFCURVE",
"107 73 OFFCURVE",
"107 116 CURVE SMOOTH",
"107 162 OFFCURVE",
"154 206 OFFCURVE",
"218 230 CURVE SMOOTH",
"280 254 LINE",
"286 242 LINE",
"253 222 OFFCURVE",
"150 171 OFFCURVE",
"150 117 CURVE SMOOTH",
"150 89 OFFCURVE",
"170 68 OFFCURVE",
"199 68 CURVE SMOOTH",
"240 68 OFFCURVE",
"278 122 OFFCURVE",
"294 154 CURVE",
"324 206 LINE",
"336 198 LINE",
"310 136 LINE SMOOTH",
"273 51 OFFCURVE",
"237 26 OFFCURVE",
"196 26 CURVE SMOOTH"
);
},
{
closed = 1;
nodes = (
"62 224 OFFCURVE",
"28 257 OFFCURVE",
"28 312 CURVE SMOOTH",
"28 367 OFFCURVE",
"64 400 OFFCURVE",
"118 400 CURVE SMOOTH",
"140 400 OFFCURVE",
"182 390 OFFCURVE",
"210 378 CURVE SMOOTH",
"272 352 LINE",
"268 338 LINE",
"198 356 LINE SMOOTH",
"172 363 OFFCURVE",
"151 366 OFFCURVE",
"134 366 CURVE SMOOTH",
"96 366 OFFCURVE",
"68 343 OFFCURVE",
"68 312 CURVE SMOOTH",
"68 281 OFFCURVE",
"96 258 OFFCURVE",
"134 258 CURVE SMOOTH",
"156 258 OFFCURVE",
"182 262 OFFCURVE",
"212 270 CURVE SMOOTH",
"268 286 LINE",
"272 272 LINE",
"210 246 LINE SMOOTH",
"181 234 OFFCURVE",
"140 224 OFFCURVE",
"118 224 CURVE SMOOTH"
);
},
{
closed = 1;
nodes = (
"341 -52 OFFCURVE",
"306 -18 OFFCURVE",
"306 38 CURVE SMOOTH",
"306 60 OFFCURVE",
"316 102 OFFCURVE",
"328 130 CURVE SMOOTH",
"354 192 LINE",
"368 188 LINE",
"350 118 LINE SMOOTH",
"343 92 OFFCURVE",
"340 71 OFFCURVE",
"340 54 CURVE SMOOTH",
"340 17 OFFCURVE",
"362 -12 OFFCURVE",
"394 -12 CURVE SMOOTH",
"425 -12 OFFCURVE",
"448 17 OFFCURVE",
"448 54 CURVE SMOOTH",
"448 76 OFFCURVE",
"444 102 OFFCURVE",
"436 132 CURVE SMOOTH",
"420 188 LINE",
"434 192 LINE",
"460 130 LINE SMOOTH",
"472 101 OFFCURVE",
"482 60 OFFCURVE",
"482 38 CURVE SMOOTH",
"482 -17 OFFCURVE",
"448 -52 OFFCURVE",
"394 -52 CURVE SMOOTH"
);
},
{
closed = 1;
nodes = (
"216 396 LINE SMOOTH",
"161 416 OFFCURVE",
"106 461 OFFCURVE",
"106 512 CURVE SMOOTH",
"106 560 OFFCURVE",
"149 600 OFFCURVE",
"194 600 CURVE SMOOTH",
"246 600 OFFCURVE",
"291 542 OFFCURVE",
"310 490 CURVE SMOOTH",
"334 428 LINE",
"322 422 LINE",
"294 472 LINE",
"278 504 OFFCURVE",
"242 558 OFFCURVE",
"197 558 CURVE",
"169 557 OFFCURVE",
"148 538 OFFCURVE",
"148 509 CURVE SMOOTH",
"148 475 OFFCURVE",
"172 450 OFFCURVE",
"236 414 CURVE SMOOTH",
"286 384 LINE",
"278 372 LINE"
);
},
{
closed = 1;
nodes = (
"542 26 OFFCURVE",
"498 78 OFFCURVE",
"476 136 CURVE SMOOTH",
"452 198 LINE",
"464 206 LINE",
"492 154 LINE SMOOTH",
"508 123 OFFCURVE",
"544 68 OFFCURVE",
"589 68 CURVE SMOOTH",
"617 68 OFFCURVE",
"638 89 OFFCURVE",
"638 117 CURVE SMOOTH",
"638 132 OFFCURVE",
"632 147 OFFCURVE",
"621 161 CURVE SMOOTH",
"609 175 OFFCURVE",
"585 192 OFFCURVE",
"550 212 CURVE",
"500 242 LINE",
"508 254 LINE",
"570 230 LINE SMOOTH",
"632 206 OFFCURVE",
"680 163 OFFCURVE",
"680 114 CURVE SMOOTH",
"680 72 OFFCURVE",
"634 26 OFFCURVE",
"592 26 CURVE SMOOTH"
);
},
{
closed = 1;
nodes = (
"337 212 OFFCURVE",
"292 257 OFFCURVE",
"292 314 CURVE SMOOTH",
"292 371 OFFCURVE",
"337 416 OFFCURVE",
"394 416 CURVE SMOOTH",
"451 416 OFFCURVE",
"496 371 OFFCURVE",
"496 314 CURVE SMOOTH",
"496 257 OFFCURVE",
"451 212 OFFCURVE",
"394 212 CURVE SMOOTH"
);
},
{
closed = 1;
nodes = (
"647 224 OFFCURVE",
"604 234 OFFCURVE",
"576 246 CURVE SMOOTH",
"514 272 LINE",
"518 286 LINE",
"529 283 OFFCURVE",
"609 258 OFFCURVE",
"654 258 CURVE SMOOTH",
"691 258 OFFCURVE",
"720 280 OFFCURVE",
"720 312 CURVE SMOOTH",
"720 343 OFFCURVE",
"691 366 OFFCURVE",
"654 366 CURVE SMOOTH",
"637 366 OFFCURVE",
"615 363 OFFCURVE",
"589 356 CURVE SMOOTH",
"518 338 LINE",
"514 352 LINE",
"576 378 LINE SMOOTH",
"604 390 OFFCURVE",
"647 400 OFFCURVE",
"670 400 CURVE SMOOTH",
"725 400 OFFCURVE",
"760 366 OFFCURVE",
"760 312 CURVE SMOOTH",
"760 259 OFFCURVE",
"726 224 OFFCURVE",
"670 224 CURVE SMOOTH"
);
},
{
closed = 1;
nodes = (
"328 498 LINE SMOOTH",
"316 527 OFFCURVE",
"306 568 OFFCURVE",
"306 590 CURVE SMOOTH",
"306 646 OFFCURVE",
"339 680 OFFCURVE",
"394 680 CURVE SMOOTH",
"449 680 OFFCURVE",
"482 644 OFFCURVE",
"482 590 CURVE SMOOTH",
"482 568 OFFCURVE",
"472 526 OFFCURVE",
"460 498 CURVE SMOOTH",
"434 436 LINE",
"420 440 LINE",
"422 448 OFFCURVE",
"448 529 OFFCURVE",
"448 574 CURVE SMOOTH",
"448 612 OFFCURVE",
"425 640 OFFCURVE",
"394 640 CURVE SMOOTH",
"363 640 OFFCURVE",
"340 612 OFFCURVE",
"340 574 CURVE SMOOTH",
"340 554 OFFCURVE",
"345 528 OFFCURVE",
"354 496 CURVE",
"368 440 LINE",
"354 436 LINE"
);
},
{
closed = 1;
nodes = (
"502 384 LINE",
"536 404 OFFCURVE",
"638 455 OFFCURVE",
"638 509 CURVE SMOOTH",
"638 537 OFFCURVE",
"617 558 OFFCURVE",
"589 558 CURVE SMOOTH",
"548 558 OFFCURVE",
"510 504 OFFCURVE",
"494 472 CURVE",
"466 422 LINE",
"452 428 LINE",
"478 490 LINE SMOOTH",
"510 563 OFFCURVE",
"549 600 OFFCURVE",
"594 600 CURVE SMOOTH",
"639 600 OFFCURVE",
"682 561 OFFCURVE",
"682 512 CURVE SMOOTH",
"682 462 OFFCURVE",
"630 417 OFFCURVE",
"572 396 CURVE SMOOTH",
"508 372 LINE"
);
}
);
width = 789;
}
);
note = uni2741;
unicode = 2741;
},
{
glyphname = uni2742;
lastChange = "2016-08-19 02:48:46 +0000";
layers = (
{
layerId = "6E183CFB-E55F-4C96-8804-AC4D4AF4B24B";
paths = (
{
closed = 1;
nodes = (
"479 -48 OFFCURVE",
"540 -31 OFFCURVE",
"596 1 CURVE SMOOTH",
"708 67 OFFCURVE",
"776 185 OFFCURVE",
"776 314 CURVE SMOOTH",
"776 378 OFFCURVE",
"760 438 OFFCURVE",
"728 493 CURVE SMOOTH",
"664 604 OFFCURVE",
"544 676 OFFCURVE",
"413 676 CURVE SMOOTH",
"348 676 OFFCURVE",
"288 660 OFFCURVE",
"232 627 CURVE SMOOTH",
"121 563 OFFCURVE",
"51 443 OFFCURVE",
"51 314 CURVE SMOOTH",
"51 248 OFFCURVE",
"67 188 OFFCURVE",
"100 132 CURVE SMOOTH",
"164 21 OFFCURVE",
"284 -48 OFFCURVE",
"413 -48 CURVE SMOOTH"
);
},
{
closed = 1;
nodes = (
"233 225 LINE",
"254 185 OFFCURVE",
"284 155 OFFCURVE",
"324 134 CURVE",
"175 76 LINE"
);
},
{
closed = 1;
nodes = (
"349 124 LINE",
"369 117 OFFCURVE",
"390 114 OFFCURVE",
"413 114 CURVE SMOOTH",
"437 114 OFFCURVE",
"458 117 OFFCURVE",
"477 124 CURVE",
"413 -23 LINE"
);
},
{
closed = 1;
nodes = (
"76 314 LINE",
"223 378 LINE",
"216 359 OFFCURVE",
"213 337 OFFCURVE",
"213 314 CURVE SMOOTH",
"213 289 OFFCURVE",
"216 268 OFFCURVE",
"223 250 CURVE"
);
},
{
closed = 1;
nodes = (
"175 552 LINE",
"324 493 LINE",
"284 474 OFFCURVE",
"254 443 OFFCURVE",
"233 402 CURVE"
);
},
{
closed = 1;
nodes = (
"501 134 LINE",
"542 154 OFFCURVE",
"572 185 OFFCURVE",
"592 225 CURVE",
"651 76 LINE"
);
},
{
closed = 1;
nodes = (
"316 139 OFFCURVE",
"238 220 OFFCURVE",
"238 314 CURVE SMOOTH",
"238 408 OFFCURVE",
"316 489 OFFCURVE",
"413 489 CURVE SMOOTH",
"509 489 OFFCURVE",
"588 408 OFFCURVE",
"588 314 CURVE SMOOTH",
"588 220 OFFCURVE",
"509 139 OFFCURVE",
"413 139 CURVE SMOOTH"
);
},
{
closed = 1;
nodes = (
"413 651 LINE",
"477 503 LINE",
"455 510 OFFCURVE",
"434 514 OFFCURVE",
"413 514 CURVE SMOOTH",
"392 514 OFFCURVE",
"370 510 OFFCURVE",
"349 503 CURVE"
);
},
{
closed = 1;
nodes = (
"609 271 OFFCURVE",
"613 292 OFFCURVE",
"613 314 CURVE SMOOTH",
"613 336 OFFCURVE",
"609 357 OFFCURVE",
"602 378 CURVE",
"750 314 LINE",
"602 250 LINE"
);
},
{
closed = 1;
nodes = (
"572 443 OFFCURVE",
"542 474 OFFCURVE",
"501 493 CURVE",
"651 552 LINE",
"592 402 LINE"
);
}
);
width = 827;
}
);
note = uni2742;
unicode = 2742;
},
{
glyphname = uni2743;
lastChange = "2016-08-19 02:48:46 +0000";
layers = (
{
layerId = "6E183CFB-E55F-4C96-8804-AC4D4AF4B24B";
paths = (
{
closed = 1;
nodes = (
"436 -19 OFFCURVE",
"464 17 OFFCURVE",
"464 73 CURVE SMOOTH",
"464 105 OFFCURVE",
"454 140 OFFCURVE",
"434 178 CURVE SMOOTH",
"414 217 OFFCURVE",
"400 246 OFFCURVE",
"394 267 CURVE",
"410 249 OFFCURVE",
"428 224 OFFCURVE",
"449 190 CURVE SMOOTH",
"491 124 OFFCURVE",
"536 93 OFFCURVE",
"586 93 CURVE SMOOTH",
"614 93 OFFCURVE",
"646 106 OFFCURVE",
"681 133 CURVE",
"683 167 LINE",
"683 203 OFFCURVE",
"675 230 OFFCURVE",
"659 250 CURVE SMOOTH",
"627 287 OFFCURVE",
"574 304 OFFCURVE",
"505 306 CURVE SMOOTH",
"471 308 OFFCURVE",
"443 310 OFFCURVE",
"423 314 CURVE",
"445 318 OFFCURVE",
"478 321 OFFCURVE",
"520 323 CURVE SMOOTH",
"605 325 OFFCURVE",
"683 361 OFFCURVE",
"683 461 CURVE",
"681 495 LINE",
"644 522 OFFCURVE",
"612 536 OFFCURVE",
"584 536 CURVE SMOOTH",
"539 536 OFFCURVE",
"490 503 OFFCURVE",
"447 436 CURVE SMOOTH",
"426 402 OFFCURVE",
"408 378 OFFCURVE",
"395 363 CURVE",
"402 383 OFFCURVE",
"415 412 OFFCURVE",
"435 450 CURVE SMOOTH",
"454 487 OFFCURVE",
"464 522 OFFCURVE",
"464 555 CURVE SMOOTH",
"464 610 OFFCURVE",
"437 645 OFFCURVE",
"367 676 CURVE",
"297 647 OFFCURVE",
"270 610 OFFCURVE",
"270 555 CURVE SMOOTH",
"270 522 OFFCURVE",
"280 487 OFFCURVE",
"299 449 CURVE SMOOTH",
"318 410 OFFCURVE",
"332 382 OFFCURVE",
"338 364 CURVE",
"325 380 OFFCURVE",
"308 404 OFFCURVE",
"287 438 CURVE SMOOTH",
"245 503 OFFCURVE",
"194 536 OFFCURVE",
"150 536 CURVE SMOOTH",
"123 536 OFFCURVE",
"90 522 OFFCURVE",
"53 495 CURVE",
"51 461 LINE",
"51 365 OFFCURVE",
"122 327 OFFCURVE",
"213 323 CURVE SMOOTH",
"258 320 OFFCURVE",
"291 317 OFFCURVE",
"310 314 CURVE",
"290 310 OFFCURVE",
"258 307 OFFCURVE",
"214 305 CURVE SMOOTH",
"126 301 OFFCURVE",
"51 265 OFFCURVE",
"51 167 CURVE",
"53 133 LINE",
"89 106 OFFCURVE",
"120 93 OFFCURVE",
"148 93 CURVE SMOOTH",
"199 93 OFFCURVE",
"245 125 OFFCURVE",
"286 192 CURVE SMOOTH",
"307 225 OFFCURVE",
"324 250 OFFCURVE",
"339 266 CURVE",
"332 246 OFFCURVE",
"319 217 OFFCURVE",
"299 179 CURVE SMOOTH",
"280 142 OFFCURVE",
"270 106 OFFCURVE",
"270 73 CURVE SMOOTH",
"270 15 OFFCURVE",
"299 -20 OFFCURVE",
"367 -48 CURVE"
);
},
{
closed = 1;
nodes = (
"125 115 OFFCURVE",
"100 125 OFFCURVE",
"73 144 CURVE",
"342 299 LINE",
"346 293 LINE",
"321 274 OFFCURVE",
"291 239 OFFCURVE",
"257 190 CURVE SMOOTH",
"223 140 OFFCURVE",
"187 115 OFFCURVE",
"148 115 CURVE SMOOTH"
);
},
{
closed = 1;
nodes = (
"367 286 LINE",
"375 286 LINE",
"379 256 OFFCURVE",
"392 221 OFFCURVE",
"412 179 CURVE SMOOTH",
"432 137 OFFCURVE",
"442 102 OFFCURVE",
"442 73 CURVE SMOOTH",
"442 26 OFFCURVE",
"420 -1 OFFCURVE",
"367 -25 CURVE"
);
},
{
closed = 1;
nodes = (
"311 333 OFFCURVE",
"273 340 OFFCURVE",
"225 344 CURVE SMOOTH",
"129 351 OFFCURVE",
"72 382 OFFCURVE",
"72 458 CURVE",
"73 483 LINE",
"342 328 LINE",
"338 321 LINE"
);
},
{
closed = 1;
nodes = (
"391 300 LINE",
"395 306 LINE",
"422 294 OFFCURVE",
"459 287 OFFCURVE",
"506 285 CURVE SMOOTH",
"600 279 OFFCURVE",
"662 248 OFFCURVE",
"662 169 CURVE SMOOTH",
"662 160 LINE",
"661 144 LINE"
);
},
{
closed = 1;
nodes = (
"355 372 OFFCURVE",
"343 408 OFFCURVE",
"323 450 CURVE SMOOTH",
"302 492 OFFCURVE",
"292 527 OFFCURVE",
"292 555 CURVE SMOOTH",
"292 602 OFFCURVE",
"314 629 OFFCURVE",
"367 653 CURVE",
"367 343 LINE",
"359 343 LINE"
);
},
{
closed = 1;
nodes = (
"387 334 LINE",
"410 352 OFFCURVE",
"434 378 OFFCURVE",
"458 415 CURVE SMOOTH",
"507 486 OFFCURVE",
"545 513 OFFCURVE",
"586 513 CURVE SMOOTH",
"608 513 OFFCURVE",
"633 503 OFFCURVE",
"661 483 CURVE",
"391 328 LINE"
);
}
);
width = 734;
}
);
note = uni2743;
unicode = 2743;
},
